<?xml version="1.0" encoding="UTF-8" standalone="no"?>
<!DOCTYPE svg PUBLIC "-//W3C//DTD SVG 1.1//EN"
 "http://www.w3.org/Graphics/SVG/1.1/DTD/svg11.dtd">
<!-- Generated by graphviz version 8.1.0 (20230707.0739)
 -->
<!-- Title: ft_fill_caract Pages: 1 -->
<svg width="395pt" height="241pt"
 viewBox="0.00 0.00 395.25 241.14" xmlns="http://www.w3.org/2000/svg" xmlns:xlink="http://www.w3.org/1999/xlink">

<svg id="main" version="1.1" xmlns="http://www.w3.org/2000/svg" xmlns:xlink="http://www.w3.org/1999/xlink" xml:space="preserve" onload="init(evt)">
<style type="text/css"><![CDATA[
.node, .edge {opacity: 0.7;}
.node.selected, .edge.selected {opacity: 1;}
.edge:hover path { stroke: red; }
.edge:hover polygon { stroke: red; fill: red; }
]]></style>
<script type="application/ecmascript" xlink:href="svg.min.js"/>
<svg id="graph" class="graph">
<g id="graph0" class="graph" transform="scale(1 1) rotate(0) translate(4 237.14)">
<title>ft_fill_caract</title>
<!-- Node1 -->
<g id="Node000001" class="node">
<title>Node1</title>
<g id="a_Node000001"><a xlink:title="Affect repeated character to an allocated string.">
<polygon fill="#999999" stroke="#666666" points="387.25,-134 319.5,-134 319.5,-114 387.25,-114 387.25,-134"/>
<text text-anchor="middle" x="353.38" y="-120.5" font-family="Helvetica,sans-Serif" font-size="10.00">ft_fill_caract</text>
</a>
</g>
</g>
<!-- Node2 -->
<g id="Node000002" class="node">
<title>Node2</title>
<g id="a_Node000002"><a xlink:href="ft__putnbr__base_8c.html#ab5d9d7094e8c0bdcd45b2ca213487b05" target="_top" xlink:title="Manage length and precision specifier before a number replacement.">
<polygon fill="white" stroke="#666666" points="152,-229 98.5,-229 98.5,-209 152,-209 152,-229"/>
<text text-anchor="middle" x="125.25" y="-215.5" font-family="Helvetica,sans-Serif" font-size="10.00">ft_fill_left</text>
</a>
</g>
</g>
<!-- Node1&#45;&gt;Node2 -->
<g id="edge1_Node000001_Node000002" class="edge">
<title>Node1&#45;&gt;Node2</title>
<g id="a_edge1_Node000001_Node000002"><a xlink:title=" ">
<path fill="none" stroke="#63b8ff" d="M344.44,-144.27C334.23,-167.21 314.07,-203.41 283.5,-219 241.67,-240.34 185.07,-233 152.42,-225.89"/>
<polygon fill="#63b8ff" stroke="#63b8ff" points="348.02,-145.79 348.66,-135.22 341.56,-143.08 348.02,-145.79"/>
</a>
</g>
</g>
<!-- Node4 -->
<g id="Node000004" class="node">
<title>Node4</title>
<g id="a_Node000004"><a xlink:href="ft__putnbr__base__p_8c.html#a18fa0ffb2b234b9ab48a8c660625d677" target="_top" xlink:title="Manage length and precision specifier before an memory address replacement.">
<polygon fill="white" stroke="#666666" points="157.25,-153 93.25,-153 93.25,-133 157.25,-133 157.25,-153"/>
<text text-anchor="middle" x="125.25" y="-139.5" font-family="Helvetica,sans-Serif" font-size="10.00">ft_fill_left_p</text>
</a>
</g>
</g>
<!-- Node1&#45;&gt;Node4 -->
<g id="edge3_Node000001_Node000004" class="edge">
<title>Node1&#45;&gt;Node4</title>
<g id="a_edge3_Node000001_Node000004"><a xlink:title=" ">
<path fill="none" stroke="#63b8ff" d="M311.24,-137.28C302.2,-139.66 292.6,-141.77 283.5,-143 240.21,-148.86 189.61,-147.4 157.74,-145.47"/>
<polygon fill="#63b8ff" stroke="#63b8ff" points="311.85,-140.47 320.54,-134.41 309.97,-133.73 311.85,-140.47"/>
</a>
</g>
</g>
<!-- Node6 -->
<g id="Node000006" class="node">
<title>Node6</title>
<g id="a_Node000006"><a xlink:href="ft__putnbr__base_8c.html#a24815d094f34d9eb2a1288d10b8bd359" target="_top" xlink:title="Manage the sign before a number replacement.">
<polygon fill="white" stroke="#666666" points="278.25,-210 198.5,-210 198.5,-190 278.25,-190 278.25,-210"/>
<text text-anchor="middle" x="238.38" y="-196.5" font-family="Helvetica,sans-Serif" font-size="10.00">ft_putnbr_base</text>
</a>
</g>
</g>
<!-- Node1&#45;&gt;Node6 -->
<g id="edge5_Node000001_Node000006" class="edge">
<title>Node1&#45;&gt;Node6</title>
<g id="a_edge5_Node000001_Node000006"><a xlink:title=" ">
<path fill="none" stroke="#63b8ff" d="M331.63,-140.94C318.25,-151.54 300.28,-165.19 283.5,-176 276.02,-180.82 267.5,-185.61 259.95,-189.62"/>
<polygon fill="#63b8ff" stroke="#63b8ff" points="333.47,-143.15 339.09,-134.16 329.09,-137.69 333.47,-143.15"/>
</a>
</g>
</g>
<!-- Node7 -->
<g id="Node000007" class="node">
<title>Node7</title>
<g id="a_Node000007"><a xlink:href="ft__putnbr__base__p_8c.html#a2f33d4ba2e17b7b581850c0bf068afdf" target="_top" xlink:title="Affect a memory address in an certain numbering.">
<polygon fill="white" stroke="#666666" points="283.5,-134 193.25,-134 193.25,-114 283.5,-114 283.5,-134"/>
<text text-anchor="middle" x="238.38" y="-120.5" font-family="Helvetica,sans-Serif" font-size="10.00">ft_putnbr_base_p</text>
</a>
</g>
</g>
<!-- Node1&#45;&gt;Node7 -->
<g id="edge7_Node000001_Node000007" class="edge">
<title>Node1&#45;&gt;Node7</title>
<g id="a_edge7_Node000001_Node000007"><a xlink:title=" ">
<path fill="none" stroke="#63b8ff" d="M308.35,-124C300.27,-124 291.83,-124 283.74,-124"/>
<polygon fill="#63b8ff" stroke="#63b8ff" points="308.08,-127.5 318.08,-124 308.08,-120.5 308.08,-127.5"/>
</a>
</g>
</g>
<!-- Node8 -->
<g id="Node000008" class="node">
<title>Node8</title>
<g id="a_Node000008"><a xlink:href="ft__write_8c.html#a730bd2eb7867fbd80bc9e04f61e416df" target="_top" xlink:title="affect the output of a characters replacement">
<polygon fill="white" stroke="#666666" points="267,-96 209.75,-96 209.75,-76 267,-76 267,-96"/>
<text text-anchor="middle" x="238.38" y="-82.5" font-family="Helvetica,sans-Serif" font-size="10.00">ft_write_c</text>
</a>
</g>
</g>
<!-- Node1&#45;&gt;Node8 -->
<g id="edge9_Node000001_Node000008" class="edge">
<title>Node1&#45;&gt;Node8</title>
<g id="a_edge9_Node000001_Node000008"><a xlink:title=" ">
<path fill="none" stroke="#63b8ff" d="M310.95,-110.07C296.44,-105.19 280.51,-99.83 267.36,-95.41"/>
<polygon fill="#63b8ff" stroke="#63b8ff" points="309.6,-113.65 320.2,-113.52 311.84,-107.01 309.6,-113.65"/>
</a>
</g>
</g>
<!-- Node9 -->
<g id="Node000009" class="node">
<title>Node9</title>
<g id="a_Node000009"><a xlink:href="ft__write_8c.html#a01d254796239c3682d4c3217b0dbfc97" target="_top" xlink:title="affect the output of a replacement by a % character">
<polygon fill="white" stroke="#666666" points="272.62,-58 204.12,-58 204.12,-38 272.62,-38 272.62,-58"/>
<text text-anchor="middle" x="238.38" y="-44.5" font-family="Helvetica,sans-Serif" font-size="10.00">ft_write_prct</text>
</a>
</g>
</g>
<!-- Node1&#45;&gt;Node9 -->
<g id="edge10_Node000001_Node000009" class="edge">
<title>Node1&#45;&gt;Node9</title>
<g id="a_edge10_Node000001_Node000009"><a xlink:title=" ">
<path fill="none" stroke="#63b8ff" d="M334.03,-106.34C320.75,-94.2 301.96,-78.29 283.5,-67 278.38,-63.87 272.65,-60.99 267.05,-58.48"/>
<polygon fill="#63b8ff" stroke="#63b8ff" points="331.2,-108.42 340.9,-112.69 335.98,-103.3 331.2,-108.42"/>
</a>
</g>
</g>
<!-- Node10 -->
<g id="Node000010" class="node">
<title>Node10</title>
<g id="a_Node000010"><a xlink:href="ft__write_8c.html#a2fd555d46ef57de30b899e4c8d41af8a" target="_top" xlink:title="affect the output of a string replacement">
<polygon fill="white" stroke="#666666" points="267,-20 209.75,-20 209.75,0 267,0 267,-20"/>
<text text-anchor="middle" x="238.38" y="-6.5" font-family="Helvetica,sans-Serif" font-size="10.00">ft_write_s</text>
</a>
</g>
</g>
<!-- Node1&#45;&gt;Node10 -->
<g id="edge11_Node000001_Node000010" class="edge">
<title>Node1&#45;&gt;Node10</title>
<g id="a_edge11_Node000001_Node000010"><a xlink:title=" ">
<path fill="none" stroke="#63b8ff" d="M342.24,-104.2C330.58,-83.1 309.62,-49.91 283.5,-29 278.68,-25.14 272.96,-21.93 267.26,-19.31"/>
<polygon fill="#63b8ff" stroke="#63b8ff" points="339.54,-105.57 347.34,-112.74 345.71,-102.27 339.54,-105.57"/>
</a>
</g>
</g>
<!-- Node3 -->
<g id="Node000003" class="node">
<title>Node3</title>
<g id="a_Node000003"><a xlink:href="ft__write_8c.html#acb5c93b91b86ca3ea395b496eef6850d" target="_top" xlink:title="affect the output of a number replacement">
<polygon fill="white" stroke="#666666" points="57.25,-229 0,-229 0,-209 57.25,-209 57.25,-229"/>
<text text-anchor="middle" x="28.62" y="-215.5" font-family="Helvetica,sans-Serif" font-size="10.00">ft_write_d</text>
</a>
</g>
</g>
<!-- Node2&#45;&gt;Node3 -->
<g id="edge2_Node000002_Node000003" class="edge">
<title>Node2&#45;&gt;Node3</title>
<g id="a_edge2_Node000002_Node000003"><a xlink:title=" ">
<path fill="none" stroke="#63b8ff" d="M87.35,-219C77.47,-219 66.95,-219 57.63,-219"/>
<polygon fill="#63b8ff" stroke="#63b8ff" points="87.14,-222.5 97.14,-219 87.14,-215.5 87.14,-222.5"/>
</a>
</g>
</g>
<!-- Node5 -->
<g id="Node000005" class="node">
<title>Node5</title>
<g id="a_Node000005"><a xlink:href="ft__write_8c.html#a905ddf384a970ba04f14b3201c110783" target="_top" xlink:title="affect the output of a pointer replacement">
<polygon fill="white" stroke="#666666" points="57.25,-153 0,-153 0,-133 57.25,-133 57.25,-153"/>
<text text-anchor="middle" x="28.62" y="-139.5" font-family="Helvetica,sans-Serif" font-size="10.00">ft_write_p</text>
</a>
</g>
</g>
<!-- Node4&#45;&gt;Node5 -->
<g id="edge4_Node000004_Node000005" class="edge">
<title>Node4&#45;&gt;Node5</title>
<g id="a_edge4_Node000004_Node000005"><a xlink:title=" ">
<path fill="none" stroke="#63b8ff" d="M82.27,-143C73.93,-143 65.38,-143 57.65,-143"/>
<polygon fill="#63b8ff" stroke="#63b8ff" points="82,-146.5 92,-143 82,-139.5 82,-146.5"/>
</a>
</g>
</g>
<!-- Node6&#45;&gt;Node2 -->
<g id="edge6_Node000006_Node000002" class="edge">
<title>Node6&#45;&gt;Node2</title>
<g id="a_edge6_Node000006_Node000002"><a xlink:title=" ">
<path fill="none" stroke="#63b8ff" d="M187.62,-208.51C175.4,-210.6 162.8,-212.75 152.22,-214.56"/>
<polygon fill="#63b8ff" stroke="#63b8ff" points="187.93,-211.83 197.2,-206.7 186.75,-204.93 187.93,-211.83"/>
</a>
</g>
</g>
<!-- Node7&#45;&gt;Node4 -->
<g id="edge8_Node000007_Node000004" class="edge">
<title>Node7&#45;&gt;Node4</title>
<g id="a_edge8_Node000007_Node000004"><a xlink:title=" ">
<path fill="none" stroke="#63b8ff" d="M182.15,-133.44C173.68,-134.89 165.2,-136.34 157.5,-137.66"/>
<polygon fill="#63b8ff" stroke="#63b8ff" points="182.55,-136.75 191.82,-131.62 181.37,-129.85 182.55,-136.75"/>
</a>
</g>
</g>
</g>
</svg>
</svg>

<style type='text/css'>
<![CDATA[
[data-mouse-over-selected='false'] { opacity: 0.7; }
[data-mouse-over-selected='true']  { opacity: 1.0; }
]]>
</style>
<script type="application/ecmascript"><![CDATA[
document.addEventListener('DOMContentLoaded', (event) => {
  highlightEdges();
  highlightAdjacentNodes();
});
]]></script>
</svg>
