<?xml version="1.0" encoding="UTF-8" standalone="no"?>
<!DOCTYPE svg PUBLIC "-//W3C//DTD SVG 1.1//EN"
 "http://www.w3.org/Graphics/SVG/1.1/DTD/svg11.dtd">
<!-- Generated by graphviz version 8.1.0 (20230707.0739)
 -->
<!-- Title: ft_countnbr_base Pages: 1 -->
<svg width="339pt" height="85pt"
 viewBox="0.00 0.00 339.00 85.00" xmlns="http://www.w3.org/2000/svg" xmlns:xlink="http://www.w3.org/1999/xlink">
<g id="graph0" class="graph" transform="scale(1 1) rotate(0) translate(4 81)">
<title>ft_countnbr_base</title>
<!-- Node1 -->
<g id="Node000001" class="node">
<title>Node1</title>
<g id="a_Node000001"><a xlink:title="Calculation of the length needed for a number replacement.">
<polygon fill="#999999" stroke="#666666" points="90.25,-58 0,-58 0,-38 90.25,-38 90.25,-58"/>
<text text-anchor="middle" x="45.12" y="-44.5" font-family="Helvetica,sans-Serif" font-size="10.00">ft_countnbr_base</text>
</a>
</g>
</g>
<!-- Node2 -->
<g id="Node000002" class="node">
<title>Node2</title>
<g id="a_Node000002"><a xlink:href="ft__putnbr__base_8c.html#a522e39ec68ab1b0f1e65eae477f9167c" target="_top" xlink:title="Calculation of a number of digit.">
<polygon fill="white" stroke="#666666" points="244.5,-77 207.5,-77 207.5,-57 244.5,-57 244.5,-77"/>
<text text-anchor="middle" x="226" y="-63.5" font-family="Helvetica,sans-Serif" font-size="10.00">ft_ch</text>
</a>
</g>
</g>
<!-- Node1&#45;&gt;Node2 -->
<g id="edge1_Node000001_Node000002" class="edge">
<title>Node1&#45;&gt;Node2</title>
<g id="a_edge1_Node000001_Node000002"><a xlink:title=" ">
<path fill="none" stroke="#63b8ff" d="M82.1,-58.42C95.8,-61.88 111.62,-65.29 126.25,-67 149.74,-69.75 176.58,-69.53 196.35,-68.75"/>
<polygon fill="#63b8ff" stroke="#63b8ff" points="196.26,-72.21 206.09,-68.25 195.93,-65.22 196.26,-72.21"/>
</a>
</g>
</g>
<!-- Node4 -->
<g id="Node000004" class="node">
<title>Node4</title>
<g id="a_Node000004"><a xlink:href="ft__putnbr__base_8c.html#a817a9932ef93b9a42819eafa88b400e6" target="_top" xlink:title="Calculation of a number of characters needed for printing a given number.">
<polygon fill="white" stroke="#666666" points="167.38,-58 130.38,-58 130.38,-38 167.38,-38 167.38,-58"/>
<text text-anchor="middle" x="148.88" y="-44.5" font-family="Helvetica,sans-Serif" font-size="10.00">ft_cy</text>
</a>
</g>
</g>
<!-- Node1&#45;&gt;Node4 -->
<g id="edge3_Node000001_Node000004" class="edge">
<title>Node1&#45;&gt;Node4</title>
<g id="a_edge3_Node000001_Node000004"><a xlink:title=" ">
<path fill="none" stroke="#63b8ff" d="M90.46,-48C100.14,-48 110.14,-48 119.03,-48"/>
<polygon fill="#63b8ff" stroke="#63b8ff" points="118.96,-51.5 128.96,-48 118.96,-44.5 118.96,-51.5"/>
</a>
</g>
</g>
<!-- Node5 -->
<g id="Node000005" class="node">
<title>Node5</title>
<g id="a_Node000005"><a xlink:href="ft__isdigit_8c.html#abc1bdaeaea0d28d9499f5f13194ca0ca" target="_top" xlink:title="Replication of the max function.">
<polygon fill="white" stroke="#666666" points="171.5,-20 126.25,-20 126.25,0 171.5,0 171.5,-20"/>
<text text-anchor="middle" x="148.88" y="-6.5" font-family="Helvetica,sans-Serif" font-size="10.00">ft_max</text>
</a>
</g>
</g>
<!-- Node1&#45;&gt;Node5 -->
<g id="edge5_Node000001_Node000005" class="edge">
<title>Node1&#45;&gt;Node5</title>
<g id="a_edge5_Node000001_Node000005"><a xlink:title=" ">
<path fill="none" stroke="#63b8ff" d="M74.2,-37.52C87.1,-32.7 102.47,-26.96 115.83,-21.97"/>
<polygon fill="#63b8ff" stroke="#63b8ff" points="116.88,-24.94 125.02,-18.16 114.43,-18.38 116.88,-24.94"/>
</a>
</g>
</g>
<!-- Node3 -->
<g id="Node000003" class="node">
<title>Node3</title>
<g id="a_Node000003"><a xlink:href="ft__strlen_8c.html#a828402378653640f545a4be2e00e92f9" target="_top" xlink:title="Replication of the strlen function.">
<polygon fill="white" stroke="#666666" points="331,-77 280.5,-77 280.5,-57 331,-57 331,-77"/>
<text text-anchor="middle" x="305.75" y="-63.5" font-family="Helvetica,sans-Serif" font-size="10.00">ft_strlen</text>
</a>
</g>
</g>
<!-- Node2&#45;&gt;Node3 -->
<g id="edge2_Node000002_Node000003" class="edge">
<title>Node2&#45;&gt;Node3</title>
<g id="a_edge2_Node000002_Node000003"><a xlink:title=" ">
<path fill="none" stroke="#63b8ff" d="M244.64,-67C251.93,-67 260.66,-67 269.17,-67"/>
<polygon fill="#63b8ff" stroke="#63b8ff" points="269.1,-70.5 279.1,-67 269.1,-63.5 269.1,-70.5"/>
</a>
</g>
</g>
<!-- Node4&#45;&gt;Node2 -->
<g id="edge4_Node000004_Node000002" class="edge">
<title>Node4&#45;&gt;Node2</title>
<g id="a_edge4_Node000004_Node000002"><a xlink:title=" ">
<path fill="none" stroke="#63b8ff" d="M167.68,-52.5C176.32,-54.69 186.9,-57.36 196.62,-59.82"/>
<polygon fill="#63b8ff" stroke="#63b8ff" points="195.51,-63.4 206.06,-62.46 197.23,-56.62 195.51,-63.4"/>
</a>
</g>
</g>
</g>
</svg>
