<?xml version="1.0" encoding="UTF-8" standalone="no"?>
<!DOCTYPE svg PUBLIC "-//W3C//DTD SVG 1.1//EN"
 "http://www.w3.org/Graphics/SVG/1.1/DTD/svg11.dtd">
<!-- Generated by graphviz version 8.1.0 (20230707.0739)
 -->
<!-- Title: ft_strlen Pages: 1 -->
<!--zoomable 379 -->

<svg id="main" version="1.1" xmlns="http://www.w3.org/2000/svg" xmlns:xlink="http://www.w3.org/1999/xlink" xml:space="preserve" onload="init(evt)">
<style type="text/css"><![CDATA[
.node, .edge {opacity: 0.7;}
.node.selected, .edge.selected {opacity: 1;}
.edge:hover path { stroke: red; }
.edge:hover polygon { stroke: red; fill: red; }
]]></style>

<defs>
  <circle id="rim" cx="0" cy="0" r="7"/>
  <circle id="rim2" cx="0" cy="0" r="3.5"/>
  <g id="zoomPlus">
    <use xlink:href="#rim" fill="#404040"><set attributeName="fill" to="#808080" begin="zoomplus.mouseover" end="zoomplus.mouseout"/></use>
    <path d="M-4,0h8M0,-4v8" fill="none" stroke="white" stroke-width="1.5" pointer-events="none"/>
  </g>
  <g id="zoomMin">
    <use xlink:href="#rim" fill="#404040"><set attributeName="fill" to="#808080" begin="zoomminus.mouseover" end="zoomminus.mouseout"/></use>
    <path d="M-4,0h8" fill="none" stroke="white" stroke-width="1.5" pointer-events="none"/>
  </g>
  <g id="arrowUp" transform="translate(30 24)">
    <use xlink:href="#rim"/>
    <path pointer-events="none" fill="none" stroke="white" stroke-width="1.5" d="M0,-3.0v7 M-2.5,-0.5L0,-3.0L2.5,-0.5"/>
  </g>
  <g id="arrowRight" transform="rotate(90) translate(36 -43)">
    <use xlink:href="#rim"/>
    <path pointer-events="none" fill="none" stroke="white" stroke-width="1.5" d="M0,-3.0v7 M-2.5,-0.5L0,-3.0L2.5,-0.5"/>
  </g>
  <g id="arrowDown" transform="rotate(180) translate(-30 -48)">
    <use xlink:href="#rim"/>
    <path pointer-events="none" fill="none" stroke="white" stroke-width="1.5" d="M0,-3.0v7 M-2.5,-0.5L0,-3.0L2.5,-0.5"/>
  </g>
  <g id="arrowLeft" transform="rotate(270) translate(-36 17)">
    <use xlink:href="#rim"/>
    <path pointer-events="none" fill="none" stroke="white" stroke-width="1.5" d="M0,-3.0v7 M-2.5,-0.5L0,-3.0L2.5,-0.5"/>
  </g>
  <g id="resetDef">
    <use xlink:href="#rim2" fill="#404040"><set attributeName="fill" to="#808080" begin="reset.mouseover" end="reset.mouseout"/></use>
  </g>
</defs>
<script type="application/ecmascript">
var viewWidth = 576;
var viewHeight = 379;
var sectionId = 'dynsection-1';
</script>
<script type="application/ecmascript" xlink:href="svg.min.js"/>
<svg id="graph" class="graph">
<g id="viewport">
<title>ft_strlen</title>
<!-- Node1 -->
<g id="Node000001" class="node">
<title>Node1</title>
<g id="a_Node000001"><a xlink:title="Replication of the strlen function.">
<polygon fill="#999999" stroke="#666666" points="567.75,-115 517.25,-115 517.25,-95 567.75,-95 567.75,-115"/>
<text text-anchor="middle" x="542.5" y="-101.5" font-family="Helvetica,sans-Serif" font-size="10.00">ft_strlen</text>
</a>
</g>
</g>
<!-- Node2 -->
<g id="Node000002" class="node">
<title>Node2</title>
<g id="a_Node000002"><a xlink:href="ft__putnbr__base_8c.html#a522e39ec68ab1b0f1e65eae477f9167c" target="_top" xlink:title="Calculation of a number of digit.">
<polygon fill="white" stroke="#666666" points="469.25,-276 432.25,-276 432.25,-256 469.25,-256 469.25,-276"/>
<text text-anchor="middle" x="450.75" y="-262.5" font-family="Helvetica,sans-Serif" font-size="10.00">ft_ch</text>
</a>
</g>
</g>
<!-- Node1&#45;&gt;Node2 -->
<g id="edge1_Node000001_Node000002" class="edge">
<title>Node1&#45;&gt;Node2</title>
<g id="a_edge1_Node000001_Node000002"><a xlink:title=" ">
<path fill="none" stroke="#63b8ff" d="M530.64,-124.49C511.49,-158.83 472.39,-228.98 457.59,-255.52"/>
<polygon fill="#63b8ff" stroke="#63b8ff" points="534.07,-126.51 535.89,-116.07 527.96,-123.1 534.07,-126.51"/>
</a>
</g>
</g>
<!-- Node14 -->
<g id="Node000014" class="node">
<title>Node14</title>
<g id="a_Node000014"><a xlink:href="ft__count_8c.html#a321a733950f4b637dd1c5bde4c1906c4" target="_top" xlink:title="Calculation of the length of a string replacement.">
<polygon fill="white" stroke="#666666" points="481.25,-134 420.25,-134 420.25,-114 481.25,-114 481.25,-134"/>
<text text-anchor="middle" x="450.75" y="-120.5" font-family="Helvetica,sans-Serif" font-size="10.00">ft_count_s</text>
</a>
</g>
</g>
<!-- Node1&#45;&gt;Node14 -->
<g id="edge19_Node000001_Node000014" class="edge">
<title>Node1&#45;&gt;Node14</title>
<g id="a_edge19_Node000001_Node000014"><a xlink:title=" ">
<path fill="none" stroke="#63b8ff" d="M506.27,-112.46C498.14,-114.18 489.56,-116 481.68,-117.66"/>
<polygon fill="#63b8ff" stroke="#63b8ff" points="506.92,-115.69 515.98,-110.19 505.47,-108.84 506.92,-115.69"/>
</a>
</g>
</g>
<!-- Node15 -->
<g id="Node000015" class="node">
<title>Node15</title>
<g id="a_Node000015"><a xlink:href="ft__size_8c.html#aa6b3eb9b95e19938231487a09fa57fbf" target="_top" xlink:title="Calculation of the length of the content to print.">
<polygon fill="white" stroke="#666666" points="473,-96 428.5,-96 428.5,-76 473,-76 473,-96"/>
<text text-anchor="middle" x="450.75" y="-82.5" font-family="Helvetica,sans-Serif" font-size="10.00">ft_size</text>
</a>
</g>
</g>
<!-- Node1&#45;&gt;Node15 -->
<g id="edge20_Node000001_Node000015" class="edge">
<title>Node1&#45;&gt;Node15</title>
<g id="a_edge20_Node000001_Node000015"><a xlink:title=" ">
<path fill="none" stroke="#63b8ff" d="M506.29,-97.55C495.22,-95.2 483.33,-92.69 473.49,-90.6"/>
<polygon fill="#63b8ff" stroke="#63b8ff" points="505.47,-101.16 515.98,-99.81 506.92,-94.31 505.47,-101.16"/>
</a>
</g>
</g>
<!-- Node18 -->
<g id="Node000018" class="node">
<title>Node18</title>
<g id="a_Node000018"><a xlink:href="ft__strdup_8c.html#aaacf33ac82063226a213d2ee49adc65f" target="_top" xlink:title="Replication of the strdup function.">
<polygon fill="white" stroke="#666666" points="477.5,-58 424,-58 424,-38 477.5,-38 477.5,-58"/>
<text text-anchor="middle" x="450.75" y="-44.5" font-family="Helvetica,sans-Serif" font-size="10.00">ft_strdup</text>
</a>
</g>
</g>
<!-- Node1&#45;&gt;Node18 -->
<g id="edge23_Node000001_Node000018" class="edge">
<title>Node1&#45;&gt;Node18</title>
<g id="a_edge23_Node000001_Node000018"><a xlink:title=" ">
<path fill="none" stroke="#63b8ff" d="M516.03,-88.82C500.64,-79.05 481.49,-66.89 468.11,-58.39"/>
<polygon fill="#63b8ff" stroke="#63b8ff" points="513.72,-92.14 524.04,-94.55 517.47,-86.23 513.72,-92.14"/>
</a>
</g>
</g>
<!-- Node19 -->
<g id="Node000019" class="node">
<title>Node19</title>
<g id="a_Node000019"><a xlink:href="ft__putnbr__base_8c.html#ab03731fe550c176eb1d4f0a6f087cce6" target="_top" xlink:title="Affect a number to an allocated in a certain numbering.">
<polygon fill="white" stroke="#666666" points="384.25,-172 330,-172 330,-152 384.25,-152 384.25,-172"/>
<text text-anchor="middle" x="357.12" y="-158.5" font-family="Helvetica,sans-Serif" font-size="10.00">ft_wbase</text>
</a>
</g>
</g>
<!-- Node1&#45;&gt;Node19 -->
<g id="edge24_Node000001_Node000019" class="edge">
<title>Node1&#45;&gt;Node19</title>
<g id="a_edge24_Node000001_Node000019"><a xlink:title=" ">
<path fill="none" stroke="#63b8ff" d="M519.65,-121.85C508.68,-129.48 494.87,-137.91 481.25,-143 449.24,-154.97 409.84,-159.4 384.37,-161.04"/>
<polygon fill="#63b8ff" stroke="#63b8ff" points="521.42,-124.16 527.47,-115.46 517.31,-118.49 521.42,-124.16"/>
</a>
</g>
</g>
<!-- Node20 -->
<g id="Node000020" class="node">
<title>Node20</title>
<g id="a_Node000020"><a xlink:href="ft__write_8c.html#a2fd555d46ef57de30b899e4c8d41af8a" target="_top" xlink:title="affect the output of a string replacement">
<polygon fill="white" stroke="#666666" points="479.38,-20 422.12,-20 422.12,0 479.38,0 479.38,-20"/>
<text text-anchor="middle" x="450.75" y="-6.5" font-family="Helvetica,sans-Serif" font-size="10.00">ft_write_s</text>
</a>
</g>
</g>
<!-- Node1&#45;&gt;Node20 -->
<g id="edge28_Node000001_Node000020" class="edge">
<title>Node1&#45;&gt;Node20</title>
<g id="a_edge28_Node000001_Node000020"><a xlink:title=" ">
<path fill="none" stroke="#63b8ff" d="M528.98,-85.85C517.74,-69.54 500.13,-46.11 481.25,-29 477.82,-25.89 473.83,-22.95 469.91,-20.36"/>
<polygon fill="#63b8ff" stroke="#63b8ff" points="526.34,-87.19 534.83,-93.52 532.14,-83.27 526.34,-87.19"/>
</a>
</g>
</g>
<!-- Node3 -->
<g id="Node000003" class="node">
<title>Node3</title>
<g id="a_Node000003"><a xlink:href="ft__countnbr_8c.html#a859bc0b734643880ab47679eba30601b" target="_top" xlink:title="Calculation of the length needed for a number replacement.">
<polygon fill="white" stroke="#666666" points="288.75,-333 198.5,-333 198.5,-313 288.75,-313 288.75,-333"/>
<text text-anchor="middle" x="243.62" y="-319.5" font-family="Helvetica,sans-Serif" font-size="10.00">ft_countnbr_base</text>
</a>
</g>
</g>
<!-- Node2&#45;&gt;Node3 -->
<g id="edge2_Node000002_Node000003" class="edge">
<title>Node2&#45;&gt;Node3</title>
<g id="a_edge2_Node000002_Node000003"><a xlink:title=" ">
<path fill="none" stroke="#63b8ff" d="M423.06,-281.71C411.47,-287.93 397.53,-294.62 384.25,-299 353.3,-309.2 316.98,-315.27 289.15,-318.76"/>
<polygon fill="#63b8ff" stroke="#63b8ff" points="424.52,-284.35 431.57,-276.44 421.12,-278.23 424.52,-284.35"/>
</a>
</g>
</g>
<!-- Node5 -->
<g id="Node000005" class="node">
<title>Node5</title>
<g id="a_Node000005"><a xlink:href="ft__countnbr_8c.html#a9e1870678149058ea19908d375dd37c3" target="_top" xlink:title="Calculation of the length needed for a memory address replacement.">
<polygon fill="white" stroke="#666666" points="294,-371 193.25,-371 193.25,-351 294,-351 294,-371"/>
<text text-anchor="middle" x="243.62" y="-357.5" font-family="Helvetica,sans-Serif" font-size="10.00">ft_countnbr_base_p</text>
</a>
</g>
</g>
<!-- Node2&#45;&gt;Node5 -->
<g id="edge4_Node000002_Node000005" class="edge">
<title>Node2&#45;&gt;Node5</title>
<g id="a_edge4_Node000002_Node000005"><a xlink:title=" ">
<path fill="none" stroke="#63b8ff" d="M431.8,-283.76C419.35,-295.22 401.9,-309.67 384.25,-319 356.05,-333.9 321.79,-344.31 294.26,-351.04"/>
<polygon fill="#63b8ff" stroke="#63b8ff" points="433.7,-286.83 438.55,-277.41 428.89,-281.75 433.7,-286.83"/>
</a>
</g>
</g>
<!-- Node7 -->
<g id="Node000007" class="node">
<title>Node7</title>
<g id="a_Node000007"><a xlink:href="ft__putnbr__base_8c.html#a817a9932ef93b9a42819eafa88b400e6" target="_top" xlink:title="Calculation of a number of characters needed for printing a given number.">
<polygon fill="white" stroke="#666666" points="375.62,-257 338.62,-257 338.62,-237 375.62,-237 375.62,-257"/>
<text text-anchor="middle" x="357.12" y="-243.5" font-family="Helvetica,sans-Serif" font-size="10.00">ft_cy</text>
</a>
</g>
</g>
<!-- Node2&#45;&gt;Node7 -->
<g id="edge6_Node000002_Node000007" class="edge">
<title>Node2&#45;&gt;Node7</title>
<g id="a_edge6_Node000002_Node000007"><a xlink:title=" ">
<path fill="none" stroke="#63b8ff" d="M421.45,-260.13C406.64,-257.06 388.96,-253.39 376.05,-250.72"/>
<polygon fill="#63b8ff" stroke="#63b8ff" points="420.58,-263.73 431.08,-262.34 422,-256.88 420.58,-263.73"/>
</a>
</g>
</g>
<!-- Node8 -->
<g id="Node000008" class="node">
<title>Node8</title>
<g id="a_Node000008"><a xlink:href="ft__putnbr__base_8c.html#ab5d9d7094e8c0bdcd45b2ca213487b05" target="_top" xlink:title="Manage length and precision specifier before a number replacement.">
<polygon fill="white" stroke="#666666" points="152,-143 98.5,-143 98.5,-123 152,-123 152,-143"/>
<text text-anchor="middle" x="125.25" y="-129.5" font-family="Helvetica,sans-Serif" font-size="10.00">ft_fill_left</text>
</a>
</g>
</g>
<!-- Node2&#45;&gt;Node8 -->
<g id="edge17_Node000002_Node000008" class="edge">
<title>Node2&#45;&gt;Node8</title>
<g id="a_edge17_Node000002_Node000008"><a xlink:title=" ">
<path fill="none" stroke="#63b8ff" d="M444.11,-245.41C435.6,-218.14 416.9,-170.29 384.25,-143 318.37,-87.94 278.29,-102.17 193.25,-114 179.48,-115.91 164.56,-119.94 152.3,-123.8"/>
<polygon fill="#63b8ff" stroke="#63b8ff" points="440.97,-246.12 447.15,-254.73 447.68,-244.14 440.97,-246.12"/>
</a>
</g>
</g>
<!-- Node10 -->
<g id="Node000010" class="node">
<title>Node10</title>
<g id="a_Node000010"><a xlink:href="ft__putnbr__base__p_8c.html#a18fa0ffb2b234b9ab48a8c660625d677" target="_top" xlink:title="Manage length and precision specifier before an memory address replacement.">
<polygon fill="white" stroke="#666666" points="157.25,-257 93.25,-257 93.25,-237 157.25,-237 157.25,-257"/>
<text text-anchor="middle" x="125.25" y="-243.5" font-family="Helvetica,sans-Serif" font-size="10.00">ft_fill_left_p</text>
</a>
</g>
</g>
<!-- Node2&#45;&gt;Node10 -->
<g id="edge18_Node000002_Node000010" class="edge">
<title>Node2&#45;&gt;Node10</title>
<g id="a_edge18_Node000002_Node000010"><a xlink:title=" ">
<path fill="none" stroke="#63b8ff" d="M420.96,-267.34C373.37,-269.13 275.38,-271.01 193.25,-261 181.45,-259.56 168.65,-257.11 157.43,-254.66"/>
<polygon fill="#63b8ff" stroke="#63b8ff" points="421.09,-270.8 430.94,-266.89 420.8,-263.8 421.09,-270.8"/>
</a>
</g>
</g>
<!-- Node4 -->
<g id="Node000004" class="node">
<title>Node4</title>
<g id="a_Node000004"><a xlink:href="ft__count_8c.html#a0b2e19ddcceba19062728282b98505dc" target="_top" xlink:title="Calculation of the length of a diuxX replacement.">
<polygon fill="white" stroke="#666666" points="155.75,-333 94.75,-333 94.75,-313 155.75,-313 155.75,-333"/>
<text text-anchor="middle" x="125.25" y="-319.5" font-family="Helvetica,sans-Serif" font-size="10.00">ft_count_d</text>
</a>
</g>
</g>
<!-- Node3&#45;&gt;Node4 -->
<g id="edge3_Node000003_Node000004" class="edge">
<title>Node3&#45;&gt;Node4</title>
<g id="a_edge3_Node000003_Node000004"><a xlink:title=" ">
<path fill="none" stroke="#63b8ff" d="M187.54,-323C176.67,-323 165.67,-323 156.03,-323"/>
<polygon fill="#63b8ff" stroke="#63b8ff" points="187.3,-326.5 197.3,-323 187.3,-319.5 187.3,-326.5"/>
</a>
</g>
</g>
<!-- Node6 -->
<g id="Node000006" class="node">
<title>Node6</title>
<g id="a_Node000006"><a xlink:href="ft__count_8c.html#aa261b68672789bbad82f851784b29eb5" target="_top" xlink:title="Calculation of the length of a pointer replacement.">
<polygon fill="white" stroke="#666666" points="155.75,-371 94.75,-371 94.75,-351 155.75,-351 155.75,-371"/>
<text text-anchor="middle" x="125.25" y="-357.5" font-family="Helvetica,sans-Serif" font-size="10.00">ft_count_p</text>
</a>
</g>
</g>
<!-- Node5&#45;&gt;Node6 -->
<g id="edge5_Node000005_Node000006" class="edge">
<title>Node5&#45;&gt;Node6</title>
<g id="a_edge5_Node000005_Node000006"><a xlink:title=" ">
<path fill="none" stroke="#63b8ff" d="M182.23,-361C173.09,-361 164.02,-361 155.93,-361"/>
<polygon fill="#63b8ff" stroke="#63b8ff" points="181.93,-364.5 191.93,-361 181.93,-357.5 181.93,-364.5"/>
</a>
</g>
</g>
<!-- Node7&#45;&gt;Node3 -->
<g id="edge7_Node000007_Node000003" class="edge">
<title>Node7&#45;&gt;Node3</title>
<g id="a_edge7_Node000007_Node000003"><a xlink:title=" ">
<path fill="none" stroke="#63b8ff" d="M332.06,-263.4C310.12,-278.36 278.37,-300 259.78,-312.67"/>
<polygon fill="#63b8ff" stroke="#63b8ff" points="333.8,-265.77 340.09,-257.25 329.85,-259.99 333.8,-265.77"/>
</a>
</g>
</g>
<!-- Node7&#45;&gt;Node5 -->
<g id="edge8_Node000007_Node000005" class="edge">
<title>Node7&#45;&gt;Node5</title>
<g id="a_edge8_Node000007_Node000005"><a xlink:title=" ">
<path fill="none" stroke="#63b8ff" d="M347.47,-267.32C337.45,-288.62 319.06,-321.75 294,-342 289.78,-345.41 284.89,-348.25 279.85,-350.61"/>
<polygon fill="#63b8ff" stroke="#63b8ff" points="351.03,-268.94 351.94,-258.39 344.64,-266.07 351.03,-268.94"/>
</a>
</g>
</g>
<!-- Node7&#45;&gt;Node8 -->
<g id="edge9_Node000007_Node000008" class="edge">
<title>Node7&#45;&gt;Node8</title>
<g id="a_edge9_Node000007_Node000008"><a xlink:title=" ">
<path fill="none" stroke="#63b8ff" d="M340.21,-228.86C328.5,-216.46 311.6,-200.43 294,-190 269.59,-175.53 193.23,-152.31 152.48,-140.47"/>
<polygon fill="#63b8ff" stroke="#63b8ff" points="337.11,-230.75 346.44,-235.76 342.27,-226.02 337.11,-230.75"/>
</a>
</g>
</g>
<!-- Node7&#45;&gt;Node10 -->
<g id="edge11_Node000007_Node000010" class="edge">
<title>Node7&#45;&gt;Node10</title>
<g id="a_edge11_Node000007_Node000010"><a xlink:title=" ">
<path fill="none" stroke="#63b8ff" d="M327.6,-247C284.35,-247 202.46,-247 157.59,-247"/>
<polygon fill="#63b8ff" stroke="#63b8ff" points="327.47,-250.5 337.47,-247 327.47,-243.5 327.47,-250.5"/>
</a>
</g>
</g>
<!-- Node12 -->
<g id="Node000012" class="node">
<title>Node12</title>
<g id="a_Node000012"><a xlink:href="ft__putnbr__base_8c.html#a24815d094f34d9eb2a1288d10b8bd359" target="_top" xlink:title="Manage the sign before a number replacement.">
<polygon fill="white" stroke="#666666" points="283.5,-143 203.75,-143 203.75,-123 283.5,-123 283.5,-143"/>
<text text-anchor="middle" x="243.62" y="-129.5" font-family="Helvetica,sans-Serif" font-size="10.00">ft_putnbr_base</text>
</a>
</g>
</g>
<!-- Node7&#45;&gt;Node12 -->
<g id="edge13_Node000007_Node000012" class="edge">
<title>Node7&#45;&gt;Node12</title>
<g id="a_edge13_Node000007_Node000012"><a xlink:title=" ">
<path fill="none" stroke="#63b8ff" d="M346.23,-226.95C335.6,-207.08 317.08,-176.82 294,-157 287.64,-151.54 279.81,-146.99 272.29,-143.38"/>
<polygon fill="#63b8ff" stroke="#63b8ff" points="343.48,-228.26 351.18,-235.54 349.7,-225.05 343.48,-228.26"/>
</a>
</g>
</g>
<!-- Node13 -->
<g id="Node000013" class="node">
<title>Node13</title>
<g id="a_Node000013"><a xlink:href="ft__putnbr__base__p_8c.html#a2f33d4ba2e17b7b581850c0bf068afdf" target="_top" xlink:title="Affect a memory address in an certain numbering.">
<polygon fill="white" stroke="#666666" points="288.75,-219 198.5,-219 198.5,-199 288.75,-199 288.75,-219"/>
<text text-anchor="middle" x="243.62" y="-205.5" font-family="Helvetica,sans-Serif" font-size="10.00">ft_putnbr_base_p</text>
</a>
</g>
</g>
<!-- Node7&#45;&gt;Node13 -->
<g id="edge15_Node000007_Node000013" class="edge">
<title>Node7&#45;&gt;Node13</title>
<g id="a_edge15_Node000007_Node000013"><a xlink:title=" ">
<path fill="none" stroke="#63b8ff" d="M327.81,-237.35C311.72,-231.87 291.56,-225 275.12,-219.39"/>
<polygon fill="#63b8ff" stroke="#63b8ff" points="326.62,-240.98 337.21,-240.89 328.87,-234.36 326.62,-240.98"/>
</a>
</g>
</g>
<!-- Node9 -->
<g id="Node000009" class="node">
<title>Node9</title>
<g id="a_Node000009"><a xlink:href="ft__write_8c.html#acb5c93b91b86ca3ea395b496eef6850d" target="_top" xlink:title="affect the output of a number replacement">
<polygon fill="white" stroke="#666666" points="57.25,-143 0,-143 0,-123 57.25,-123 57.25,-143"/>
<text text-anchor="middle" x="28.62" y="-129.5" font-family="Helvetica,sans-Serif" font-size="10.00">ft_write_d</text>
</a>
</g>
</g>
<!-- Node8&#45;&gt;Node9 -->
<g id="edge10_Node000008_Node000009" class="edge">
<title>Node8&#45;&gt;Node9</title>
<g id="a_edge10_Node000008_Node000009"><a xlink:title=" ">
<path fill="none" stroke="#63b8ff" d="M87.35,-133C77.47,-133 66.95,-133 57.63,-133"/>
<polygon fill="#63b8ff" stroke="#63b8ff" points="87.14,-136.5 97.14,-133 87.14,-129.5 87.14,-136.5"/>
</a>
</g>
</g>
<!-- Node11 -->
<g id="Node000011" class="node">
<title>Node11</title>
<g id="a_Node000011"><a xlink:href="ft__write_8c.html#a905ddf384a970ba04f14b3201c110783" target="_top" xlink:title="affect the output of a pointer replacement">
<polygon fill="white" stroke="#666666" points="57.25,-257 0,-257 0,-237 57.25,-237 57.25,-257"/>
<text text-anchor="middle" x="28.62" y="-243.5" font-family="Helvetica,sans-Serif" font-size="10.00">ft_write_p</text>
</a>
</g>
</g>
<!-- Node10&#45;&gt;Node11 -->
<g id="edge12_Node000010_Node000011" class="edge">
<title>Node10&#45;&gt;Node11</title>
<g id="a_edge12_Node000010_Node000011"><a xlink:title=" ">
<path fill="none" stroke="#63b8ff" d="M82.27,-247C73.93,-247 65.38,-247 57.65,-247"/>
<polygon fill="#63b8ff" stroke="#63b8ff" points="82,-250.5 92,-247 82,-243.5 82,-250.5"/>
</a>
</g>
</g>
<!-- Node12&#45;&gt;Node8 -->
<g id="edge14_Node000012_Node000008" class="edge">
<title>Node12&#45;&gt;Node8</title>
<g id="a_edge14_Node000012_Node000008"><a xlink:title=" ">
<path fill="none" stroke="#63b8ff" d="M192.59,-133C178.68,-133 164.14,-133 152.22,-133"/>
<polygon fill="#63b8ff" stroke="#63b8ff" points="192.55,-136.5 202.55,-133 192.55,-129.5 192.55,-136.5"/>
</a>
</g>
</g>
<!-- Node13&#45;&gt;Node10 -->
<g id="edge16_Node000013_Node000010" class="edge">
<title>Node13&#45;&gt;Node10</title>
<g id="a_edge16_Node000013_Node000010"><a xlink:title=" ">
<path fill="none" stroke="#63b8ff" d="M200.47,-222.77C186.26,-227.41 170.66,-232.5 157.45,-236.81"/>
<polygon fill="#63b8ff" stroke="#63b8ff" points="201.1,-225.92 209.52,-219.48 198.92,-219.26 201.1,-225.92"/>
</a>
</g>
</g>
<!-- Node16 -->
<g id="Node000016" class="node">
<title>Node16</title>
<g id="a_Node000016"><a xlink:href="ft__printf_8c.html#a1ee8ae8a80a7d9141ea5339af8565f2e" target="_top" xlink:title="Replication of the printf function.">
<polygon fill="white" stroke="#666666" points="380.88,-67 333.38,-67 333.38,-47 380.88,-47 380.88,-67"/>
<text text-anchor="middle" x="357.12" y="-53.5" font-family="Helvetica,sans-Serif" font-size="10.00">ft_printf</text>
</a>
</g>
</g>
<!-- Node15&#45;&gt;Node16 -->
<g id="edge21_Node000015_Node000016" class="edge">
<title>Node15&#45;&gt;Node16</title>
<g id="a_edge21_Node000015_Node000016"><a xlink:title=" ">
<path fill="none" stroke="#63b8ff" d="M417.91,-75.92C405.86,-72.11 392.39,-67.84 381.28,-64.33"/>
<polygon fill="#63b8ff" stroke="#63b8ff" points="416.45,-79.45 427.04,-79.13 418.56,-72.77 416.45,-79.45"/>
</a>
</g>
</g>
<!-- Node17 -->
<g id="Node000017" class="node">
<title>Node17</title>
<g id="a_Node000017"><a xlink:href="main_8c.html#ae66f6b31b5ad750f1fe042a706a4e3d4" target="_top" xlink:title=" ">
<polygon fill="white" stroke="#666666" points="262.12,-67 225.12,-67 225.12,-47 262.12,-47 262.12,-67"/>
<text text-anchor="middle" x="243.62" y="-53.5" font-family="Helvetica,sans-Serif" font-size="10.00">main</text>
</a>
</g>
</g>
<!-- Node16&#45;&gt;Node17 -->
<g id="edge22_Node000016_Node000017" class="edge">
<title>Node16&#45;&gt;Node17</title>
<g id="a_edge22_Node000016_Node000017"><a xlink:title=" ">
<path fill="none" stroke="#63b8ff" d="M322.05,-57C302.43,-57 278.57,-57 262.56,-57"/>
<polygon fill="#63b8ff" stroke="#63b8ff" points="322.02,-60.5 332.02,-57 322.02,-53.5 322.02,-60.5"/>
</a>
</g>
</g>
<!-- Node19&#45;&gt;Node12 -->
<g id="edge25_Node000019_Node000012" class="edge">
<title>Node19&#45;&gt;Node12</title>
<g id="a_edge25_Node000019_Node000012"><a xlink:title=" ">
<path fill="none" stroke="#63b8ff" d="M319.28,-152.42C307.95,-149.47 295.45,-146.22 283.96,-143.23"/>
<polygon fill="#63b8ff" stroke="#63b8ff" points="318.14,-156 328.7,-155.13 319.9,-149.22 318.14,-156"/>
</a>
</g>
</g>
<!-- Node19&#45;&gt;Node13 -->
<g id="edge26_Node000019_Node000013" class="edge">
<title>Node19&#45;&gt;Node13</title>
<g id="a_edge26_Node000019_Node000013"><a xlink:title=" ">
<path fill="none" stroke="#63b8ff" d="M321.33,-176.67C304.46,-183.78 284.59,-192.15 269.3,-198.6"/>
<polygon fill="#63b8ff" stroke="#63b8ff" points="322.52,-179.54 330.38,-172.43 319.81,-173.09 322.52,-179.54"/>
</a>
</g>
</g>
<!-- Node19&#45;&gt;Node19 -->
<g id="edge27_Node000019_Node000019" class="edge">
<title>Node19&#45;&gt;Node19</title>
<g id="a_edge27_Node000019_Node000019"><a xlink:title=" ">
<path fill="none" stroke="#63b8ff" d="M373.85,-183.11C371.85,-187.14 366.28,-190 357.12,-190 340.85,-190 335.89,-180.98 342.25,-172.34"/>
<polygon fill="#63b8ff" stroke="#63b8ff" points="377.14,-182.6 372,-173.34 370.24,-183.79 377.14,-182.6"/>
</a>
</g>
</g>
</g>
</svg>

<g id="navigator" transform="translate(0 0)" fill="#404254">
  <rect fill="#f2f5e9" fill-opacity="0.5" stroke="#606060" stroke-width=".5" x="0" y="0" width="60" height="60"/>
  <use id="zoomplus" xlink:href="#zoomPlus" x="17" y="9" onmousedown="handleZoom(evt,'in')"/>
  <use id="zoomminus" xlink:href="#zoomMin" x="42" y="9" onmousedown="handleZoom(evt,'out')"/>
  <use id="reset" xlink:href="#resetDef" x="30" y="36" onmousedown="handleReset()"/>
   <use id="arrowup" xlink:href="#arrowUp" x="0" y="0" onmousedown="handlePan(0,-1)"/>
  <use id="arrowright" xlink:href="#arrowRight" x="0" y="0" onmousedown="handlePan(1,0)"/>
  <use id="arrowdown" xlink:href="#arrowDown" x="0" y="0" onmousedown="handlePan(0,1)"/>
  <use id="arrowleft" xlink:href="#arrowLeft" x="0" y="0" onmousedown="handlePan(-1,0)"/>
</g>
<svg viewBox="0 0 15 15" width="100%" height="30px" preserveAspectRatio="xMaxYMin meet">
 <g id="arrow_out" transform="scale(0.3 0.3)">
  <a xlink:href="ft__strlen_8c_a828402378653640f545a4be2e00e92f9_icgraph_org.svg" target="_base">
   <rect id="button" ry="5" rx="5" y="6" x="6" height="38" width="38"
        fill="#f2f5e9" fill-opacity="0.5" stroke="#606060" stroke-width="1.0"/>
   <path id="arrow"
     d="M 11.500037,31.436501 C 11.940474,20.09759 22.043105,11.32322 32.158766,21.979434 L 37.068811,17.246167 C 37.068811,17.246167 37.088388,32 37.088388,32 L 22.160133,31.978069 C 22.160133,31.978069 26.997745,27.140456 26.997745,27.140456 C 18.528582,18.264221 13.291696,25.230495 11.500037,31.436501 z"
     style="fill:#404040;"/>
  </a>
 </g>
</svg>

<style type='text/css'>
<![CDATA[
[data-mouse-over-selected='false'] { opacity: 0.7; }
[data-mouse-over-selected='true']  { opacity: 1.0; }
]]>
</style>
<script type="application/ecmascript"><![CDATA[
document.addEventListener('DOMContentLoaded', (event) => {
  highlightEdges();
  highlightAdjacentNodes();
});
]]></script>
</svg>
