<?xml version="1.0" encoding="UTF-8" standalone="no"?>
<!DOCTYPE svg PUBLIC "-//W3C//DTD SVG 1.1//EN"
 "http://www.w3.org/Graphics/SVG/1.1/DTD/svg11.dtd">
<!-- Generated by graphviz version 8.1.0 (20230707.0739)
 -->
<!-- Title: ft_count_d Pages: 1 -->
<svg width="436pt" height="85pt"
 viewBox="0.00 0.00 436.00 85.00" xmlns="http://www.w3.org/2000/svg" xmlns:xlink="http://www.w3.org/1999/xlink">
<g id="graph0" class="graph" transform="scale(1 1) rotate(0) translate(4 81)">
<title>ft_count_d</title>
<!-- Node1 -->
<g id="Node000001" class="node">
<title>Node1</title>
<g id="a_Node000001"><a xlink:title="Calculation of the length of a diuxX replacement.">
<polygon fill="#999999" stroke="#666666" points="61,-58 0,-58 0,-38 61,-38 61,-58"/>
<text text-anchor="middle" x="30.5" y="-44.5" font-family="Helvetica,sans-Serif" font-size="10.00">ft_count_d</text>
</a>
</g>
</g>
<!-- Node2 -->
<g id="Node000002" class="node">
<title>Node2</title>
<g id="a_Node000002"><a xlink:href="ft__countnbr_8c.html#a859bc0b734643880ab47679eba30601b" target="_top" xlink:title="Calculation of the length needed for a number replacement.">
<polygon fill="white" stroke="#666666" points="187.25,-58 97,-58 97,-38 187.25,-38 187.25,-58"/>
<text text-anchor="middle" x="142.12" y="-44.5" font-family="Helvetica,sans-Serif" font-size="10.00">ft_countnbr_base</text>
</a>
</g>
</g>
<!-- Node1&#45;&gt;Node2 -->
<g id="edge1_Node000001_Node000002" class="edge">
<title>Node1&#45;&gt;Node2</title>
<g id="a_edge1_Node000001_Node000002"><a xlink:title=" ">
<path fill="none" stroke="#63b8ff" d="M61.46,-48C69.04,-48 77.42,-48 85.83,-48"/>
<polygon fill="#63b8ff" stroke="#63b8ff" points="85.81,-51.5 95.81,-48 85.81,-44.5 85.81,-51.5"/>
</a>
</g>
</g>
<!-- Node3 -->
<g id="Node000003" class="node">
<title>Node3</title>
<g id="a_Node000003"><a xlink:href="ft__putnbr__base_8c.html#a522e39ec68ab1b0f1e65eae477f9167c" target="_top" xlink:title="Calculation of a number of digit.">
<polygon fill="white" stroke="#666666" points="341.5,-77 304.5,-77 304.5,-57 341.5,-57 341.5,-77"/>
<text text-anchor="middle" x="323" y="-63.5" font-family="Helvetica,sans-Serif" font-size="10.00">ft_ch</text>
</a>
</g>
</g>
<!-- Node2&#45;&gt;Node3 -->
<g id="edge2_Node000002_Node000003" class="edge">
<title>Node2&#45;&gt;Node3</title>
<g id="a_edge2_Node000002_Node000003"><a xlink:title=" ">
<path fill="none" stroke="#63b8ff" d="M179.1,-58.42C192.8,-61.88 208.62,-65.29 223.25,-67 246.74,-69.75 273.58,-69.53 293.35,-68.75"/>
<polygon fill="#63b8ff" stroke="#63b8ff" points="293.26,-72.21 303.09,-68.25 292.93,-65.22 293.26,-72.21"/>
</a>
</g>
</g>
<!-- Node5 -->
<g id="Node000005" class="node">
<title>Node5</title>
<g id="a_Node000005"><a xlink:href="ft__putnbr__base_8c.html#a817a9932ef93b9a42819eafa88b400e6" target="_top" xlink:title="Calculation of a number of characters needed for printing a given number.">
<polygon fill="white" stroke="#666666" points="264.38,-58 227.38,-58 227.38,-38 264.38,-38 264.38,-58"/>
<text text-anchor="middle" x="245.88" y="-44.5" font-family="Helvetica,sans-Serif" font-size="10.00">ft_cy</text>
</a>
</g>
</g>
<!-- Node2&#45;&gt;Node5 -->
<g id="edge4_Node000002_Node000005" class="edge">
<title>Node2&#45;&gt;Node5</title>
<g id="a_edge4_Node000002_Node000005"><a xlink:title=" ">
<path fill="none" stroke="#63b8ff" d="M187.46,-48C197.14,-48 207.14,-48 216.03,-48"/>
<polygon fill="#63b8ff" stroke="#63b8ff" points="215.96,-51.5 225.96,-48 215.96,-44.5 215.96,-51.5"/>
</a>
</g>
</g>
<!-- Node6 -->
<g id="Node000006" class="node">
<title>Node6</title>
<g id="a_Node000006"><a xlink:href="ft__isdigit_8c.html#abc1bdaeaea0d28d9499f5f13194ca0ca" target="_top" xlink:title="Replication of the max function.">
<polygon fill="white" stroke="#666666" points="268.5,-20 223.25,-20 223.25,0 268.5,0 268.5,-20"/>
<text text-anchor="middle" x="245.88" y="-6.5" font-family="Helvetica,sans-Serif" font-size="10.00">ft_max</text>
</a>
</g>
</g>
<!-- Node2&#45;&gt;Node6 -->
<g id="edge6_Node000002_Node000006" class="edge">
<title>Node2&#45;&gt;Node6</title>
<g id="a_edge6_Node000002_Node000006"><a xlink:title=" ">
<path fill="none" stroke="#63b8ff" d="M171.2,-37.52C184.1,-32.7 199.47,-26.96 212.83,-21.97"/>
<polygon fill="#63b8ff" stroke="#63b8ff" points="213.88,-24.94 222.02,-18.16 211.43,-18.38 213.88,-24.94"/>
</a>
</g>
</g>
<!-- Node4 -->
<g id="Node000004" class="node">
<title>Node4</title>
<g id="a_Node000004"><a xlink:href="ft__strlen_8c.html#a828402378653640f545a4be2e00e92f9" target="_top" xlink:title="Replication of the strlen function.">
<polygon fill="white" stroke="#666666" points="428,-77 377.5,-77 377.5,-57 428,-57 428,-77"/>
<text text-anchor="middle" x="402.75" y="-63.5" font-family="Helvetica,sans-Serif" font-size="10.00">ft_strlen</text>
</a>
</g>
</g>
<!-- Node3&#45;&gt;Node4 -->
<g id="edge3_Node000003_Node000004" class="edge">
<title>Node3&#45;&gt;Node4</title>
<g id="a_edge3_Node000003_Node000004"><a xlink:title=" ">
<path fill="none" stroke="#63b8ff" d="M341.64,-67C348.93,-67 357.66,-67 366.17,-67"/>
<polygon fill="#63b8ff" stroke="#63b8ff" points="366.1,-70.5 376.1,-67 366.1,-63.5 366.1,-70.5"/>
</a>
</g>
</g>
<!-- Node5&#45;&gt;Node3 -->
<g id="edge5_Node000005_Node000003" class="edge">
<title>Node5&#45;&gt;Node3</title>
<g id="a_edge5_Node000005_Node000003"><a xlink:title=" ">
<path fill="none" stroke="#63b8ff" d="M264.68,-52.5C273.32,-54.69 283.9,-57.36 293.62,-59.82"/>
<polygon fill="#63b8ff" stroke="#63b8ff" points="292.51,-63.4 303.06,-62.46 294.23,-56.62 292.51,-63.4"/>
</a>
</g>
</g>
</g>
</svg>
