<?xml version="1.0" encoding="UTF-8" standalone="no"?>
<!DOCTYPE svg PUBLIC "-//W3C//DTD SVG 1.1//EN"
 "http://www.w3.org/Graphics/SVG/1.1/DTD/svg11.dtd">
<!-- Generated by graphviz version 8.1.0 (20230707.0739)
 -->
<!-- Title: ft_write_p Pages: 1 -->
<!--zoomable 160 -->

<svg id="main" version="1.1" xmlns="http://www.w3.org/2000/svg" xmlns:xlink="http://www.w3.org/1999/xlink" xml:space="preserve" onload="init(evt)">
<style type="text/css"><![CDATA[
.node, .edge {opacity: 0.7;}
.node.selected, .edge.selected {opacity: 1;}
.edge:hover path { stroke: red; }
.edge:hover polygon { stroke: red; fill: red; }
]]></style>

<defs>
  <circle id="rim" cx="0" cy="0" r="7"/>
  <circle id="rim2" cx="0" cy="0" r="3.5"/>
  <g id="zoomPlus">
    <use xlink:href="#rim" fill="#404040"><set attributeName="fill" to="#808080" begin="zoomplus.mouseover" end="zoomplus.mouseout"/></use>
    <path d="M-4,0h8M0,-4v8" fill="none" stroke="white" stroke-width="1.5" pointer-events="none"/>
  </g>
  <g id="zoomMin">
    <use xlink:href="#rim" fill="#404040"><set attributeName="fill" to="#808080" begin="zoomminus.mouseover" end="zoomminus.mouseout"/></use>
    <path d="M-4,0h8" fill="none" stroke="white" stroke-width="1.5" pointer-events="none"/>
  </g>
  <g id="arrowUp" transform="translate(30 24)">
    <use xlink:href="#rim"/>
    <path pointer-events="none" fill="none" stroke="white" stroke-width="1.5" d="M0,-3.0v7 M-2.5,-0.5L0,-3.0L2.5,-0.5"/>
  </g>
  <g id="arrowRight" transform="rotate(90) translate(36 -43)">
    <use xlink:href="#rim"/>
    <path pointer-events="none" fill="none" stroke="white" stroke-width="1.5" d="M0,-3.0v7 M-2.5,-0.5L0,-3.0L2.5,-0.5"/>
  </g>
  <g id="arrowDown" transform="rotate(180) translate(-30 -48)">
    <use xlink:href="#rim"/>
    <path pointer-events="none" fill="none" stroke="white" stroke-width="1.5" d="M0,-3.0v7 M-2.5,-0.5L0,-3.0L2.5,-0.5"/>
  </g>
  <g id="arrowLeft" transform="rotate(270) translate(-36 17)">
    <use xlink:href="#rim"/>
    <path pointer-events="none" fill="none" stroke="white" stroke-width="1.5" d="M0,-3.0v7 M-2.5,-0.5L0,-3.0L2.5,-0.5"/>
  </g>
  <g id="resetDef">
    <use xlink:href="#rim2" fill="#404040"><set attributeName="fill" to="#808080" begin="reset.mouseover" end="reset.mouseout"/></use>
  </g>
</defs>
<script type="application/ecmascript">
var viewWidth = 572;
var viewHeight = 160;
var sectionId = 'dynsection-3';
</script>
<script type="application/ecmascript" xlink:href="svg.min.js"/>
<svg id="graph" class="graph">
<g id="viewport">
<title>ft_write_p</title>
<!-- Node1 -->
<g id="Node000001" class="node">
<title>Node1</title>
<g id="a_Node000001"><a xlink:title="affect the output of a pointer replacement">
<polygon fill="#999999" stroke="#666666" points="57.25,-96 0,-96 0,-76 57.25,-76 57.25,-96"/>
<text text-anchor="middle" x="28.62" y="-82.5" font-family="Helvetica,sans-Serif" font-size="10.00">ft_write_p</text>
</a>
</g>
</g>
<!-- Node2 -->
<g id="Node000002" class="node">
<title>Node2</title>
<g id="a_Node000002"><a xlink:href="ft__putnbr__base__p_8c.html#a18fa0ffb2b234b9ab48a8c660625d677" target="_top" xlink:title="Manage length and precision specifier before an memory address replacement.">
<polygon fill="white" stroke="#666666" points="157.25,-96 93.25,-96 93.25,-76 157.25,-76 157.25,-96"/>
<text text-anchor="middle" x="125.25" y="-82.5" font-family="Helvetica,sans-Serif" font-size="10.00">ft_fill_left_p</text>
</a>
</g>
</g>
<!-- Node1&#45;&gt;Node2 -->
<g id="edge1_Node000001_Node000002" class="edge">
<title>Node1&#45;&gt;Node2</title>
<g id="a_edge1_Node000001_Node000002"><a xlink:title=" ">
<path fill="none" stroke="#63b8ff" d="M57.5,-86C65.24,-86 73.81,-86 82.16,-86"/>
<polygon fill="#63b8ff" stroke="#63b8ff" points="81.92,-89.5 91.92,-86 81.92,-82.5 81.92,-89.5"/>
</a>
</g>
</g>
<!-- Node3 -->
<g id="Node000003" class="node">
<title>Node3</title>
<g id="a_Node000003"><a xlink:href="ft__putnbr__base_8c.html#a522e39ec68ab1b0f1e65eae477f9167c" target="_top" xlink:title="Calculation of a number of digit.">
<polygon fill="white" stroke="#666666" points="468.88,-152 431.88,-152 431.88,-132 468.88,-132 468.88,-152"/>
<text text-anchor="middle" x="450.38" y="-138.5" font-family="Helvetica,sans-Serif" font-size="10.00">ft_ch</text>
</a>
</g>
</g>
<!-- Node2&#45;&gt;Node3 -->
<g id="edge2_Node000002_Node000003" class="edge">
<title>Node2&#45;&gt;Node3</title>
<g id="a_edge2_Node000002_Node000003"><a xlink:title=" ">
<path fill="none" stroke="#63b8ff" d="M140.36,-96.4C153.4,-105.47 173.67,-118.2 193.25,-125 272,-152.36 372.43,-148.81 420.8,-144.92"/>
<polygon fill="#63b8ff" stroke="#63b8ff" points="421.01,-148.32 430.66,-143.96 420.39,-141.35 421.01,-148.32"/>
</a>
</g>
</g>
<!-- Node5 -->
<g id="Node000005" class="node">
<title>Node5</title>
<g id="a_Node000005"><a xlink:href="ft__putnbr__base_8c.html#a817a9932ef93b9a42819eafa88b400e6" target="_top" xlink:title="Calculation of a number of characters needed for printing a given number.">
<polygon fill="white" stroke="#666666" points="371.88,-134 334.88,-134 334.88,-114 371.88,-114 371.88,-134"/>
<text text-anchor="middle" x="353.38" y="-120.5" font-family="Helvetica,sans-Serif" font-size="10.00">ft_cy</text>
</a>
</g>
</g>
<!-- Node2&#45;&gt;Node5 -->
<g id="edge4_Node000002_Node000005" class="edge">
<title>Node2&#45;&gt;Node5</title>
<g id="a_edge4_Node000002_Node000005"><a xlink:title=" ">
<path fill="none" stroke="#63b8ff" d="M157.7,-96.02C168.83,-99.28 181.51,-102.65 193.25,-105 238.44,-114.05 291.78,-119.34 323.79,-121.95"/>
<polygon fill="#63b8ff" stroke="#63b8ff" points="323.33,-125.5 333.57,-122.79 323.87,-118.53 323.33,-125.5"/>
</a>
</g>
</g>
<!-- Node6 -->
<g id="Node000006" class="node">
<title>Node6</title>
<g id="a_Node000006"><a xlink:href="ft__fill__caract_8c.html#aab8e86cef846e237daf0239698e98ebd" target="_top" xlink:title="Affect repeated character to an allocated string.">
<polygon fill="white" stroke="#666666" points="387.25,-58 319.5,-58 319.5,-38 387.25,-38 387.25,-58"/>
<text text-anchor="middle" x="353.38" y="-44.5" font-family="Helvetica,sans-Serif" font-size="10.00">ft_fill_caract</text>
</a>
</g>
</g>
<!-- Node2&#45;&gt;Node6 -->
<g id="edge6_Node000002_Node000006" class="edge">
<title>Node2&#45;&gt;Node6</title>
<g id="a_edge6_Node000002_Node000006"><a xlink:title=" ">
<path fill="none" stroke="#63b8ff" d="M157.7,-75.98C168.83,-72.72 181.51,-69.35 193.25,-67 231.81,-59.28 276.29,-54.29 308.41,-51.37"/>
<polygon fill="#63b8ff" stroke="#63b8ff" points="308.57,-54.79 318.22,-50.43 307.95,-47.81 308.57,-54.79"/>
</a>
</g>
</g>
<!-- Node7 -->
<g id="Node000007" class="node">
<title>Node7</title>
<g id="a_Node000007"><a xlink:href="ft__isdigit_8c.html#abc1bdaeaea0d28d9499f5f13194ca0ca" target="_top" xlink:title="Replication of the max function.">
<polygon fill="white" stroke="#666666" points="376,-20 330.75,-20 330.75,0 376,0 376,-20"/>
<text text-anchor="middle" x="353.38" y="-6.5" font-family="Helvetica,sans-Serif" font-size="10.00">ft_max</text>
</a>
</g>
</g>
<!-- Node2&#45;&gt;Node7 -->
<g id="edge7_Node000002_Node000007" class="edge">
<title>Node2&#45;&gt;Node7</title>
<g id="a_edge7_Node000002_Node000007"><a xlink:title=" ">
<path fill="none" stroke="#63b8ff" d="M142.77,-75.63C156.01,-67.7 175.27,-56.97 193.25,-50 235.66,-33.57 287.07,-22.07 319.76,-15.75"/>
<polygon fill="#63b8ff" stroke="#63b8ff" points="320.31,-19.02 329.49,-13.73 319.01,-12.14 320.31,-19.02"/>
</a>
</g>
</g>
<!-- Node8 -->
<g id="Node000008" class="node">
<title>Node8</title>
<g id="a_Node000008"><a xlink:href="ft__putnbr__base__p_8c.html#a2f33d4ba2e17b7b581850c0bf068afdf" target="_top" xlink:title="Affect a memory address in an certain numbering.">
<polygon fill="white" stroke="#666666" points="283.5,-96 193.25,-96 193.25,-76 283.5,-76 283.5,-96"/>
<text text-anchor="middle" x="238.38" y="-82.5" font-family="Helvetica,sans-Serif" font-size="10.00">ft_putnbr_base_p</text>
</a>
</g>
</g>
<!-- Node2&#45;&gt;Node8 -->
<g id="edge8_Node000002_Node000008" class="edge">
<title>Node2&#45;&gt;Node8</title>
<g id="a_edge8_Node000002_Node000008"><a xlink:title=" ">
<path fill="none" stroke="#63b8ff" d="M157.5,-86C165.26,-86 173.82,-86 182.35,-86"/>
<polygon fill="#63b8ff" stroke="#63b8ff" points="182.09,-89.5 192.09,-86 182.09,-82.5 182.09,-89.5"/>
</a>
</g>
</g>
<!-- Node4 -->
<g id="Node000004" class="node">
<title>Node4</title>
<g id="a_Node000004"><a xlink:href="ft__strlen_8c.html#a828402378653640f545a4be2e00e92f9" target="_top" xlink:title="Replication of the strlen function.">
<polygon fill="white" stroke="#666666" points="564,-124 513.5,-124 513.5,-104 564,-104 564,-124"/>
<text text-anchor="middle" x="538.75" y="-110.5" font-family="Helvetica,sans-Serif" font-size="10.00">ft_strlen</text>
</a>
</g>
</g>
<!-- Node3&#45;&gt;Node4 -->
<g id="edge3_Node000003_Node000004" class="edge">
<title>Node3&#45;&gt;Node4</title>
<g id="a_edge3_Node000003_Node000004"><a xlink:title=" ">
<path fill="none" stroke="#63b8ff" d="M469.27,-136.2C479.03,-133.03 491.45,-129.01 503.03,-125.25"/>
<polygon fill="#63b8ff" stroke="#63b8ff" points="503.89,-128.33 512.32,-121.92 501.73,-121.67 503.89,-128.33"/>
</a>
</g>
</g>
<!-- Node5&#45;&gt;Node3 -->
<g id="edge5_Node000005_Node000003" class="edge">
<title>Node5&#45;&gt;Node3</title>
<g id="a_edge5_Node000005_Node000003"><a xlink:title=" ">
<path fill="none" stroke="#63b8ff" d="M372.24,-127.39C385.91,-129.98 405.03,-133.6 420.81,-136.59"/>
<polygon fill="#63b8ff" stroke="#63b8ff" points="420.11,-140.21 430.59,-138.63 421.41,-133.33 420.11,-140.21"/>
</a>
</g>
</g>
<!-- Node8&#45;&gt;Node5 -->
<g id="edge9_Node000008_Node000005" class="edge">
<title>Node8&#45;&gt;Node5</title>
<g id="a_edge9_Node000008_Node000005"><a xlink:title=" ">
<path fill="none" stroke="#63b8ff" d="M270.55,-96.48C287.49,-102.18 308.25,-109.16 324.62,-114.67"/>
<polygon fill="#63b8ff" stroke="#63b8ff" points="323.06,-118.17 333.66,-118.04 325.3,-111.54 323.06,-118.17"/>
</a>
</g>
</g>
<!-- Node8&#45;&gt;Node6 -->
<g id="edge10_Node000008_Node000006" class="edge">
<title>Node8&#45;&gt;Node6</title>
<g id="a_edge10_Node000008_Node000006"><a xlink:title=" ">
<path fill="none" stroke="#63b8ff" d="M270.55,-75.52C283.03,-71.32 297.58,-66.43 310.92,-61.94"/>
<polygon fill="#63b8ff" stroke="#63b8ff" points="311.94,-64.95 320.3,-58.45 309.71,-58.32 311.94,-64.95"/>
</a>
</g>
</g>
<!-- Node8&#45;&gt;Node7 -->
<g id="edge11_Node000008_Node000007" class="edge">
<title>Node8&#45;&gt;Node7</title>
<g id="a_edge11_Node000008_Node000007"><a xlink:title=" ">
<path fill="none" stroke="#63b8ff" d="M253,-75.71C268.73,-63.97 295.52,-44.41 319.5,-29 321.06,-28 322.68,-26.98 324.32,-25.97"/>
<polygon fill="#63b8ff" stroke="#63b8ff" points="325.96,-28.48 332.76,-20.35 322.38,-22.46 325.96,-28.48"/>
</a>
</g>
</g>
<!-- Node9 -->
<g id="Node000009" class="node">
<title>Node9</title>
<g id="a_Node000009"><a xlink:href="ft__putnbr__base_8c.html#ab03731fe550c176eb1d4f0a6f087cce6" target="_top" xlink:title="Affect a number to an allocated in a certain numbering.">
<polygon fill="white" stroke="#666666" points="477.5,-96 423.25,-96 423.25,-76 477.5,-76 477.5,-96"/>
<text text-anchor="middle" x="450.38" y="-82.5" font-family="Helvetica,sans-Serif" font-size="10.00">ft_wbase</text>
</a>
</g>
</g>
<!-- Node8&#45;&gt;Node9 -->
<g id="edge12_Node000008_Node000009" class="edge">
<title>Node8&#45;&gt;Node9</title>
<g id="a_edge12_Node000008_Node000009"><a xlink:title=" ">
<path fill="none" stroke="#63b8ff" d="M283.91,-86C321.93,-86 376.01,-86 411.86,-86"/>
<polygon fill="#63b8ff" stroke="#63b8ff" points="411.82,-89.5 421.82,-86 411.82,-82.5 411.82,-89.5"/>
</a>
</g>
</g>
<!-- Node9&#45;&gt;Node4 -->
<g id="edge13_Node000009_Node000004" class="edge">
<title>Node9&#45;&gt;Node4</title>
<g id="a_edge13_Node000009_Node000004"><a xlink:title=" ">
<path fill="none" stroke="#63b8ff" d="M477.76,-94.55C485.64,-97.11 494.41,-99.95 502.76,-102.66"/>
<polygon fill="#63b8ff" stroke="#63b8ff" points="501.41,-106.22 512,-105.98 503.57,-99.56 501.41,-106.22"/>
</a>
</g>
</g>
<!-- Node9&#45;&gt;Node9 -->
<g id="edge14_Node000009_Node000009" class="edge">
<title>Node9&#45;&gt;Node9</title>
<g id="a_edge14_Node000009_Node000009"><a xlink:title=" ">
<path fill="none" stroke="#63b8ff" d="M436.33,-96.34C430.33,-104.98 435.01,-114 450.38,-114 459.02,-114 464.28,-111.14 466.16,-107.11"/>
<polygon fill="#63b8ff" stroke="#63b8ff" points="469.47,-106.65 464.42,-97.34 462.56,-107.77 469.47,-106.65"/>
</a>
</g>
</g>
</g>
</svg>

<g id="navigator" transform="translate(0 0)" fill="#404254">
  <rect fill="#f2f5e9" fill-opacity="0.5" stroke="#606060" stroke-width=".5" x="0" y="0" width="60" height="60"/>
  <use id="zoomplus" xlink:href="#zoomPlus" x="17" y="9" onmousedown="handleZoom(evt,'in')"/>
  <use id="zoomminus" xlink:href="#zoomMin" x="42" y="9" onmousedown="handleZoom(evt,'out')"/>
  <use id="reset" xlink:href="#resetDef" x="30" y="36" onmousedown="handleReset()"/>
   <use id="arrowup" xlink:href="#arrowUp" x="0" y="0" onmousedown="handlePan(0,-1)"/>
  <use id="arrowright" xlink:href="#arrowRight" x="0" y="0" onmousedown="handlePan(1,0)"/>
  <use id="arrowdown" xlink:href="#arrowDown" x="0" y="0" onmousedown="handlePan(0,1)"/>
  <use id="arrowleft" xlink:href="#arrowLeft" x="0" y="0" onmousedown="handlePan(-1,0)"/>
</g>
<svg viewBox="0 0 15 15" width="100%" height="30px" preserveAspectRatio="xMaxYMin meet">
 <g id="arrow_out" transform="scale(0.3 0.3)">
  <a xlink:href="ft__write_8c_a905ddf384a970ba04f14b3201c110783_cgraph_org.svg" target="_base">
   <rect id="button" ry="5" rx="5" y="6" x="6" height="38" width="38"
        fill="#f2f5e9" fill-opacity="0.5" stroke="#606060" stroke-width="1.0"/>
   <path id="arrow"
     d="M 11.500037,31.436501 C 11.940474,20.09759 22.043105,11.32322 32.158766,21.979434 L 37.068811,17.246167 C 37.068811,17.246167 37.088388,32 37.088388,32 L 22.160133,31.978069 C 22.160133,31.978069 26.997745,27.140456 26.997745,27.140456 C 18.528582,18.264221 13.291696,25.230495 11.500037,31.436501 z"
     style="fill:#404040;"/>
  </a>
 </g>
</svg>

<style type='text/css'>
<![CDATA[
[data-mouse-over-selected='false'] { opacity: 0.7; }
[data-mouse-over-selected='true']  { opacity: 1.0; }
]]>
</style>
<script type="application/ecmascript"><![CDATA[
document.addEventListener('DOMContentLoaded', (event) => {
  highlightEdges();
  highlightAdjacentNodes();
});
]]></script>
</svg>
