<?xml version="1.0" encoding="UTF-8" standalone="no"?>
<!DOCTYPE svg PUBLIC "-//W3C//DTD SVG 1.1//EN"
 "http://www.w3.org/Graphics/SVG/1.1/DTD/svg11.dtd">
<!-- Generated by graphviz version 8.1.0 (20230707.0739)
 -->
<!-- Title: ft_fill_left_p Pages: 1 -->
<svg width="479pt" height="160pt"
 viewBox="0.00 0.00 478.75 160.00" xmlns="http://www.w3.org/2000/svg" xmlns:xlink="http://www.w3.org/1999/xlink">

<svg id="main" version="1.1" xmlns="http://www.w3.org/2000/svg" xmlns:xlink="http://www.w3.org/1999/xlink" xml:space="preserve" onload="init(evt)">
<style type="text/css"><![CDATA[
.node, .edge {opacity: 0.7;}
.node.selected, .edge.selected {opacity: 1;}
.edge:hover path { stroke: red; }
.edge:hover polygon { stroke: red; fill: red; }
]]></style>
<script type="application/ecmascript" xlink:href="svg.min.js"/>
<svg id="graph" class="graph">
<g id="graph0" class="graph" transform="scale(1 1) rotate(0) translate(4 156)">
<title>ft_fill_left_p</title>
<!-- Node1 -->
<g id="Node000001" class="node">
<title>Node1</title>
<g id="a_Node000001"><a xlink:title="Manage length and precision specifier before an memory address replacement.">
<polygon fill="#999999" stroke="#666666" points="64,-96 0,-96 0,-76 64,-76 64,-96"/>
<text text-anchor="middle" x="32" y="-82.5" font-family="Helvetica,sans-Serif" font-size="10.00">ft_fill_left_p</text>
</a>
</g>
</g>
<!-- Node2 -->
<g id="Node000002" class="node">
<title>Node2</title>
<g id="a_Node000002"><a xlink:href="ft__putnbr__base_8c.html#a522e39ec68ab1b0f1e65eae477f9167c" target="_top" xlink:title="Calculation of a number of digit.">
<polygon fill="white" stroke="#666666" points="375.62,-152 338.62,-152 338.62,-132 375.62,-132 375.62,-152"/>
<text text-anchor="middle" x="357.12" y="-138.5" font-family="Helvetica,sans-Serif" font-size="10.00">ft_ch</text>
</a>
</g>
</g>
<!-- Node1&#45;&gt;Node2 -->
<g id="edge1_Node000001_Node000002" class="edge">
<title>Node1&#45;&gt;Node2</title>
<g id="a_edge1_Node000001_Node000002"><a xlink:title=" ">
<path fill="none" stroke="#63b8ff" d="M47.11,-96.4C60.15,-105.47 80.42,-118.2 100,-125 178.75,-152.36 279.18,-148.81 327.55,-144.92"/>
<polygon fill="#63b8ff" stroke="#63b8ff" points="327.76,-148.32 337.41,-143.96 327.14,-141.35 327.76,-148.32"/>
</a>
</g>
</g>
<!-- Node4 -->
<g id="Node000004" class="node">
<title>Node4</title>
<g id="a_Node000004"><a xlink:href="ft__putnbr__base_8c.html#a817a9932ef93b9a42819eafa88b400e6" target="_top" xlink:title="Calculation of a number of characters needed for printing a given number.">
<polygon fill="white" stroke="#666666" points="278.62,-134 241.62,-134 241.62,-114 278.62,-114 278.62,-134"/>
<text text-anchor="middle" x="260.12" y="-120.5" font-family="Helvetica,sans-Serif" font-size="10.00">ft_cy</text>
</a>
</g>
</g>
<!-- Node1&#45;&gt;Node4 -->
<g id="edge3_Node000001_Node000004" class="edge">
<title>Node1&#45;&gt;Node4</title>
<g id="a_edge3_Node000001_Node000004"><a xlink:title=" ">
<path fill="none" stroke="#63b8ff" d="M64.45,-96.02C75.58,-99.28 88.26,-102.65 100,-105 145.19,-114.05 198.53,-119.34 230.54,-121.95"/>
<polygon fill="#63b8ff" stroke="#63b8ff" points="230.08,-125.5 240.32,-122.79 230.62,-118.53 230.08,-125.5"/>
</a>
</g>
</g>
<!-- Node5 -->
<g id="Node000005" class="node">
<title>Node5</title>
<g id="a_Node000005"><a xlink:href="ft__fill__caract_8c.html#aab8e86cef846e237daf0239698e98ebd" target="_top" xlink:title="Affect repeated character to an allocated string.">
<polygon fill="white" stroke="#666666" points="294,-58 226.25,-58 226.25,-38 294,-38 294,-58"/>
<text text-anchor="middle" x="260.12" y="-44.5" font-family="Helvetica,sans-Serif" font-size="10.00">ft_fill_caract</text>
</a>
</g>
</g>
<!-- Node1&#45;&gt;Node5 -->
<g id="edge5_Node000001_Node000005" class="edge">
<title>Node1&#45;&gt;Node5</title>
<g id="a_edge5_Node000001_Node000005"><a xlink:title=" ">
<path fill="none" stroke="#63b8ff" d="M64.45,-75.98C75.58,-72.72 88.26,-69.35 100,-67 138.56,-59.28 183.04,-54.29 215.16,-51.37"/>
<polygon fill="#63b8ff" stroke="#63b8ff" points="215.32,-54.79 224.97,-50.43 214.7,-47.81 215.32,-54.79"/>
</a>
</g>
</g>
<!-- Node6 -->
<g id="Node000006" class="node">
<title>Node6</title>
<g id="a_Node000006"><a xlink:href="ft__isdigit_8c.html#abc1bdaeaea0d28d9499f5f13194ca0ca" target="_top" xlink:title="Replication of the max function.">
<polygon fill="white" stroke="#666666" points="282.75,-20 237.5,-20 237.5,0 282.75,0 282.75,-20"/>
<text text-anchor="middle" x="260.12" y="-6.5" font-family="Helvetica,sans-Serif" font-size="10.00">ft_max</text>
</a>
</g>
</g>
<!-- Node1&#45;&gt;Node6 -->
<g id="edge6_Node000001_Node000006" class="edge">
<title>Node1&#45;&gt;Node6</title>
<g id="a_edge6_Node000001_Node000006"><a xlink:title=" ">
<path fill="none" stroke="#63b8ff" d="M49.52,-75.63C62.76,-67.7 82.02,-56.97 100,-50 142.41,-33.57 193.82,-22.07 226.51,-15.75"/>
<polygon fill="#63b8ff" stroke="#63b8ff" points="227.06,-19.02 236.24,-13.73 225.76,-12.14 227.06,-19.02"/>
</a>
</g>
</g>
<!-- Node7 -->
<g id="Node000007" class="node">
<title>Node7</title>
<g id="a_Node000007"><a xlink:href="ft__putnbr__base__p_8c.html#a2f33d4ba2e17b7b581850c0bf068afdf" target="_top" xlink:title="Affect a memory address in an certain numbering.">
<polygon fill="white" stroke="#666666" points="190.25,-96 100,-96 100,-76 190.25,-76 190.25,-96"/>
<text text-anchor="middle" x="145.12" y="-82.5" font-family="Helvetica,sans-Serif" font-size="10.00">ft_putnbr_base_p</text>
</a>
</g>
</g>
<!-- Node1&#45;&gt;Node7 -->
<g id="edge7_Node000001_Node000007" class="edge">
<title>Node1&#45;&gt;Node7</title>
<g id="a_edge7_Node000001_Node000007"><a xlink:title=" ">
<path fill="none" stroke="#63b8ff" d="M64.25,-86C72.01,-86 80.57,-86 89.1,-86"/>
<polygon fill="#63b8ff" stroke="#63b8ff" points="88.84,-89.5 98.84,-86 88.84,-82.5 88.84,-89.5"/>
</a>
</g>
</g>
<!-- Node3 -->
<g id="Node000003" class="node">
<title>Node3</title>
<g id="a_Node000003"><a xlink:href="ft__strlen_8c.html#a828402378653640f545a4be2e00e92f9" target="_top" xlink:title="Replication of the strlen function.">
<polygon fill="white" stroke="#666666" points="470.75,-124 420.25,-124 420.25,-104 470.75,-104 470.75,-124"/>
<text text-anchor="middle" x="445.5" y="-110.5" font-family="Helvetica,sans-Serif" font-size="10.00">ft_strlen</text>
</a>
</g>
</g>
<!-- Node2&#45;&gt;Node3 -->
<g id="edge2_Node000002_Node000003" class="edge">
<title>Node2&#45;&gt;Node3</title>
<g id="a_edge2_Node000002_Node000003"><a xlink:title=" ">
<path fill="none" stroke="#63b8ff" d="M376.02,-136.2C385.78,-133.03 398.2,-129.01 409.78,-125.25"/>
<polygon fill="#63b8ff" stroke="#63b8ff" points="410.64,-128.33 419.07,-121.92 408.48,-121.67 410.64,-128.33"/>
</a>
</g>
</g>
<!-- Node4&#45;&gt;Node2 -->
<g id="edge4_Node000004_Node000002" class="edge">
<title>Node4&#45;&gt;Node2</title>
<g id="a_edge4_Node000004_Node000002"><a xlink:title=" ">
<path fill="none" stroke="#63b8ff" d="M278.99,-127.39C292.66,-129.98 311.78,-133.6 327.56,-136.59"/>
<polygon fill="#63b8ff" stroke="#63b8ff" points="326.86,-140.21 337.34,-138.63 328.16,-133.33 326.86,-140.21"/>
</a>
</g>
</g>
<!-- Node7&#45;&gt;Node4 -->
<g id="edge8_Node000007_Node000004" class="edge">
<title>Node7&#45;&gt;Node4</title>
<g id="a_edge8_Node000007_Node000004"><a xlink:title=" ">
<path fill="none" stroke="#63b8ff" d="M177.3,-96.48C194.24,-102.18 215,-109.16 231.37,-114.67"/>
<polygon fill="#63b8ff" stroke="#63b8ff" points="229.81,-118.17 240.41,-118.04 232.05,-111.54 229.81,-118.17"/>
</a>
</g>
</g>
<!-- Node7&#45;&gt;Node5 -->
<g id="edge9_Node000007_Node000005" class="edge">
<title>Node7&#45;&gt;Node5</title>
<g id="a_edge9_Node000007_Node000005"><a xlink:title=" ">
<path fill="none" stroke="#63b8ff" d="M177.3,-75.52C189.78,-71.32 204.33,-66.43 217.67,-61.94"/>
<polygon fill="#63b8ff" stroke="#63b8ff" points="218.69,-64.95 227.05,-58.45 216.46,-58.32 218.69,-64.95"/>
</a>
</g>
</g>
<!-- Node7&#45;&gt;Node6 -->
<g id="edge10_Node000007_Node000006" class="edge">
<title>Node7&#45;&gt;Node6</title>
<g id="a_edge10_Node000007_Node000006"><a xlink:title=" ">
<path fill="none" stroke="#63b8ff" d="M159.75,-75.71C175.48,-63.97 202.27,-44.41 226.25,-29 227.81,-28 229.43,-26.98 231.07,-25.97"/>
<polygon fill="#63b8ff" stroke="#63b8ff" points="232.71,-28.48 239.51,-20.35 229.13,-22.46 232.71,-28.48"/>
</a>
</g>
</g>
<!-- Node8 -->
<g id="Node000008" class="node">
<title>Node8</title>
<g id="a_Node000008"><a xlink:href="ft__putnbr__base_8c.html#ab03731fe550c176eb1d4f0a6f087cce6" target="_top" xlink:title="Affect a number to an allocated in a certain numbering.">
<polygon fill="white" stroke="#666666" points="384.25,-96 330,-96 330,-76 384.25,-76 384.25,-96"/>
<text text-anchor="middle" x="357.12" y="-82.5" font-family="Helvetica,sans-Serif" font-size="10.00">ft_wbase</text>
</a>
</g>
</g>
<!-- Node7&#45;&gt;Node8 -->
<g id="edge11_Node000007_Node000008" class="edge">
<title>Node7&#45;&gt;Node8</title>
<g id="a_edge11_Node000007_Node000008"><a xlink:title=" ">
<path fill="none" stroke="#63b8ff" d="M190.66,-86C228.68,-86 282.76,-86 318.61,-86"/>
<polygon fill="#63b8ff" stroke="#63b8ff" points="318.57,-89.5 328.57,-86 318.57,-82.5 318.57,-89.5"/>
</a>
</g>
</g>
<!-- Node8&#45;&gt;Node3 -->
<g id="edge12_Node000008_Node000003" class="edge">
<title>Node8&#45;&gt;Node3</title>
<g id="a_edge12_Node000008_Node000003"><a xlink:title=" ">
<path fill="none" stroke="#63b8ff" d="M384.51,-94.55C392.39,-97.11 401.16,-99.95 409.51,-102.66"/>
<polygon fill="#63b8ff" stroke="#63b8ff" points="408.16,-106.22 418.75,-105.98 410.32,-99.56 408.16,-106.22"/>
</a>
</g>
</g>
<!-- Node8&#45;&gt;Node8 -->
<g id="edge13_Node000008_Node000008" class="edge">
<title>Node8&#45;&gt;Node8</title>
<g id="a_edge13_Node000008_Node000008"><a xlink:title=" ">
<path fill="none" stroke="#63b8ff" d="M343.08,-96.34C337.08,-104.98 341.76,-114 357.12,-114 365.77,-114 371.03,-111.14 372.91,-107.11"/>
<polygon fill="#63b8ff" stroke="#63b8ff" points="376.22,-106.65 371.17,-97.34 369.31,-107.77 376.22,-106.65"/>
</a>
</g>
</g>
</g>
</svg>
</svg>

<style type='text/css'>
<![CDATA[
[data-mouse-over-selected='false'] { opacity: 0.7; }
[data-mouse-over-selected='true']  { opacity: 1.0; }
]]>
</style>
<script type="application/ecmascript"><![CDATA[
document.addEventListener('DOMContentLoaded', (event) => {
  highlightEdges();
  highlightAdjacentNodes();
});
]]></script>
</svg>
