<?xml version="1.0" encoding="UTF-8" standalone="no"?>
<!DOCTYPE svg PUBLIC "-//W3C//DTD SVG 1.1//EN"
 "http://www.w3.org/Graphics/SVG/1.1/DTD/svg11.dtd">
<!-- Generated by graphviz version 8.1.0 (20230707.0739)
 -->
<!-- Title: ft_write_s Pages: 1 -->
<svg width="169pt" height="66pt"
 viewBox="0.00 0.00 169.00 66.00" xmlns="http://www.w3.org/2000/svg" xmlns:xlink="http://www.w3.org/1999/xlink">
<g id="graph0" class="graph" transform="scale(1 1) rotate(0) translate(4 62)">
<title>ft_write_s</title>
<!-- Node1 -->
<g id="Node000001" class="node">
<title>Node1</title>
<g id="a_Node000001"><a xlink:title="affect the output of a string replacement">
<polygon fill="#999999" stroke="#666666" points="57.25,-39 0,-39 0,-19 57.25,-19 57.25,-39"/>
<text text-anchor="middle" x="28.62" y="-25.5" font-family="Helvetica,sans-Serif" font-size="10.00">ft_write_s</text>
</a>
</g>
</g>
<!-- Node2 -->
<g id="Node000002" class="node">
<title>Node2</title>
<g id="a_Node000002"><a xlink:href="ft__fill__caract_8c.html#aab8e86cef846e237daf0239698e98ebd" target="_top" xlink:title="Affect repeated character to an allocated string.">
<polygon fill="white" stroke="#666666" points="161,-58 93.25,-58 93.25,-38 161,-38 161,-58"/>
<text text-anchor="middle" x="127.12" y="-44.5" font-family="Helvetica,sans-Serif" font-size="10.00">ft_fill_caract</text>
</a>
</g>
</g>
<!-- Node1&#45;&gt;Node2 -->
<g id="edge1_Node000001_Node000002" class="edge">
<title>Node1&#45;&gt;Node2</title>
<g id="a_edge1_Node000001_Node000002"><a xlink:title=" ">
<path fill="none" stroke="#63b8ff" d="M57.54,-34.5C65.2,-36 73.7,-37.68 82.04,-39.32"/>
<polygon fill="#63b8ff" stroke="#63b8ff" points="81.32,-42.94 91.81,-41.44 82.68,-36.07 81.32,-42.94"/>
</a>
</g>
</g>
<!-- Node3 -->
<g id="Node000003" class="node">
<title>Node3</title>
<g id="a_Node000003"><a xlink:href="ft__strlen_8c.html#a828402378653640f545a4be2e00e92f9" target="_top" xlink:title="Replication of the strlen function.">
<polygon fill="white" stroke="#666666" points="152.38,-20 101.88,-20 101.88,0 152.38,0 152.38,-20"/>
<text text-anchor="middle" x="127.12" y="-6.5" font-family="Helvetica,sans-Serif" font-size="10.00">ft_strlen</text>
</a>
</g>
</g>
<!-- Node1&#45;&gt;Node3 -->
<g id="edge2_Node000001_Node000003" class="edge">
<title>Node1&#45;&gt;Node3</title>
<g id="a_edge2_Node000001_Node000003"><a xlink:title=" ">
<path fill="none" stroke="#63b8ff" d="M57.54,-23.5C67.97,-21.45 79.96,-19.09 90.97,-16.92"/>
<polygon fill="#63b8ff" stroke="#63b8ff" points="91.42,-20.2 100.56,-14.84 90.07,-13.33 91.42,-20.2"/>
</a>
</g>
</g>
</g>
</svg>
