<?xml version="1.0" encoding="UTF-8" standalone="no"?>
<!DOCTYPE svg PUBLIC "-//W3C//DTD SVG 1.1//EN"
 "http://www.w3.org/Graphics/SVG/1.1/DTD/svg11.dtd">
<!-- Generated by graphviz version 8.1.0 (20230707.0739)
 -->
<!-- Title: ft_wbase Pages: 1 -->
<svg width="382pt" height="66pt"
 viewBox="0.00 0.00 381.75 66.00" xmlns="http://www.w3.org/2000/svg" xmlns:xlink="http://www.w3.org/1999/xlink">

<svg id="main" version="1.1" xmlns="http://www.w3.org/2000/svg" xmlns:xlink="http://www.w3.org/1999/xlink" xml:space="preserve" onload="init(evt)">
<style type="text/css"><![CDATA[
.node, .edge {opacity: 0.7;}
.node.selected, .edge.selected {opacity: 1;}
.edge:hover path { stroke: red; }
.edge:hover polygon { stroke: red; fill: red; }
]]></style>
<script type="application/ecmascript" xlink:href="svg.min.js"/>
<svg id="graph" class="graph">
<g id="graph0" class="graph" transform="scale(1 1) rotate(0) translate(4 62)">
<title>ft_wbase</title>
<!-- Node1 -->
<g id="Node000001" class="node">
<title>Node1</title>
<g id="a_Node000001"><a xlink:title="Affect a number to an allocated in a certain numbering.">
<polygon fill="#999999" stroke="#666666" points="373.75,-39 319.5,-39 319.5,-19 373.75,-19 373.75,-39"/>
<text text-anchor="middle" x="346.62" y="-25.5" font-family="Helvetica,sans-Serif" font-size="10.00">ft_wbase</text>
</a>
</g>
</g>
<!-- Node1&#45;&gt;Node1 -->
<g id="edge7_Node000001_Node000001" class="edge">
<title>Node1&#45;&gt;Node1</title>
<g id="a_edge7_Node000001_Node000001"><a xlink:title=" ">
<path fill="none" stroke="#63b8ff" d="M365.96,-50.11C363.65,-54.14 357.21,-57 346.62,-57 327.81,-57 322.07,-47.98 329.43,-39.34"/>
<polygon fill="#63b8ff" stroke="#63b8ff" points="369.2,-49.47 363.82,-40.34 362.34,-50.83 369.2,-49.47"/>
</a>
</g>
</g>
<!-- Node2 -->
<g id="Node000002" class="node">
<title>Node2</title>
<g id="a_Node000002"><a xlink:href="ft__putnbr__base_8c.html#a24815d094f34d9eb2a1288d10b8bd359" target="_top" xlink:title="Manage the sign before a number replacement.">
<polygon fill="white" stroke="#666666" points="278.25,-58 198.5,-58 198.5,-38 278.25,-38 278.25,-58"/>
<text text-anchor="middle" x="238.38" y="-44.5" font-family="Helvetica,sans-Serif" font-size="10.00">ft_putnbr_base</text>
</a>
</g>
</g>
<!-- Node1&#45;&gt;Node2 -->
<g id="edge1_Node000001_Node000002" class="edge">
<title>Node1&#45;&gt;Node2</title>
<g id="a_edge1_Node000001_Node000002"><a xlink:title=" ">
<path fill="none" stroke="#63b8ff" d="M308.51,-35.64C298.77,-37.38 288.24,-39.26 278.41,-41.02"/>
<polygon fill="#63b8ff" stroke="#63b8ff" points="308.86,-38.95 318.09,-33.75 307.63,-32.06 308.86,-38.95"/>
</a>
</g>
</g>
<!-- Node5 -->
<g id="Node000005" class="node">
<title>Node5</title>
<g id="a_Node000005"><a xlink:href="ft__putnbr__base__p_8c.html#a2f33d4ba2e17b7b581850c0bf068afdf" target="_top" xlink:title="Affect a memory address in an certain numbering.">
<polygon fill="white" stroke="#666666" points="283.5,-20 193.25,-20 193.25,0 283.5,0 283.5,-20"/>
<text text-anchor="middle" x="238.38" y="-6.5" font-family="Helvetica,sans-Serif" font-size="10.00">ft_putnbr_base_p</text>
</a>
</g>
</g>
<!-- Node1&#45;&gt;Node5 -->
<g id="edge4_Node000001_Node000005" class="edge">
<title>Node1&#45;&gt;Node5</title>
<g id="a_edge4_Node000001_Node000005"><a xlink:title=" ">
<path fill="none" stroke="#63b8ff" d="M308.3,-22.33C300.36,-20.91 291.91,-19.39 283.74,-17.93"/>
<polygon fill="#63b8ff" stroke="#63b8ff" points="307.63,-25.94 318.09,-24.25 308.86,-19.05 307.63,-25.94"/>
</a>
</g>
</g>
<!-- Node3 -->
<g id="Node000003" class="node">
<title>Node3</title>
<g id="a_Node000003"><a xlink:href="ft__putnbr__base_8c.html#ab5d9d7094e8c0bdcd45b2ca213487b05" target="_top" xlink:title="Manage length and precision specifier before a number replacement.">
<polygon fill="white" stroke="#666666" points="152,-58 98.5,-58 98.5,-38 152,-38 152,-58"/>
<text text-anchor="middle" x="125.25" y="-44.5" font-family="Helvetica,sans-Serif" font-size="10.00">ft_fill_left</text>
</a>
</g>
</g>
<!-- Node2&#45;&gt;Node3 -->
<g id="edge2_Node000002_Node000003" class="edge">
<title>Node2&#45;&gt;Node3</title>
<g id="a_edge2_Node000002_Node000003"><a xlink:title=" ">
<path fill="none" stroke="#63b8ff" d="M187.24,-48C175.14,-48 162.69,-48 152.22,-48"/>
<polygon fill="#63b8ff" stroke="#63b8ff" points="187.2,-51.5 197.2,-48 187.2,-44.5 187.2,-51.5"/>
</a>
</g>
</g>
<!-- Node4 -->
<g id="Node000004" class="node">
<title>Node4</title>
<g id="a_Node000004"><a xlink:href="ft__write_8c.html#acb5c93b91b86ca3ea395b496eef6850d" target="_top" xlink:title="affect the output of a number replacement">
<polygon fill="white" stroke="#666666" points="57.25,-58 0,-58 0,-38 57.25,-38 57.25,-58"/>
<text text-anchor="middle" x="28.62" y="-44.5" font-family="Helvetica,sans-Serif" font-size="10.00">ft_write_d</text>
</a>
</g>
</g>
<!-- Node3&#45;&gt;Node4 -->
<g id="edge3_Node000003_Node000004" class="edge">
<title>Node3&#45;&gt;Node4</title>
<g id="a_edge3_Node000003_Node000004"><a xlink:title=" ">
<path fill="none" stroke="#63b8ff" d="M87.35,-48C77.47,-48 66.95,-48 57.63,-48"/>
<polygon fill="#63b8ff" stroke="#63b8ff" points="87.14,-51.5 97.14,-48 87.14,-44.5 87.14,-51.5"/>
</a>
</g>
</g>
<!-- Node6 -->
<g id="Node000006" class="node">
<title>Node6</title>
<g id="a_Node000006"><a xlink:href="ft__putnbr__base__p_8c.html#a18fa0ffb2b234b9ab48a8c660625d677" target="_top" xlink:title="Manage length and precision specifier before an memory address replacement.">
<polygon fill="white" stroke="#666666" points="157.25,-20 93.25,-20 93.25,0 157.25,0 157.25,-20"/>
<text text-anchor="middle" x="125.25" y="-6.5" font-family="Helvetica,sans-Serif" font-size="10.00">ft_fill_left_p</text>
</a>
</g>
</g>
<!-- Node5&#45;&gt;Node6 -->
<g id="edge5_Node000005_Node000006" class="edge">
<title>Node5&#45;&gt;Node6</title>
<g id="a_edge5_Node000005_Node000006"><a xlink:title=" ">
<path fill="none" stroke="#63b8ff" d="M181.87,-10C173.49,-10 165.11,-10 157.5,-10"/>
<polygon fill="#63b8ff" stroke="#63b8ff" points="181.82,-13.5 191.82,-10 181.82,-6.5 181.82,-13.5"/>
</a>
</g>
</g>
<!-- Node7 -->
<g id="Node000007" class="node">
<title>Node7</title>
<g id="a_Node000007"><a xlink:href="ft__write_8c.html#a905ddf384a970ba04f14b3201c110783" target="_top" xlink:title="affect the output of a pointer replacement">
<polygon fill="white" stroke="#666666" points="57.25,-20 0,-20 0,0 57.25,0 57.25,-20"/>
<text text-anchor="middle" x="28.62" y="-6.5" font-family="Helvetica,sans-Serif" font-size="10.00">ft_write_p</text>
</a>
</g>
</g>
<!-- Node6&#45;&gt;Node7 -->
<g id="edge6_Node000006_Node000007" class="edge">
<title>Node6&#45;&gt;Node7</title>
<g id="a_edge6_Node000006_Node000007"><a xlink:title=" ">
<path fill="none" stroke="#63b8ff" d="M82.27,-10C73.93,-10 65.38,-10 57.65,-10"/>
<polygon fill="#63b8ff" stroke="#63b8ff" points="82,-13.5 92,-10 82,-6.5 82,-13.5"/>
</a>
</g>
</g>
</g>
</svg>
</svg>

<style type='text/css'>
<![CDATA[
[data-mouse-over-selected='false'] { opacity: 0.7; }
[data-mouse-over-selected='true']  { opacity: 1.0; }
]]>
</style>
<script type="application/ecmascript"><![CDATA[
document.addEventListener('DOMContentLoaded', (event) => {
  highlightEdges();
  highlightAdjacentNodes();
});
]]></script>
</svg>
