<?xml version="1.0" encoding="UTF-8" standalone="no"?>
<!DOCTYPE svg PUBLIC "-//W3C//DTD SVG 1.1//EN"
 "http://www.w3.org/Graphics/SVG/1.1/DTD/svg11.dtd">
<!-- Generated by graphviz version 8.1.0 (20230707.0739)
 -->
<!-- Title: ft_putnbr_base_p Pages: 1 -->
<svg width="379pt" height="117pt"
 viewBox="0.00 0.00 378.75 116.99" xmlns="http://www.w3.org/2000/svg" xmlns:xlink="http://www.w3.org/1999/xlink">

<svg id="main" version="1.1" xmlns="http://www.w3.org/2000/svg" xmlns:xlink="http://www.w3.org/1999/xlink" xml:space="preserve" onload="init(evt)">
<style type="text/css"><![CDATA[
.node, .edge {opacity: 0.7;}
.node.selected, .edge.selected {opacity: 1;}
.edge:hover path { stroke: red; }
.edge:hover polygon { stroke: red; fill: red; }
]]></style>
<script type="application/ecmascript" xlink:href="svg.min.js"/>
<svg id="graph" class="graph">
<g id="graph0" class="graph" transform="scale(1 1) rotate(0) translate(4 112.99)">
<title>ft_putnbr_base_p</title>
<!-- Node1 -->
<g id="Node000001" class="node">
<title>Node1</title>
<g id="a_Node000001"><a xlink:title="Affect a memory address in an certain numbering.">
<polygon fill="#999999" stroke="#666666" points="90.25,-51.99 0,-51.99 0,-31.99 90.25,-31.99 90.25,-51.99"/>
<text text-anchor="middle" x="45.12" y="-38.49" font-family="Helvetica,sans-Serif" font-size="10.00">ft_putnbr_base_p</text>
</a>
</g>
</g>
<!-- Node2 -->
<g id="Node000002" class="node">
<title>Node2</title>
<g id="a_Node000002"><a xlink:href="ft__putnbr__base_8c.html#a817a9932ef93b9a42819eafa88b400e6" target="_top" xlink:title="Calculation of a number of characters needed for printing a given number.">
<polygon fill="white" stroke="#666666" points="178.62,-108.99 141.62,-108.99 141.62,-88.99 178.62,-88.99 178.62,-108.99"/>
<text text-anchor="middle" x="160.12" y="-95.49" font-family="Helvetica,sans-Serif" font-size="10.00">ft_cy</text>
</a>
</g>
</g>
<!-- Node1&#45;&gt;Node2 -->
<g id="edge1_Node000001_Node000002" class="edge">
<title>Node1&#45;&gt;Node2</title>
<g id="a_edge1_Node000001_Node000002"><a xlink:title=" ">
<path fill="none" stroke="#63b8ff" d="M66.85,-52.44C84.97,-61.58 111.44,-74.93 131.38,-84.99"/>
<polygon fill="#63b8ff" stroke="#63b8ff" points="129.63,-88.54 140.14,-89.92 132.79,-82.29 129.63,-88.54"/>
</a>
</g>
</g>
<!-- Node5 -->
<g id="Node000005" class="node">
<title>Node5</title>
<g id="a_Node000005"><a xlink:href="ft__fill__caract_8c.html#aab8e86cef846e237daf0239698e98ebd" target="_top" xlink:title="Affect repeated character to an allocated string.">
<polygon fill="white" stroke="#666666" points="194,-70.99 126.25,-70.99 126.25,-50.99 194,-50.99 194,-70.99"/>
<text text-anchor="middle" x="160.12" y="-57.49" font-family="Helvetica,sans-Serif" font-size="10.00">ft_fill_caract</text>
</a>
</g>
</g>
<!-- Node1&#45;&gt;Node5 -->
<g id="edge4_Node000001_Node000005" class="edge">
<title>Node1&#45;&gt;Node5</title>
<g id="a_edge4_Node000001_Node000005"><a xlink:title=" ">
<path fill="none" stroke="#63b8ff" d="M90.46,-49.44C98.54,-50.8 106.96,-52.22 115.03,-53.57"/>
<polygon fill="#63b8ff" stroke="#63b8ff" points="114.31,-57.17 124.75,-55.38 115.47,-50.27 114.31,-57.17"/>
</a>
</g>
</g>
<!-- Node6 -->
<g id="Node000006" class="node">
<title>Node6</title>
<g id="a_Node000006"><a xlink:href="ft__isdigit_8c.html#abc1bdaeaea0d28d9499f5f13194ca0ca" target="_top" xlink:title="Replication of the max function.">
<polygon fill="white" stroke="#666666" points="182.75,-32.99 137.5,-32.99 137.5,-12.99 182.75,-12.99 182.75,-32.99"/>
<text text-anchor="middle" x="160.12" y="-19.49" font-family="Helvetica,sans-Serif" font-size="10.00">ft_max</text>
</a>
</g>
</g>
<!-- Node1&#45;&gt;Node6 -->
<g id="edge5_Node000001_Node000006" class="edge">
<title>Node1&#45;&gt;Node6</title>
<g id="a_edge5_Node000001_Node000006"><a xlink:title=" ">
<path fill="none" stroke="#63b8ff" d="M90.46,-34.53C102.52,-32.51 115.35,-30.35 126.62,-28.45"/>
<polygon fill="#63b8ff" stroke="#63b8ff" points="127,-31.77 136.28,-26.66 125.84,-24.87 127,-31.77"/>
</a>
</g>
</g>
<!-- Node7 -->
<g id="Node000007" class="node">
<title>Node7</title>
<g id="a_Node000007"><a xlink:href="ft__putnbr__base_8c.html#ab03731fe550c176eb1d4f0a6f087cce6" target="_top" xlink:title="Affect a number to an allocated in a certain numbering.">
<polygon fill="white" stroke="#666666" points="284.25,-23.99 230,-23.99 230,-3.99 284.25,-3.99 284.25,-23.99"/>
<text text-anchor="middle" x="257.12" y="-10.49" font-family="Helvetica,sans-Serif" font-size="10.00">ft_wbase</text>
</a>
</g>
</g>
<!-- Node1&#45;&gt;Node7 -->
<g id="edge6_Node000001_Node000007" class="edge">
<title>Node1&#45;&gt;Node7</title>
<g id="a_edge6_Node000001_Node000007"><a xlink:title=" ">
<path fill="none" stroke="#63b8ff" d="M62.53,-31.54C78.19,-22.22 102.82,-9.26 126.25,-3.99 157.04,2.94 192.86,-0.66 219.07,-5.36"/>
<polygon fill="#63b8ff" stroke="#63b8ff" points="218.19,-8.95 228.68,-7.42 219.53,-2.08 218.19,-8.95"/>
</a>
</g>
</g>
<!-- Node3 -->
<g id="Node000003" class="node">
<title>Node3</title>
<g id="a_Node000003"><a xlink:href="ft__putnbr__base_8c.html#a522e39ec68ab1b0f1e65eae477f9167c" target="_top" xlink:title="Calculation of a number of digit.">
<polygon fill="white" stroke="#666666" points="275.62,-93.99 238.62,-93.99 238.62,-73.99 275.62,-73.99 275.62,-93.99"/>
<text text-anchor="middle" x="257.12" y="-80.49" font-family="Helvetica,sans-Serif" font-size="10.00">ft_ch</text>
</a>
</g>
</g>
<!-- Node2&#45;&gt;Node3 -->
<g id="edge2_Node000002_Node000003" class="edge">
<title>Node2&#45;&gt;Node3</title>
<g id="a_edge2_Node000002_Node000003"><a xlink:title=" ">
<path fill="none" stroke="#63b8ff" d="M178.99,-96.17C192.66,-94.01 211.78,-90.99 227.56,-88.5"/>
<polygon fill="#63b8ff" stroke="#63b8ff" points="228,-91.81 237.34,-86.8 226.91,-84.9 228,-91.81"/>
</a>
</g>
</g>
<!-- Node4 -->
<g id="Node000004" class="node">
<title>Node4</title>
<g id="a_Node000004"><a xlink:href="ft__strlen_8c.html#a828402378653640f545a4be2e00e92f9" target="_top" xlink:title="Replication of the strlen function.">
<polygon fill="white" stroke="#666666" points="370.75,-51.99 320.25,-51.99 320.25,-31.99 370.75,-31.99 370.75,-51.99"/>
<text text-anchor="middle" x="345.5" y="-38.49" font-family="Helvetica,sans-Serif" font-size="10.00">ft_strlen</text>
</a>
</g>
</g>
<!-- Node3&#45;&gt;Node4 -->
<g id="edge3_Node000003_Node000004" class="edge">
<title>Node3&#45;&gt;Node4</title>
<g id="a_edge3_Node000003_Node000004"><a xlink:title=" ">
<path fill="none" stroke="#63b8ff" d="M276.02,-75.29C286.78,-70.05 300.78,-63.25 313.31,-57.15"/>
<polygon fill="#63b8ff" stroke="#63b8ff" points="314.5,-59.98 321.96,-52.46 311.43,-53.69 314.5,-59.98"/>
</a>
</g>
</g>
<!-- Node7&#45;&gt;Node4 -->
<g id="edge7_Node000007_Node000004" class="edge">
<title>Node7&#45;&gt;Node4</title>
<g id="a_edge7_Node000007_Node000004"><a xlink:title=" ">
<path fill="none" stroke="#63b8ff" d="M284.51,-22.54C292.39,-25.1 301.16,-27.94 309.51,-30.64"/>
<polygon fill="#63b8ff" stroke="#63b8ff" points="308.16,-34.21 318.75,-33.97 310.32,-27.55 308.16,-34.21"/>
</a>
</g>
</g>
<!-- Node7&#45;&gt;Node7 -->
<g id="edge8_Node000007_Node000007" class="edge">
<title>Node7&#45;&gt;Node7</title>
<g id="a_edge8_Node000007_Node000007"><a xlink:title=" ">
<path fill="none" stroke="#63b8ff" d="M243.08,-24.33C237.08,-32.96 241.76,-41.99 257.12,-41.99 265.77,-41.99 271.03,-39.13 272.91,-35.1"/>
<polygon fill="#63b8ff" stroke="#63b8ff" points="276.22,-34.64 271.17,-25.33 269.31,-35.76 276.22,-34.64"/>
</a>
</g>
</g>
</g>
</svg>
</svg>

<style type='text/css'>
<![CDATA[
[data-mouse-over-selected='false'] { opacity: 0.7; }
[data-mouse-over-selected='true']  { opacity: 1.0; }
]]>
</style>
<script type="application/ecmascript"><![CDATA[
document.addEventListener('DOMContentLoaded', (event) => {
  highlightEdges();
  highlightAdjacentNodes();
});
]]></script>
</svg>
