<?xml version="1.0" encoding="UTF-8" standalone="no"?>
<!DOCTYPE svg PUBLIC "-//W3C//DTD SVG 1.1//EN"
 "http://www.w3.org/Graphics/SVG/1.1/DTD/svg11.dtd">
<!-- Generated by graphviz version 8.1.0 (20230707.0739)
 -->
<!-- Title: ft_isdigit Pages: 1 -->
<svg width="193pt" height="66pt"
 viewBox="0.00 0.00 193.00 66.00" xmlns="http://www.w3.org/2000/svg" xmlns:xlink="http://www.w3.org/1999/xlink">
<g id="graph0" class="graph" transform="scale(1 1) rotate(0) translate(4 62)">
<title>ft_isdigit</title>
<!-- Node1 -->
<g id="Node000001" class="node">
<title>Node1</title>
<g id="a_Node000001"><a xlink:title="Replication of the isdigit function.">
<polygon fill="#999999" stroke="#666666" points="185,-39 133,-39 133,-19 185,-19 185,-39"/>
<text text-anchor="middle" x="159" y="-25.5" font-family="Helvetica,sans-Serif" font-size="10.00">ft_isdigit</text>
</a>
</g>
</g>
<!-- Node2 -->
<g id="Node000002" class="node">
<title>Node2</title>
<g id="a_Node000002"><a xlink:href="ft__check_8c.html#aee5880cef62cc48f90594a9019aa1227" target="_top" xlink:title="Determination of the length specifier of the conversion.">
<polygon fill="white" stroke="#666666" points="97,-58 0,-58 0,-38 97,-38 97,-58"/>
<text text-anchor="middle" x="48.5" y="-44.5" font-family="Helvetica,sans-Serif" font-size="10.00">ft_checktaille_max</text>
</a>
</g>
</g>
<!-- Node1&#45;&gt;Node2 -->
<g id="edge1_Node000001_Node000002" class="edge">
<title>Node1&#45;&gt;Node2</title>
<g id="a_edge1_Node000001_Node000002"><a xlink:title=" ">
<path fill="none" stroke="#63b8ff" d="M121.9,-35.32C114.04,-36.7 105.59,-38.18 97.35,-39.62"/>
<polygon fill="#63b8ff" stroke="#63b8ff" points="122.32,-38.63 131.56,-33.45 121.11,-31.73 122.32,-38.63"/>
</a>
</g>
</g>
<!-- Node3 -->
<g id="Node000003" class="node">
<title>Node3</title>
<g id="a_Node000003"><a xlink:href="ft__check_8c.html#a75c2e6d3bb5900ff8f55742b13b253b3" target="_top" xlink:title="Determination of the precision specifier of the conversion.">
<polygon fill="white" stroke="#666666" points="95.5,-20 1.5,-20 1.5,0 95.5,0 95.5,-20"/>
<text text-anchor="middle" x="48.5" y="-6.5" font-family="Helvetica,sans-Serif" font-size="10.00">ft_checktaille_min</text>
</a>
</g>
</g>
<!-- Node1&#45;&gt;Node3 -->
<g id="edge2_Node000001_Node000003" class="edge">
<title>Node1&#45;&gt;Node3</title>
<g id="a_edge2_Node000001_Node000003"><a xlink:title=" ">
<path fill="none" stroke="#63b8ff" d="M121.94,-22.69C113.51,-21.21 104.42,-19.62 95.62,-18.08"/>
<polygon fill="#63b8ff" stroke="#63b8ff" points="121.11,-26.27 131.56,-24.55 122.32,-19.37 121.11,-26.27"/>
</a>
</g>
</g>
</g>
</svg>
