<?xml version="1.0" encoding="UTF-8" standalone="no"?>
<!DOCTYPE svg PUBLIC "-//W3C//DTD SVG 1.1//EN"
 "http://www.w3.org/Graphics/SVG/1.1/DTD/svg11.dtd">
<!-- Generated by graphviz version 8.1.0 (20230707.0739)
 -->
<!-- Title: libftprint.h Pages: 1 -->
<!--zoomable 84 -->

<svg id="main" version="1.1" xmlns="http://www.w3.org/2000/svg" xmlns:xlink="http://www.w3.org/1999/xlink" xml:space="preserve" onload="init(evt)">
<style type="text/css"><![CDATA[
.node, .edge {opacity: 0.7;}
.node.selected, .edge.selected {opacity: 1;}
.edge:hover path { stroke: red; }
.edge:hover polygon { stroke: red; fill: red; }
]]></style>

<defs>
  <circle id="rim" cx="0" cy="0" r="7"/>
  <circle id="rim2" cx="0" cy="0" r="3.5"/>
  <g id="zoomPlus">
    <use xlink:href="#rim" fill="#404040"><set attributeName="fill" to="#808080" begin="zoomplus.mouseover" end="zoomplus.mouseout"/></use>
    <path d="M-4,0h8M0,-4v8" fill="none" stroke="white" stroke-width="1.5" pointer-events="none"/>
  </g>
  <g id="zoomMin">
    <use xlink:href="#rim" fill="#404040"><set attributeName="fill" to="#808080" begin="zoomminus.mouseover" end="zoomminus.mouseout"/></use>
    <path d="M-4,0h8" fill="none" stroke="white" stroke-width="1.5" pointer-events="none"/>
  </g>
  <g id="arrowUp" transform="translate(30 24)">
    <use xlink:href="#rim"/>
    <path pointer-events="none" fill="none" stroke="white" stroke-width="1.5" d="M0,-3.0v7 M-2.5,-0.5L0,-3.0L2.5,-0.5"/>
  </g>
  <g id="arrowRight" transform="rotate(90) translate(36 -43)">
    <use xlink:href="#rim"/>
    <path pointer-events="none" fill="none" stroke="white" stroke-width="1.5" d="M0,-3.0v7 M-2.5,-0.5L0,-3.0L2.5,-0.5"/>
  </g>
  <g id="arrowDown" transform="rotate(180) translate(-30 -48)">
    <use xlink:href="#rim"/>
    <path pointer-events="none" fill="none" stroke="white" stroke-width="1.5" d="M0,-3.0v7 M-2.5,-0.5L0,-3.0L2.5,-0.5"/>
  </g>
  <g id="arrowLeft" transform="rotate(270) translate(-36 17)">
    <use xlink:href="#rim"/>
    <path pointer-events="none" fill="none" stroke="white" stroke-width="1.5" d="M0,-3.0v7 M-2.5,-0.5L0,-3.0L2.5,-0.5"/>
  </g>
  <g id="resetDef">
    <use xlink:href="#rim2" fill="#404040"><set attributeName="fill" to="#808080" begin="reset.mouseover" end="reset.mouseout"/></use>
  </g>
</defs>
<script type="application/ecmascript">
var viewWidth = 1145;
var viewHeight = 84;
var sectionId = 'dynsection-1';
</script>
<script type="application/ecmascript" xlink:href="svg.min.js"/>
<svg id="graph" class="graph">
<g id="viewport">
<title>libftprint.h</title>
<!-- Node1 -->
<g id="Node000001" class="node">
<title>Node1</title>
<g id="a_Node000001"><a xlink:title=" ">
<polygon fill="#999999" stroke="#666666" points="589.25,-76 531.25,-76 531.25,-56 589.25,-56 589.25,-76"/>
<text text-anchor="middle" x="560.25" y="-62.5" font-family="Helvetica,sans-Serif" font-size="10.00">libftprint.h</text>
</a>
</g>
</g>
<!-- Node2 -->
<g id="Node000002" class="node">
<title>Node2</title>
<g id="a_Node000002"><a xlink:href="ft__atoi_8c.html" target="_top" xlink:title=" ">
<polygon fill="white" stroke="#666666" points="50.5,-20 0,-20 0,0 50.5,0 50.5,-20"/>
<text text-anchor="middle" x="25.25" y="-6.5" font-family="Helvetica,sans-Serif" font-size="10.00">ft_atoi.c</text>
</a>
</g>
</g>
<!-- Node1&#45;&gt;Node2 -->
<g id="edge1_Node000001_Node000002" class="edge">
<title>Node1&#45;&gt;Node2</title>
<g id="a_edge1_Node000001_Node000002"><a xlink:title=" ">
<path fill="none" stroke="#63b8ff" d="M520.19,-63.7C434.84,-60.43 229.02,-49.87 59.25,-20 56.48,-19.51 53.61,-18.91 50.77,-18.25"/>
<polygon fill="#63b8ff" stroke="#63b8ff" points="519.82,-67.23 529.94,-64.1 520.08,-60.23 519.82,-67.23"/>
</a>
</g>
</g>
<!-- Node3 -->
<g id="Node000003" class="node">
<title>Node3</title>
<g id="a_Node000003"><a xlink:href="ft__check_8c.html" target="_top" xlink:title=" ">
<polygon fill="white" stroke="#666666" points="129.75,-20 68.75,-20 68.75,0 129.75,0 129.75,-20"/>
<text text-anchor="middle" x="99.25" y="-6.5" font-family="Helvetica,sans-Serif" font-size="10.00">ft_check.c</text>
</a>
</g>
</g>
<!-- Node1&#45;&gt;Node3 -->
<g id="edge2_Node000001_Node000003" class="edge">
<title>Node1&#45;&gt;Node3</title>
<g id="a_edge2_Node000001_Node000003"><a xlink:title=" ">
<path fill="none" stroke="#63b8ff" d="M520.18,-62.26C445.09,-56.78 278.25,-42.99 139.25,-20 136.3,-19.51 133.24,-18.94 130.19,-18.33"/>
<polygon fill="#63b8ff" stroke="#63b8ff" points="519.78,-65.81 530,-63.04 520.28,-58.83 519.78,-65.81"/>
</a>
</g>
</g>
<!-- Node4 -->
<g id="Node000004" class="node">
<title>Node4</title>
<g id="a_Node000004"><a xlink:href="ft__count_8c.html" target="_top" xlink:title=" ">
<polygon fill="white" stroke="#666666" points="206.62,-20 147.88,-20 147.88,0 206.62,0 206.62,-20"/>
<text text-anchor="middle" x="177.25" y="-6.5" font-family="Helvetica,sans-Serif" font-size="10.00">ft_count.c</text>
</a>
</g>
</g>
<!-- Node1&#45;&gt;Node4 -->
<g id="edge3_Node000001_Node000004" class="edge">
<title>Node1&#45;&gt;Node4</title>
<g id="a_edge3_Node000001_Node000004"><a xlink:title=" ">
<path fill="none" stroke="#63b8ff" d="M520.25,-61.04C455.91,-54.38 325.57,-39.72 216.25,-20 213.24,-19.46 210.11,-18.84 207,-18.18"/>
<polygon fill="#63b8ff" stroke="#63b8ff" points="519.8,-64.61 530.11,-62.15 520.52,-57.65 519.8,-64.61"/>
</a>
</g>
</g>
<!-- Node5 -->
<g id="Node000005" class="node">
<title>Node5</title>
<g id="a_Node000005"><a xlink:href="ft__countnbr_8c.html" target="_top" xlink:title=" ">
<polygon fill="white" stroke="#666666" points="297.38,-20 225.12,-20 225.12,0 297.38,0 297.38,-20"/>
<text text-anchor="middle" x="261.25" y="-6.5" font-family="Helvetica,sans-Serif" font-size="10.00">ft_countnbr.c</text>
</a>
</g>
</g>
<!-- Node1&#45;&gt;Node5 -->
<g id="edge4_Node000001_Node000005" class="edge">
<title>Node1&#45;&gt;Node5</title>
<g id="a_edge4_Node000001_Node000005"><a xlink:title=" ">
<path fill="none" stroke="#63b8ff" d="M520.19,-58.18C470.1,-49.6 381.74,-34.23 306.25,-20 303.43,-19.47 300.52,-18.91 297.59,-18.34"/>
<polygon fill="#63b8ff" stroke="#63b8ff" points="519.43,-61.78 529.88,-60.01 520.61,-54.88 519.43,-61.78"/>
</a>
</g>
</g>
<!-- Node6 -->
<g id="Node000006" class="node">
<title>Node6</title>
<g id="a_Node000006"><a xlink:href="ft__fill__caract_8c.html" target="_top" xlink:title=" ">
<polygon fill="white" stroke="#666666" points="391.25,-20 315.25,-20 315.25,0 391.25,0 391.25,-20"/>
<text text-anchor="middle" x="353.25" y="-6.5" font-family="Helvetica,sans-Serif" font-size="10.00">ft_fill_caract.c</text>
</a>
</g>
</g>
<!-- Node1&#45;&gt;Node6 -->
<g id="edge5_Node000001_Node000006" class="edge">
<title>Node1&#45;&gt;Node6</title>
<g id="a_edge5_Node000001_Node000006"><a xlink:title=" ">
<path fill="none" stroke="#63b8ff" d="M520.41,-54.61C482.6,-44.74 426.26,-30.05 389.64,-20.49"/>
<polygon fill="#63b8ff" stroke="#63b8ff" points="519.47,-58.24 530.03,-57.38 521.24,-51.47 519.47,-58.24"/>
</a>
</g>
</g>
<!-- Node7 -->
<g id="Node000007" class="node">
<title>Node7</title>
<g id="a_Node000007"><a xlink:href="ft__isdigit_8c.html" target="_top" xlink:title=" ">
<polygon fill="white" stroke="#666666" points="469.38,-20 409.12,-20 409.12,0 469.38,0 469.38,-20"/>
<text text-anchor="middle" x="439.25" y="-6.5" font-family="Helvetica,sans-Serif" font-size="10.00">ft_isdigit.c</text>
</a>
</g>
</g>
<!-- Node1&#45;&gt;Node7 -->
<g id="edge6_Node000001_Node000007" class="edge">
<title>Node1&#45;&gt;Node7</title>
<g id="a_edge6_Node000001_Node000007"><a xlink:title=" ">
<path fill="none" stroke="#63b8ff" d="M529.19,-51.14C507.65,-41.52 479.51,-28.97 460.49,-20.48"/>
<polygon fill="#63b8ff" stroke="#63b8ff" points="527.62,-54.71 538.17,-55.59 530.47,-48.32 527.62,-54.71"/>
</a>
</g>
</g>
<!-- Node8 -->
<g id="Node000008" class="node">
<title>Node8</title>
<g id="a_Node000008"><a xlink:href="ft__printf_8c.html" target="_top" xlink:title=" ">
<polygon fill="white" stroke="#666666" points="543.12,-20 487.38,-20 487.38,0 543.12,0 543.12,-20"/>
<text text-anchor="middle" x="515.25" y="-6.5" font-family="Helvetica,sans-Serif" font-size="10.00">ft_printf.c</text>
</a>
</g>
</g>
<!-- Node1&#45;&gt;Node8 -->
<g id="edge7_Node000001_Node000008" class="edge">
<title>Node1&#45;&gt;Node8</title>
<g id="a_edge7_Node000001_Node000008"><a xlink:title=" ">
<path fill="none" stroke="#63b8ff" d="M545.49,-47.29C537.98,-38.28 529.17,-27.7 523,-20.3"/>
<polygon fill="#63b8ff" stroke="#63b8ff" points="543.32,-49.15 552.41,-54.59 548.7,-44.67 543.32,-49.15"/>
</a>
</g>
</g>
<!-- Node9 -->
<g id="Node000009" class="node">
<title>Node9</title>
<g id="a_Node000009"><a xlink:href="ft__putnbr__base_8c.html" target="_top" xlink:title=" ">
<polygon fill="white" stroke="#666666" points="649.25,-20 561.25,-20 561.25,0 649.25,0 649.25,-20"/>
<text text-anchor="middle" x="605.25" y="-6.5" font-family="Helvetica,sans-Serif" font-size="10.00">ft_putnbr_base.c</text>
</a>
</g>
</g>
<!-- Node1&#45;&gt;Node9 -->
<g id="edge8_Node000001_Node000009" class="edge">
<title>Node1&#45;&gt;Node9</title>
<g id="a_edge8_Node000001_Node000009"><a xlink:title=" ">
<path fill="none" stroke="#63b8ff" d="M575.01,-47.29C582.52,-38.28 591.33,-27.7 597.5,-20.3"/>
<polygon fill="#63b8ff" stroke="#63b8ff" points="571.8,-44.67 568.09,-54.59 577.18,-49.15 571.8,-44.67"/>
</a>
</g>
</g>
<!-- Node10 -->
<g id="Node000010" class="node">
<title>Node10</title>
<g id="a_Node000010"><a xlink:href="ft__putnbr__base__p_8c.html" target="_top" xlink:title=" ">
<polygon fill="white" stroke="#666666" points="765.5,-20 667,-20 667,0 765.5,0 765.5,-20"/>
<text text-anchor="middle" x="716.25" y="-6.5" font-family="Helvetica,sans-Serif" font-size="10.00">ft_putnbr_base_p.c</text>
</a>
</g>
</g>
<!-- Node1&#45;&gt;Node10 -->
<g id="edge9_Node000001_Node000010" class="edge">
<title>Node1&#45;&gt;Node10</title>
<g id="a_edge9_Node000001_Node000010"><a xlink:title=" ">
<path fill="none" stroke="#63b8ff" d="M597.66,-52.05C625.75,-42.33 663.56,-29.24 688.86,-20.48"/>
<polygon fill="#63b8ff" stroke="#63b8ff" points="596.73,-49.02 588.42,-55.59 599.02,-55.63 596.73,-49.02"/>
</a>
</g>
</g>
<!-- Node11 -->
<g id="Node000011" class="node">
<title>Node11</title>
<g id="a_Node000011"><a xlink:href="ft__putstr__n_8c.html" target="_top" xlink:title=" ">
<polygon fill="white" stroke="#666666" points="853.25,-20 783.25,-20 783.25,0 853.25,0 853.25,-20"/>
<text text-anchor="middle" x="818.25" y="-6.5" font-family="Helvetica,sans-Serif" font-size="10.00">ft_putstr_n.c</text>
</a>
</g>
</g>
<!-- Node1&#45;&gt;Node11 -->
<g id="edge10_Node000001_Node000011" class="edge">
<title>Node1&#45;&gt;Node11</title>
<g id="a_edge10_Node000001_Node000011"><a xlink:title=" ">
<path fill="none" stroke="#63b8ff" d="M600.07,-56.67C650.15,-46.18 735.34,-28.35 783.1,-18.36"/>
<polygon fill="#63b8ff" stroke="#63b8ff" points="599.42,-53.44 590.34,-58.91 600.85,-60.29 599.42,-53.44"/>
</a>
</g>
</g>
<!-- Node12 -->
<g id="Node000012" class="node">
<title>Node12</title>
<g id="a_Node000012"><a xlink:href="ft__size_8c.html" target="_top" xlink:title=" ">
<polygon fill="white" stroke="#666666" points="923.62,-20 870.88,-20 870.88,0 923.62,0 923.62,-20"/>
<text text-anchor="middle" x="897.25" y="-6.5" font-family="Helvetica,sans-Serif" font-size="10.00">ft_size.c</text>
</a>
</g>
</g>
<!-- Node1&#45;&gt;Node12 -->
<g id="edge11_Node000001_Node000012" class="edge">
<title>Node1&#45;&gt;Node12</title>
<g id="a_edge11_Node000001_Node000012"><a xlink:title=" ">
<path fill="none" stroke="#63b8ff" d="M600.48,-60.35C658.58,-53.34 769.22,-38.84 862.25,-20 864.96,-19.45 867.77,-18.83 870.56,-18.17"/>
<polygon fill="#63b8ff" stroke="#63b8ff" points="600.09,-56.99 590.58,-61.66 600.92,-63.95 600.09,-56.99"/>
</a>
</g>
</g>
<!-- Node13 -->
<g id="Node000013" class="node">
<title>Node13</title>
<g id="a_Node000013"><a xlink:href="ft__strlen_8c.html" target="_top" xlink:title=" ">
<polygon fill="white" stroke="#666666" points="1000.62,-20 941.88,-20 941.88,0 1000.62,0 1000.62,-20"/>
<text text-anchor="middle" x="971.25" y="-6.5" font-family="Helvetica,sans-Serif" font-size="10.00">ft_strlen.c</text>
</a>
</g>
</g>
<!-- Node1&#45;&gt;Node13 -->
<g id="edge12_Node000001_Node000013" class="edge">
<title>Node1&#45;&gt;Node13</title>
<g id="a_edge12_Node000001_Node000013"><a xlink:title=" ">
<path fill="none" stroke="#63b8ff" d="M600.03,-61.59C668.31,-55.42 812.07,-41.07 932.25,-20 935.26,-19.47 938.39,-18.86 941.51,-18.21"/>
<polygon fill="#63b8ff" stroke="#63b8ff" points="599.99,-58.17 590.35,-62.54 600.62,-65.14 599.99,-58.17"/>
</a>
</g>
</g>
<!-- Node14 -->
<g id="Node000014" class="node">
<title>Node14</title>
<g id="a_Node000014"><a xlink:href="ft__write_8c.html" target="_top" xlink:title=" ">
<polygon fill="white" stroke="#666666" points="1073.75,-20 1018.75,-20 1018.75,0 1073.75,0 1073.75,-20"/>
<text text-anchor="middle" x="1046.25" y="-6.5" font-family="Helvetica,sans-Serif" font-size="10.00">ft_write.c</text>
</a>
</g>
</g>
<!-- Node1&#45;&gt;Node14 -->
<g id="edge13_Node000001_Node000014" class="edge">
<title>Node1&#45;&gt;Node14</title>
<g id="a_edge13_Node000001_Node000014"><a xlink:title=" ">
<path fill="none" stroke="#63b8ff" d="M600.48,-62.84C679.35,-58.21 859.65,-45.56 1009.25,-20 1012.25,-19.49 1015.36,-18.87 1018.46,-18.2"/>
<polygon fill="#63b8ff" stroke="#63b8ff" points="600.38,-59.4 590.59,-63.47 600.78,-66.39 600.38,-59.4"/>
</a>
</g>
</g>
<!-- Node15 -->
<g id="Node000015" class="node">
<title>Node15</title>
<g id="a_Node000015"><a xlink:href="main_8c.html" target="_top" xlink:title=" ">
<polygon fill="white" stroke="#666666" points="1136.88,-20 1091.62,-20 1091.62,0 1136.88,0 1136.88,-20"/>
<text text-anchor="middle" x="1114.25" y="-6.5" font-family="Helvetica,sans-Serif" font-size="10.00">main.c</text>
</a>
</g>
</g>
<!-- Node1&#45;&gt;Node15 -->
<g id="edge14_Node000001_Node000015" class="edge">
<title>Node1&#45;&gt;Node15</title>
<g id="a_edge14_Node000001_Node000015"><a xlink:title=" ">
<path fill="none" stroke="#63b8ff" d="M600.57,-64.23C688.81,-61.94 905.37,-53.14 1083.25,-20 1085.89,-19.51 1088.64,-18.88 1091.35,-18.19"/>
<polygon fill="#63b8ff" stroke="#63b8ff" points="600.64,-60.75 590.72,-64.49 600.81,-67.74 600.64,-60.75"/>
</a>
</g>
</g>
</g>
</svg>

<g id="navigator" transform="translate(0 0)" fill="#404254">
  <rect fill="#f2f5e9" fill-opacity="0.5" stroke="#606060" stroke-width=".5" x="0" y="0" width="60" height="60"/>
  <use id="zoomplus" xlink:href="#zoomPlus" x="17" y="9" onmousedown="handleZoom(evt,'in')"/>
  <use id="zoomminus" xlink:href="#zoomMin" x="42" y="9" onmousedown="handleZoom(evt,'out')"/>
  <use id="reset" xlink:href="#resetDef" x="30" y="36" onmousedown="handleReset()"/>
   <use id="arrowup" xlink:href="#arrowUp" x="0" y="0" onmousedown="handlePan(0,-1)"/>
  <use id="arrowright" xlink:href="#arrowRight" x="0" y="0" onmousedown="handlePan(1,0)"/>
  <use id="arrowdown" xlink:href="#arrowDown" x="0" y="0" onmousedown="handlePan(0,1)"/>
  <use id="arrowleft" xlink:href="#arrowLeft" x="0" y="0" onmousedown="handlePan(-1,0)"/>
</g>
<svg viewBox="0 0 15 15" width="100%" height="30px" preserveAspectRatio="xMaxYMin meet">
 <g id="arrow_out" transform="scale(0.3 0.3)">
  <a xlink:href="libftprint_8h__dep__incl_org.svg" target="_base">
   <rect id="button" ry="5" rx="5" y="6" x="6" height="38" width="38"
        fill="#f2f5e9" fill-opacity="0.5" stroke="#606060" stroke-width="1.0"/>
   <path id="arrow"
     d="M 11.500037,31.436501 C 11.940474,20.09759 22.043105,11.32322 32.158766,21.979434 L 37.068811,17.246167 C 37.068811,17.246167 37.088388,32 37.088388,32 L 22.160133,31.978069 C 22.160133,31.978069 26.997745,27.140456 26.997745,27.140456 C 18.528582,18.264221 13.291696,25.230495 11.500037,31.436501 z"
     style="fill:#404040;"/>
  </a>
 </g>
</svg>

<style type='text/css'>
<![CDATA[
[data-mouse-over-selected='false'] { opacity: 0.7; }
[data-mouse-over-selected='true']  { opacity: 1.0; }
]]>
</style>
<script type="application/ecmascript"><![CDATA[
document.addEventListener('DOMContentLoaded', (event) => {
  highlightEdges();
  highlightAdjacentNodes();
});
]]></script>
</svg>
