<?xml version="1.0" encoding="UTF-8" standalone="no"?>
<!DOCTYPE svg PUBLIC "-//W3C//DTD SVG 1.1//EN"
 "http://www.w3.org/Graphics/SVG/1.1/DTD/svg11.dtd">
<!-- Generated by graphviz version 8.1.0 (20230707.0739)
 -->
<!-- Title: ft_fill_left Pages: 1 -->
<svg width="458pt" height="160pt"
 viewBox="0.00 0.00 457.75 160.00" xmlns="http://www.w3.org/2000/svg" xmlns:xlink="http://www.w3.org/1999/xlink">
<g id="graph0" class="graph" transform="scale(1 1) rotate(0) translate(4 156)">
<title>ft_fill_left</title>
<!-- Node1 -->
<g id="Node000001" class="node">
<title>Node1</title>
<g id="a_Node000001"><a xlink:title="Manage length and precision specifier before a number replacement.">
<polygon fill="#999999" stroke="#666666" points="53.5,-96 0,-96 0,-76 53.5,-76 53.5,-96"/>
<text text-anchor="middle" x="26.75" y="-82.5" font-family="Helvetica,sans-Serif" font-size="10.00">ft_fill_left</text>
</a>
</g>
</g>
<!-- Node2 -->
<g id="Node000002" class="node">
<title>Node2</title>
<g id="a_Node000002"><a xlink:href="ft__putnbr__base_8c.html#a522e39ec68ab1b0f1e65eae477f9167c" target="_top" xlink:title="Calculation of a number of digit.">
<polygon fill="white" stroke="#666666" points="354.62,-152 317.62,-152 317.62,-132 354.62,-132 354.62,-152"/>
<text text-anchor="middle" x="336.12" y="-138.5" font-family="Helvetica,sans-Serif" font-size="10.00">ft_ch</text>
</a>
</g>
</g>
<!-- Node1&#45;&gt;Node2 -->
<g id="edge1_Node000001_Node000002" class="edge">
<title>Node1&#45;&gt;Node2</title>
<g id="a_edge1_Node000001_Node000002"><a xlink:title=" ">
<path fill="none" stroke="#63b8ff" d="M40.64,-96.37C52.58,-105.42 71.22,-118.14 89.5,-125 163.85,-152.88 259.63,-149.25 306.59,-145.16"/>
<polygon fill="#63b8ff" stroke="#63b8ff" points="306.81,-148.56 316.43,-144.13 306.15,-141.59 306.81,-148.56"/>
</a>
</g>
</g>
<!-- Node4 -->
<g id="Node000004" class="node">
<title>Node4</title>
<g id="a_Node000004"><a xlink:href="ft__putnbr__base_8c.html#a817a9932ef93b9a42819eafa88b400e6" target="_top" xlink:title="Calculation of a number of characters needed for printing a given number.">
<polygon fill="white" stroke="#666666" points="257.62,-134 220.62,-134 220.62,-114 257.62,-114 257.62,-134"/>
<text text-anchor="middle" x="239.12" y="-120.5" font-family="Helvetica,sans-Serif" font-size="10.00">ft_cy</text>
</a>
</g>
</g>
<!-- Node1&#45;&gt;Node4 -->
<g id="edge3_Node000001_Node000004" class="edge">
<title>Node1&#45;&gt;Node4</title>
<g id="a_edge3_Node000001_Node000004"><a xlink:title=" ">
<path fill="none" stroke="#63b8ff" d="M53.93,-95.14C64.82,-98.66 77.66,-102.44 89.5,-105 130.8,-113.93 179.53,-119.17 209.63,-121.82"/>
<polygon fill="#63b8ff" stroke="#63b8ff" points="209.31,-125.39 219.57,-122.74 209.9,-118.41 209.31,-125.39"/>
</a>
</g>
</g>
<!-- Node5 -->
<g id="Node000005" class="node">
<title>Node5</title>
<g id="a_Node000005"><a xlink:href="ft__fill__caract_8c.html#aab8e86cef846e237daf0239698e98ebd" target="_top" xlink:title="Affect repeated character to an allocated string.">
<polygon fill="white" stroke="#666666" points="273,-58 205.25,-58 205.25,-38 273,-38 273,-58"/>
<text text-anchor="middle" x="239.12" y="-44.5" font-family="Helvetica,sans-Serif" font-size="10.00">ft_fill_caract</text>
</a>
</g>
</g>
<!-- Node1&#45;&gt;Node5 -->
<g id="edge5_Node000001_Node000005" class="edge">
<title>Node1&#45;&gt;Node5</title>
<g id="a_edge5_Node000001_Node000005"><a xlink:title=" ">
<path fill="none" stroke="#63b8ff" d="M53.93,-76.86C64.82,-73.34 77.66,-69.56 89.5,-67 124.22,-59.5 164.19,-54.59 193.93,-51.65"/>
<polygon fill="#63b8ff" stroke="#63b8ff" points="194.17,-55.05 203.79,-50.62 193.51,-48.08 194.17,-55.05"/>
</a>
</g>
</g>
<!-- Node6 -->
<g id="Node000006" class="node">
<title>Node6</title>
<g id="a_Node000006"><a xlink:href="ft__isdigit_8c.html#abc1bdaeaea0d28d9499f5f13194ca0ca" target="_top" xlink:title="Replication of the max function.">
<polygon fill="white" stroke="#666666" points="261.75,-20 216.5,-20 216.5,0 261.75,0 261.75,-20"/>
<text text-anchor="middle" x="239.12" y="-6.5" font-family="Helvetica,sans-Serif" font-size="10.00">ft_max</text>
</a>
</g>
</g>
<!-- Node1&#45;&gt;Node6 -->
<g id="edge6_Node000001_Node000006" class="edge">
<title>Node1&#45;&gt;Node6</title>
<g id="a_edge6_Node000001_Node000006"><a xlink:title=" ">
<path fill="none" stroke="#63b8ff" d="M43.71,-75.5C55.86,-67.87 73.22,-57.74 89.5,-51 128.16,-35 175.02,-23.25 205.65,-16.53"/>
<polygon fill="#63b8ff" stroke="#63b8ff" points="206.11,-19.8 215.15,-14.28 204.64,-12.95 206.11,-19.8"/>
</a>
</g>
</g>
<!-- Node7 -->
<g id="Node000007" class="node">
<title>Node7</title>
<g id="a_Node000007"><a xlink:href="ft__putnbr__base_8c.html#a24815d094f34d9eb2a1288d10b8bd359" target="_top" xlink:title="Manage the sign before a number replacement.">
<polygon fill="white" stroke="#666666" points="169.25,-96 89.5,-96 89.5,-76 169.25,-76 169.25,-96"/>
<text text-anchor="middle" x="129.38" y="-82.5" font-family="Helvetica,sans-Serif" font-size="10.00">ft_putnbr_base</text>
</a>
</g>
</g>
<!-- Node1&#45;&gt;Node7 -->
<g id="edge7_Node000001_Node000007" class="edge">
<title>Node1&#45;&gt;Node7</title>
<g id="a_edge7_Node000001_Node000007"><a xlink:title=" ">
<path fill="none" stroke="#63b8ff" d="M53.93,-86C61.38,-86 69.75,-86 78.12,-86"/>
<polygon fill="#63b8ff" stroke="#63b8ff" points="78.05,-89.5 88.05,-86 78.05,-82.5 78.05,-89.5"/>
</a>
</g>
</g>
<!-- Node3 -->
<g id="Node000003" class="node">
<title>Node3</title>
<g id="a_Node000003"><a xlink:href="ft__strlen_8c.html#a828402378653640f545a4be2e00e92f9" target="_top" xlink:title="Replication of the strlen function.">
<polygon fill="white" stroke="#666666" points="449.75,-124 399.25,-124 399.25,-104 449.75,-104 449.75,-124"/>
<text text-anchor="middle" x="424.5" y="-110.5" font-family="Helvetica,sans-Serif" font-size="10.00">ft_strlen</text>
</a>
</g>
</g>
<!-- Node2&#45;&gt;Node3 -->
<g id="edge2_Node000002_Node000003" class="edge">
<title>Node2&#45;&gt;Node3</title>
<g id="a_edge2_Node000002_Node000003"><a xlink:title=" ">
<path fill="none" stroke="#63b8ff" d="M355.02,-136.2C364.78,-133.03 377.2,-129.01 388.78,-125.25"/>
<polygon fill="#63b8ff" stroke="#63b8ff" points="389.64,-128.33 398.07,-121.92 387.48,-121.67 389.64,-128.33"/>
</a>
</g>
</g>
<!-- Node4&#45;&gt;Node2 -->
<g id="edge4_Node000004_Node000002" class="edge">
<title>Node4&#45;&gt;Node2</title>
<g id="a_edge4_Node000004_Node000002"><a xlink:title=" ">
<path fill="none" stroke="#63b8ff" d="M257.99,-127.39C271.66,-129.98 290.78,-133.6 306.56,-136.59"/>
<polygon fill="#63b8ff" stroke="#63b8ff" points="305.86,-140.21 316.34,-138.63 307.16,-133.33 305.86,-140.21"/>
</a>
</g>
</g>
<!-- Node7&#45;&gt;Node4 -->
<g id="edge8_Node000007_Node000004" class="edge">
<title>Node7&#45;&gt;Node4</title>
<g id="a_edge8_Node000007_Node000004"><a xlink:title=" ">
<path fill="none" stroke="#63b8ff" d="M160.1,-96.48C175.79,-102.02 194.93,-108.77 210.32,-114.19"/>
<polygon fill="#63b8ff" stroke="#63b8ff" points="208.7,-117.69 219.29,-117.71 211.03,-111.08 208.7,-117.69"/>
</a>
</g>
</g>
<!-- Node7&#45;&gt;Node5 -->
<g id="edge9_Node000007_Node000005" class="edge">
<title>Node7&#45;&gt;Node5</title>
<g id="a_edge9_Node000007_Node000005"><a xlink:title=" ">
<path fill="none" stroke="#63b8ff" d="M160.1,-75.52C171.88,-71.36 185.6,-66.52 198.22,-62.07"/>
<polygon fill="#63b8ff" stroke="#63b8ff" points="199.23,-65.08 207.49,-58.45 196.9,-58.48 199.23,-65.08"/>
</a>
</g>
</g>
<!-- Node7&#45;&gt;Node6 -->
<g id="edge10_Node000007_Node000006" class="edge">
<title>Node7&#45;&gt;Node6</title>
<g id="a_edge10_Node000007_Node000006"><a xlink:title=" ">
<path fill="none" stroke="#63b8ff" d="M143,-75.6C157.6,-63.77 182.54,-44.12 205.25,-29 206.76,-28 208.32,-26.99 209.91,-25.99"/>
<polygon fill="#63b8ff" stroke="#63b8ff" points="211.34,-28.61 218.1,-20.45 207.73,-22.62 211.34,-28.61"/>
</a>
</g>
</g>
<!-- Node8 -->
<g id="Node000008" class="node">
<title>Node8</title>
<g id="a_Node000008"><a xlink:href="ft__putnbr__base_8c.html#ab03731fe550c176eb1d4f0a6f087cce6" target="_top" xlink:title="Affect a number to an allocated in a certain numbering.">
<polygon fill="white" stroke="#666666" points="363.25,-96 309,-96 309,-76 363.25,-76 363.25,-96"/>
<text text-anchor="middle" x="336.12" y="-82.5" font-family="Helvetica,sans-Serif" font-size="10.00">ft_wbase</text>
</a>
</g>
</g>
<!-- Node7&#45;&gt;Node8 -->
<g id="edge11_Node000007_Node000008" class="edge">
<title>Node7&#45;&gt;Node8</title>
<g id="a_edge11_Node000007_Node000008"><a xlink:title=" ">
<path fill="none" stroke="#63b8ff" d="M169.37,-86C206.38,-86 261.62,-86 298,-86"/>
<polygon fill="#63b8ff" stroke="#63b8ff" points="297.65,-89.5 307.65,-86 297.65,-82.5 297.65,-89.5"/>
</a>
</g>
</g>
<!-- Node8&#45;&gt;Node3 -->
<g id="edge12_Node000008_Node000003" class="edge">
<title>Node8&#45;&gt;Node3</title>
<g id="a_edge12_Node000008_Node000003"><a xlink:title=" ">
<path fill="none" stroke="#63b8ff" d="M363.51,-94.55C371.39,-97.11 380.16,-99.95 388.51,-102.66"/>
<polygon fill="#63b8ff" stroke="#63b8ff" points="387.16,-106.22 397.75,-105.98 389.32,-99.56 387.16,-106.22"/>
</a>
</g>
</g>
<!-- Node8&#45;&gt;Node8 -->
<g id="edge13_Node000008_Node000008" class="edge">
<title>Node8&#45;&gt;Node8</title>
<g id="a_edge13_Node000008_Node000008"><a xlink:title=" ">
<path fill="none" stroke="#63b8ff" d="M322.08,-96.34C316.08,-104.98 320.76,-114 336.12,-114 344.77,-114 350.03,-111.14 351.91,-107.11"/>
<polygon fill="#63b8ff" stroke="#63b8ff" points="355.22,-106.65 350.17,-97.34 348.31,-107.77 355.22,-106.65"/>
</a>
</g>
</g>
</g>
</svg>
