<?xml version="1.0" encoding="UTF-8" standalone="no"?>
<!DOCTYPE svg PUBLIC "-//W3C//DTD SVG 1.1//EN"
 "http://www.w3.org/Graphics/SVG/1.1/DTD/svg11.dtd">
<!-- Generated by graphviz version 8.1.0 (20230707.0739)
 -->
<!-- Title: ft_checktaille_max Pages: 1 -->
<svg width="193pt" height="66pt"
 viewBox="0.00 0.00 193.00 66.00" xmlns="http://www.w3.org/2000/svg" xmlns:xlink="http://www.w3.org/1999/xlink">
<g id="graph0" class="graph" transform="scale(1 1) rotate(0) translate(4 62)">
<title>ft_checktaille_max</title>
<!-- Node1 -->
<g id="Node000001" class="node">
<title>Node1</title>
<g id="a_Node000001"><a xlink:title="Determination of the length specifier of the conversion.">
<polygon fill="#999999" stroke="#666666" points="97,-39 0,-39 0,-19 97,-19 97,-39"/>
<text text-anchor="middle" x="48.5" y="-25.5" font-family="Helvetica,sans-Serif" font-size="10.00">ft_checktaille_max</text>
</a>
</g>
</g>
<!-- Node2 -->
<g id="Node000002" class="node">
<title>Node2</title>
<g id="a_Node000002"><a xlink:href="ft__atoi_8c.html#afad2ec371b4188602da9a94db687cb16" target="_top" xlink:title="Replication of the atoi function.">
<polygon fill="white" stroke="#666666" points="180.12,-58 137.88,-58 137.88,-38 180.12,-38 180.12,-58"/>
<text text-anchor="middle" x="159" y="-44.5" font-family="Helvetica,sans-Serif" font-size="10.00">ft_atoi</text>
</a>
</g>
</g>
<!-- Node1&#45;&gt;Node2 -->
<g id="edge1_Node000001_Node000002" class="edge">
<title>Node1&#45;&gt;Node2</title>
<g id="a_edge1_Node000001_Node000002"><a xlink:title=" ">
<path fill="none" stroke="#63b8ff" d="M97.41,-37.39C107.41,-39.14 117.72,-40.95 126.92,-42.56"/>
<polygon fill="#63b8ff" stroke="#63b8ff" points="126.06,-46.13 136.51,-44.41 127.27,-39.24 126.06,-46.13"/>
</a>
</g>
</g>
<!-- Node3 -->
<g id="Node000003" class="node">
<title>Node3</title>
<g id="a_Node000003"><a xlink:href="ft__isdigit_8c.html#aea941269ac57c50190e593eb42fbc74e" target="_top" xlink:title="Replication of the isdigit function.">
<polygon fill="white" stroke="#666666" points="185,-20 133,-20 133,0 185,0 185,-20"/>
<text text-anchor="middle" x="159" y="-6.5" font-family="Helvetica,sans-Serif" font-size="10.00">ft_isdigit</text>
</a>
</g>
</g>
<!-- Node1&#45;&gt;Node3 -->
<g id="edge2_Node000001_Node000003" class="edge">
<title>Node1&#45;&gt;Node3</title>
<g id="a_edge2_Node000001_Node000003"><a xlink:title=" ">
<path fill="none" stroke="#63b8ff" d="M97.41,-20.61C105.66,-19.17 114.12,-17.68 121.99,-16.31"/>
<polygon fill="#63b8ff" stroke="#63b8ff" points="122.41,-19.61 131.66,-14.44 121.21,-12.71 122.41,-19.61"/>
</a>
</g>
</g>
</g>
</svg>
