<?xml version="1.0" encoding="UTF-8" standalone="no"?>
<!DOCTYPE svg PUBLIC "-//W3C//DTD SVG 1.1//EN"
 "http://www.w3.org/Graphics/SVG/1.1/DTD/svg11.dtd">
<!-- Generated by graphviz version 8.1.0 (20230707.0739)
 -->
<!-- Title: ft_write_d Pages: 1 -->
<svg width="551pt" height="160pt"
 viewBox="0.00 0.00 551.00 160.00" xmlns="http://www.w3.org/2000/svg" xmlns:xlink="http://www.w3.org/1999/xlink">
<g id="graph0" class="graph" transform="scale(1 1) rotate(0) translate(4 156)">
<title>ft_write_d</title>
<!-- Node1 -->
<g id="Node000001" class="node">
<title>Node1</title>
<g id="a_Node000001"><a xlink:title="affect the output of a number replacement">
<polygon fill="#999999" stroke="#666666" points="57.25,-96 0,-96 0,-76 57.25,-76 57.25,-96"/>
<text text-anchor="middle" x="28.62" y="-82.5" font-family="Helvetica,sans-Serif" font-size="10.00">ft_write_d</text>
</a>
</g>
</g>
<!-- Node2 -->
<g id="Node000002" class="node">
<title>Node2</title>
<g id="a_Node000002"><a xlink:href="ft__putnbr__base_8c.html#ab5d9d7094e8c0bdcd45b2ca213487b05" target="_top" xlink:title="Manage length and precision specifier before a number replacement.">
<polygon fill="white" stroke="#666666" points="146.75,-96 93.25,-96 93.25,-76 146.75,-76 146.75,-96"/>
<text text-anchor="middle" x="120" y="-82.5" font-family="Helvetica,sans-Serif" font-size="10.00">ft_fill_left</text>
</a>
</g>
</g>
<!-- Node1&#45;&gt;Node2 -->
<g id="edge1_Node000001_Node000002" class="edge">
<title>Node1&#45;&gt;Node2</title>
<g id="a_edge1_Node000001_Node000002"><a xlink:title=" ">
<path fill="none" stroke="#63b8ff" d="M57.41,-86C65.16,-86 73.71,-86 81.9,-86"/>
<polygon fill="#63b8ff" stroke="#63b8ff" points="81.75,-89.5 91.75,-86 81.75,-82.5 81.75,-89.5"/>
</a>
</g>
</g>
<!-- Node3 -->
<g id="Node000003" class="node">
<title>Node3</title>
<g id="a_Node000003"><a xlink:href="ft__putnbr__base_8c.html#a522e39ec68ab1b0f1e65eae477f9167c" target="_top" xlink:title="Calculation of a number of digit.">
<polygon fill="white" stroke="#666666" points="447.88,-152 410.88,-152 410.88,-132 447.88,-132 447.88,-152"/>
<text text-anchor="middle" x="429.38" y="-138.5" font-family="Helvetica,sans-Serif" font-size="10.00">ft_ch</text>
</a>
</g>
</g>
<!-- Node2&#45;&gt;Node3 -->
<g id="edge2_Node000002_Node000003" class="edge">
<title>Node2&#45;&gt;Node3</title>
<g id="a_edge2_Node000002_Node000003"><a xlink:title=" ">
<path fill="none" stroke="#63b8ff" d="M133.89,-96.37C145.83,-105.42 164.47,-118.14 182.75,-125 257.1,-152.88 352.88,-149.25 399.84,-145.16"/>
<polygon fill="#63b8ff" stroke="#63b8ff" points="400.06,-148.56 409.68,-144.13 399.4,-141.59 400.06,-148.56"/>
</a>
</g>
</g>
<!-- Node5 -->
<g id="Node000005" class="node">
<title>Node5</title>
<g id="a_Node000005"><a xlink:href="ft__putnbr__base_8c.html#a817a9932ef93b9a42819eafa88b400e6" target="_top" xlink:title="Calculation of a number of characters needed for printing a given number.">
<polygon fill="white" stroke="#666666" points="350.88,-134 313.88,-134 313.88,-114 350.88,-114 350.88,-134"/>
<text text-anchor="middle" x="332.38" y="-120.5" font-family="Helvetica,sans-Serif" font-size="10.00">ft_cy</text>
</a>
</g>
</g>
<!-- Node2&#45;&gt;Node5 -->
<g id="edge4_Node000002_Node000005" class="edge">
<title>Node2&#45;&gt;Node5</title>
<g id="a_edge4_Node000002_Node000005"><a xlink:title=" ">
<path fill="none" stroke="#63b8ff" d="M147.18,-95.14C158.07,-98.66 170.91,-102.44 182.75,-105 224.05,-113.93 272.78,-119.17 302.88,-121.82"/>
<polygon fill="#63b8ff" stroke="#63b8ff" points="302.56,-125.39 312.82,-122.74 303.15,-118.41 302.56,-125.39"/>
</a>
</g>
</g>
<!-- Node6 -->
<g id="Node000006" class="node">
<title>Node6</title>
<g id="a_Node000006"><a xlink:href="ft__fill__caract_8c.html#aab8e86cef846e237daf0239698e98ebd" target="_top" xlink:title="Affect repeated character to an allocated string.">
<polygon fill="white" stroke="#666666" points="366.25,-58 298.5,-58 298.5,-38 366.25,-38 366.25,-58"/>
<text text-anchor="middle" x="332.38" y="-44.5" font-family="Helvetica,sans-Serif" font-size="10.00">ft_fill_caract</text>
</a>
</g>
</g>
<!-- Node2&#45;&gt;Node6 -->
<g id="edge6_Node000002_Node000006" class="edge">
<title>Node2&#45;&gt;Node6</title>
<g id="a_edge6_Node000002_Node000006"><a xlink:title=" ">
<path fill="none" stroke="#63b8ff" d="M147.18,-76.86C158.07,-73.34 170.91,-69.56 182.75,-67 217.47,-59.5 257.44,-54.59 287.18,-51.65"/>
<polygon fill="#63b8ff" stroke="#63b8ff" points="287.42,-55.05 297.04,-50.62 286.76,-48.08 287.42,-55.05"/>
</a>
</g>
</g>
<!-- Node7 -->
<g id="Node000007" class="node">
<title>Node7</title>
<g id="a_Node000007"><a xlink:href="ft__isdigit_8c.html#abc1bdaeaea0d28d9499f5f13194ca0ca" target="_top" xlink:title="Replication of the max function.">
<polygon fill="white" stroke="#666666" points="355,-20 309.75,-20 309.75,0 355,0 355,-20"/>
<text text-anchor="middle" x="332.38" y="-6.5" font-family="Helvetica,sans-Serif" font-size="10.00">ft_max</text>
</a>
</g>
</g>
<!-- Node2&#45;&gt;Node7 -->
<g id="edge7_Node000002_Node000007" class="edge">
<title>Node2&#45;&gt;Node7</title>
<g id="a_edge7_Node000002_Node000007"><a xlink:title=" ">
<path fill="none" stroke="#63b8ff" d="M136.96,-75.5C149.11,-67.87 166.47,-57.74 182.75,-51 221.41,-35 268.27,-23.25 298.9,-16.53"/>
<polygon fill="#63b8ff" stroke="#63b8ff" points="299.36,-19.8 308.4,-14.28 297.89,-12.95 299.36,-19.8"/>
</a>
</g>
</g>
<!-- Node8 -->
<g id="Node000008" class="node">
<title>Node8</title>
<g id="a_Node000008"><a xlink:href="ft__putnbr__base_8c.html#a24815d094f34d9eb2a1288d10b8bd359" target="_top" xlink:title="Manage the sign before a number replacement.">
<polygon fill="white" stroke="#666666" points="262.5,-96 182.75,-96 182.75,-76 262.5,-76 262.5,-96"/>
<text text-anchor="middle" x="222.62" y="-82.5" font-family="Helvetica,sans-Serif" font-size="10.00">ft_putnbr_base</text>
</a>
</g>
</g>
<!-- Node2&#45;&gt;Node8 -->
<g id="edge8_Node000002_Node000008" class="edge">
<title>Node2&#45;&gt;Node8</title>
<g id="a_edge8_Node000002_Node000008"><a xlink:title=" ">
<path fill="none" stroke="#63b8ff" d="M147.18,-86C154.63,-86 163,-86 171.37,-86"/>
<polygon fill="#63b8ff" stroke="#63b8ff" points="171.3,-89.5 181.3,-86 171.3,-82.5 171.3,-89.5"/>
</a>
</g>
</g>
<!-- Node4 -->
<g id="Node000004" class="node">
<title>Node4</title>
<g id="a_Node000004"><a xlink:href="ft__strlen_8c.html#a828402378653640f545a4be2e00e92f9" target="_top" xlink:title="Replication of the strlen function.">
<polygon fill="white" stroke="#666666" points="543,-124 492.5,-124 492.5,-104 543,-104 543,-124"/>
<text text-anchor="middle" x="517.75" y="-110.5" font-family="Helvetica,sans-Serif" font-size="10.00">ft_strlen</text>
</a>
</g>
</g>
<!-- Node3&#45;&gt;Node4 -->
<g id="edge3_Node000003_Node000004" class="edge">
<title>Node3&#45;&gt;Node4</title>
<g id="a_edge3_Node000003_Node000004"><a xlink:title=" ">
<path fill="none" stroke="#63b8ff" d="M448.27,-136.2C458.03,-133.03 470.45,-129.01 482.03,-125.25"/>
<polygon fill="#63b8ff" stroke="#63b8ff" points="482.89,-128.33 491.32,-121.92 480.73,-121.67 482.89,-128.33"/>
</a>
</g>
</g>
<!-- Node5&#45;&gt;Node3 -->
<g id="edge5_Node000005_Node000003" class="edge">
<title>Node5&#45;&gt;Node3</title>
<g id="a_edge5_Node000005_Node000003"><a xlink:title=" ">
<path fill="none" stroke="#63b8ff" d="M351.24,-127.39C364.91,-129.98 384.03,-133.6 399.81,-136.59"/>
<polygon fill="#63b8ff" stroke="#63b8ff" points="399.11,-140.21 409.59,-138.63 400.41,-133.33 399.11,-140.21"/>
</a>
</g>
</g>
<!-- Node8&#45;&gt;Node5 -->
<g id="edge9_Node000008_Node000005" class="edge">
<title>Node8&#45;&gt;Node5</title>
<g id="a_edge9_Node000008_Node000005"><a xlink:title=" ">
<path fill="none" stroke="#63b8ff" d="M253.35,-96.48C269.04,-102.02 288.18,-108.77 303.57,-114.19"/>
<polygon fill="#63b8ff" stroke="#63b8ff" points="301.95,-117.69 312.54,-117.71 304.28,-111.08 301.95,-117.69"/>
</a>
</g>
</g>
<!-- Node8&#45;&gt;Node6 -->
<g id="edge10_Node000008_Node000006" class="edge">
<title>Node8&#45;&gt;Node6</title>
<g id="a_edge10_Node000008_Node000006"><a xlink:title=" ">
<path fill="none" stroke="#63b8ff" d="M253.35,-75.52C265.13,-71.36 278.85,-66.52 291.47,-62.07"/>
<polygon fill="#63b8ff" stroke="#63b8ff" points="292.48,-65.08 300.74,-58.45 290.15,-58.48 292.48,-65.08"/>
</a>
</g>
</g>
<!-- Node8&#45;&gt;Node7 -->
<g id="edge11_Node000008_Node000007" class="edge">
<title>Node8&#45;&gt;Node7</title>
<g id="a_edge11_Node000008_Node000007"><a xlink:title=" ">
<path fill="none" stroke="#63b8ff" d="M236.25,-75.6C250.85,-63.77 275.79,-44.12 298.5,-29 300.01,-28 301.57,-26.99 303.16,-25.99"/>
<polygon fill="#63b8ff" stroke="#63b8ff" points="304.59,-28.61 311.35,-20.45 300.98,-22.62 304.59,-28.61"/>
</a>
</g>
</g>
<!-- Node9 -->
<g id="Node000009" class="node">
<title>Node9</title>
<g id="a_Node000009"><a xlink:href="ft__putnbr__base_8c.html#ab03731fe550c176eb1d4f0a6f087cce6" target="_top" xlink:title="Affect a number to an allocated in a certain numbering.">
<polygon fill="white" stroke="#666666" points="456.5,-96 402.25,-96 402.25,-76 456.5,-76 456.5,-96"/>
<text text-anchor="middle" x="429.38" y="-82.5" font-family="Helvetica,sans-Serif" font-size="10.00">ft_wbase</text>
</a>
</g>
</g>
<!-- Node8&#45;&gt;Node9 -->
<g id="edge12_Node000008_Node000009" class="edge">
<title>Node8&#45;&gt;Node9</title>
<g id="a_edge12_Node000008_Node000009"><a xlink:title=" ">
<path fill="none" stroke="#63b8ff" d="M262.62,-86C299.63,-86 354.87,-86 391.25,-86"/>
<polygon fill="#63b8ff" stroke="#63b8ff" points="390.9,-89.5 400.9,-86 390.9,-82.5 390.9,-89.5"/>
</a>
</g>
</g>
<!-- Node9&#45;&gt;Node4 -->
<g id="edge13_Node000009_Node000004" class="edge">
<title>Node9&#45;&gt;Node4</title>
<g id="a_edge13_Node000009_Node000004"><a xlink:title=" ">
<path fill="none" stroke="#63b8ff" d="M456.76,-94.55C464.64,-97.11 473.41,-99.95 481.76,-102.66"/>
<polygon fill="#63b8ff" stroke="#63b8ff" points="480.41,-106.22 491,-105.98 482.57,-99.56 480.41,-106.22"/>
</a>
</g>
</g>
<!-- Node9&#45;&gt;Node9 -->
<g id="edge14_Node000009_Node000009" class="edge">
<title>Node9&#45;&gt;Node9</title>
<g id="a_edge14_Node000009_Node000009"><a xlink:title=" ">
<path fill="none" stroke="#63b8ff" d="M415.33,-96.34C409.33,-104.98 414.01,-114 429.38,-114 438.02,-114 443.28,-111.14 445.16,-107.11"/>
<polygon fill="#63b8ff" stroke="#63b8ff" points="448.47,-106.65 443.42,-97.34 441.56,-107.77 448.47,-106.65"/>
</a>
</g>
</g>
</g>
</svg>
