<?xml version="1.0" encoding="UTF-8" standalone="no"?>
<!DOCTYPE svg PUBLIC "-//W3C//DTD SVG 1.1//EN"
 "http://www.w3.org/Graphics/SVG/1.1/DTD/svg11.dtd">
<!-- Generated by graphviz version 8.1.0 (20230707.0739)
 -->
<!-- Title: ft_cy Pages: 1 -->
<svg width="375pt" height="218pt"
 viewBox="0.00 0.00 375.00 218.00" xmlns="http://www.w3.org/2000/svg" xmlns:xlink="http://www.w3.org/1999/xlink">
<g id="graph0" class="graph" transform="scale(1 1) rotate(0) translate(4 214)">
<title>ft_cy</title>
<!-- Node1 -->
<g id="Node000001" class="node">
<title>Node1</title>
<g id="a_Node000001"><a xlink:title="Calculation of a number of characters needed for printing a given number.">
<polygon fill="#999999" stroke="#666666" points="367,-115 330,-115 330,-95 367,-95 367,-115"/>
<text text-anchor="middle" x="348.5" y="-101.5" font-family="Helvetica,sans-Serif" font-size="10.00">ft_cy</text>
</a>
</g>
</g>
<!-- Node2 -->
<g id="Node000002" class="node">
<title>Node2</title>
<g id="a_Node000002"><a xlink:href="ft__countnbr_8c.html#a859bc0b734643880ab47679eba30601b" target="_top" xlink:title="Calculation of the length needed for a number replacement.">
<polygon fill="white" stroke="#666666" points="288.75,-210 198.5,-210 198.5,-190 288.75,-190 288.75,-210"/>
<text text-anchor="middle" x="243.62" y="-196.5" font-family="Helvetica,sans-Serif" font-size="10.00">ft_countnbr_base</text>
</a>
</g>
</g>
<!-- Node1&#45;&gt;Node2 -->
<g id="edge1_Node000001_Node000002" class="edge">
<title>Node1&#45;&gt;Node2</title>
<g id="a_edge1_Node000001_Node000002"><a xlink:title=" ">
<path fill="none" stroke="#63b8ff" d="M337.83,-124.84C328.65,-141.83 313.39,-165.88 294,-181 289.65,-184.39 284.63,-187.23 279.49,-189.6"/>
<polygon fill="#63b8ff" stroke="#63b8ff" points="341.27,-126.81 342.74,-116.32 335.05,-123.6 341.27,-126.81"/>
</a>
</g>
</g>
<!-- Node4 -->
<g id="Node000004" class="node">
<title>Node4</title>
<g id="a_Node000004"><a xlink:href="ft__countnbr_8c.html#a9e1870678149058ea19908d375dd37c3" target="_top" xlink:title="Calculation of the length needed for a memory address replacement.">
<polygon fill="white" stroke="#666666" points="294,-172 193.25,-172 193.25,-152 294,-152 294,-172"/>
<text text-anchor="middle" x="243.62" y="-158.5" font-family="Helvetica,sans-Serif" font-size="10.00">ft_countnbr_base_p</text>
</a>
</g>
</g>
<!-- Node1&#45;&gt;Node4 -->
<g id="edge3_Node000001_Node000004" class="edge">
<title>Node1&#45;&gt;Node4</title>
<g id="a_edge3_Node000001_Node000004"><a xlink:title=" ">
<path fill="none" stroke="#63b8ff" d="M322.73,-120.99C313.79,-126.57 303.55,-132.75 294,-138 285.31,-142.77 275.54,-147.63 266.99,-151.71"/>
<polygon fill="#63b8ff" stroke="#63b8ff" points="324.25,-123.54 330.83,-115.24 320.51,-117.63 324.25,-123.54"/>
</a>
</g>
</g>
<!-- Node6 -->
<g id="Node000006" class="node">
<title>Node6</title>
<g id="a_Node000006"><a xlink:href="ft__putnbr__base_8c.html#ab5d9d7094e8c0bdcd45b2ca213487b05" target="_top" xlink:title="Manage length and precision specifier before a number replacement.">
<polygon fill="white" stroke="#666666" points="152,-115 98.5,-115 98.5,-95 152,-95 152,-115"/>
<text text-anchor="middle" x="125.25" y="-101.5" font-family="Helvetica,sans-Serif" font-size="10.00">ft_fill_left</text>
</a>
</g>
</g>
<!-- Node1&#45;&gt;Node6 -->
<g id="edge5_Node000001_Node000006" class="edge">
<title>Node1&#45;&gt;Node6</title>
<g id="a_edge5_Node000001_Node000006"><a xlink:title=" ">
<path fill="none" stroke="#63b8ff" d="M318.89,-105C275.64,-105 194.23,-105 152.45,-105"/>
<polygon fill="#63b8ff" stroke="#63b8ff" points="318.77,-108.5 328.77,-105 318.77,-101.5 318.77,-108.5"/>
</a>
</g>
</g>
<!-- Node8 -->
<g id="Node000008" class="node">
<title>Node8</title>
<g id="a_Node000008"><a xlink:href="ft__putnbr__base__p_8c.html#a18fa0ffb2b234b9ab48a8c660625d677" target="_top" xlink:title="Manage length and precision specifier before an memory address replacement.">
<polygon fill="white" stroke="#666666" points="157.25,-39 93.25,-39 93.25,-19 157.25,-19 157.25,-39"/>
<text text-anchor="middle" x="125.25" y="-25.5" font-family="Helvetica,sans-Serif" font-size="10.00">ft_fill_left_p</text>
</a>
</g>
</g>
<!-- Node1&#45;&gt;Node8 -->
<g id="edge7_Node000001_Node000008" class="edge">
<title>Node1&#45;&gt;Node8</title>
<g id="a_edge7_Node000001_Node000008"><a xlink:title=" ">
<path fill="none" stroke="#63b8ff" d="M327.62,-88.02C318.01,-80.58 305.98,-72.35 294,-67 249.01,-46.9 192.33,-36.93 157.72,-32.37"/>
<polygon fill="#63b8ff" stroke="#63b8ff" points="325.03,-91.23 335.01,-94.78 329.42,-85.78 325.03,-91.23"/>
</a>
</g>
</g>
<!-- Node10 -->
<g id="Node000010" class="node">
<title>Node10</title>
<g id="a_Node000010"><a xlink:href="ft__putnbr__base_8c.html#a24815d094f34d9eb2a1288d10b8bd359" target="_top" xlink:title="Manage the sign before a number replacement.">
<polygon fill="white" stroke="#666666" points="283.5,-96 203.75,-96 203.75,-76 283.5,-76 283.5,-96"/>
<text text-anchor="middle" x="243.62" y="-82.5" font-family="Helvetica,sans-Serif" font-size="10.00">ft_putnbr_base</text>
</a>
</g>
</g>
<!-- Node1&#45;&gt;Node10 -->
<g id="edge9_Node000001_Node000010" class="edge">
<title>Node1&#45;&gt;Node10</title>
<g id="a_edge9_Node000001_Node000010"><a xlink:title=" ">
<path fill="none" stroke="#63b8ff" d="M318.94,-99.72C308.02,-97.71 295.38,-95.37 283.65,-93.21"/>
<polygon fill="#63b8ff" stroke="#63b8ff" points="318.11,-103.32 328.58,-101.69 319.38,-96.43 318.11,-103.32"/>
</a>
</g>
</g>
<!-- Node11 -->
<g id="Node000011" class="node">
<title>Node11</title>
<g id="a_Node000011"><a xlink:href="ft__putnbr__base__p_8c.html#a2f33d4ba2e17b7b581850c0bf068afdf" target="_top" xlink:title="Affect a memory address in an certain numbering.">
<polygon fill="white" stroke="#666666" points="288.75,-20 198.5,-20 198.5,0 288.75,0 288.75,-20"/>
<text text-anchor="middle" x="243.62" y="-6.5" font-family="Helvetica,sans-Serif" font-size="10.00">ft_putnbr_base_p</text>
</a>
</g>
</g>
<!-- Node1&#45;&gt;Node11 -->
<g id="edge11_Node000001_Node000011" class="edge">
<title>Node1&#45;&gt;Node11</title>
<g id="a_edge11_Node000001_Node000011"><a xlink:title=" ">
<path fill="none" stroke="#63b8ff" d="M336.32,-85.4C326.69,-69.88 311.59,-48.48 294,-34 287.45,-28.61 279.49,-24.07 271.89,-20.43"/>
<polygon fill="#63b8ff" stroke="#63b8ff" points="333.69,-86.82 341.83,-93.61 339.7,-83.23 333.69,-86.82"/>
</a>
</g>
</g>
<!-- Node3 -->
<g id="Node000003" class="node">
<title>Node3</title>
<g id="a_Node000003"><a xlink:href="ft__count_8c.html#a0b2e19ddcceba19062728282b98505dc" target="_top" xlink:title="Calculation of the length of a diuxX replacement.">
<polygon fill="white" stroke="#666666" points="155.75,-210 94.75,-210 94.75,-190 155.75,-190 155.75,-210"/>
<text text-anchor="middle" x="125.25" y="-196.5" font-family="Helvetica,sans-Serif" font-size="10.00">ft_count_d</text>
</a>
</g>
</g>
<!-- Node2&#45;&gt;Node3 -->
<g id="edge2_Node000002_Node000003" class="edge">
<title>Node2&#45;&gt;Node3</title>
<g id="a_edge2_Node000002_Node000003"><a xlink:title=" ">
<path fill="none" stroke="#63b8ff" d="M187.54,-200C176.67,-200 165.67,-200 156.03,-200"/>
<polygon fill="#63b8ff" stroke="#63b8ff" points="187.3,-203.5 197.3,-200 187.3,-196.5 187.3,-203.5"/>
</a>
</g>
</g>
<!-- Node5 -->
<g id="Node000005" class="node">
<title>Node5</title>
<g id="a_Node000005"><a xlink:href="ft__count_8c.html#aa261b68672789bbad82f851784b29eb5" target="_top" xlink:title="Calculation of the length of a pointer replacement.">
<polygon fill="white" stroke="#666666" points="155.75,-172 94.75,-172 94.75,-152 155.75,-152 155.75,-172"/>
<text text-anchor="middle" x="125.25" y="-158.5" font-family="Helvetica,sans-Serif" font-size="10.00">ft_count_p</text>
</a>
</g>
</g>
<!-- Node4&#45;&gt;Node5 -->
<g id="edge4_Node000004_Node000005" class="edge">
<title>Node4&#45;&gt;Node5</title>
<g id="a_edge4_Node000004_Node000005"><a xlink:title=" ">
<path fill="none" stroke="#63b8ff" d="M182.23,-162C173.09,-162 164.02,-162 155.93,-162"/>
<polygon fill="#63b8ff" stroke="#63b8ff" points="181.93,-165.5 191.93,-162 181.93,-158.5 181.93,-165.5"/>
</a>
</g>
</g>
<!-- Node7 -->
<g id="Node000007" class="node">
<title>Node7</title>
<g id="a_Node000007"><a xlink:href="ft__write_8c.html#acb5c93b91b86ca3ea395b496eef6850d" target="_top" xlink:title="affect the output of a number replacement">
<polygon fill="white" stroke="#666666" points="57.25,-115 0,-115 0,-95 57.25,-95 57.25,-115"/>
<text text-anchor="middle" x="28.62" y="-101.5" font-family="Helvetica,sans-Serif" font-size="10.00">ft_write_d</text>
</a>
</g>
</g>
<!-- Node6&#45;&gt;Node7 -->
<g id="edge6_Node000006_Node000007" class="edge">
<title>Node6&#45;&gt;Node7</title>
<g id="a_edge6_Node000006_Node000007"><a xlink:title=" ">
<path fill="none" stroke="#63b8ff" d="M87.35,-105C77.47,-105 66.95,-105 57.63,-105"/>
<polygon fill="#63b8ff" stroke="#63b8ff" points="87.14,-108.5 97.14,-105 87.14,-101.5 87.14,-108.5"/>
</a>
</g>
</g>
<!-- Node9 -->
<g id="Node000009" class="node">
<title>Node9</title>
<g id="a_Node000009"><a xlink:href="ft__write_8c.html#a905ddf384a970ba04f14b3201c110783" target="_top" xlink:title="affect the output of a pointer replacement">
<polygon fill="white" stroke="#666666" points="57.25,-39 0,-39 0,-19 57.25,-19 57.25,-39"/>
<text text-anchor="middle" x="28.62" y="-25.5" font-family="Helvetica,sans-Serif" font-size="10.00">ft_write_p</text>
</a>
</g>
</g>
<!-- Node8&#45;&gt;Node9 -->
<g id="edge8_Node000008_Node000009" class="edge">
<title>Node8&#45;&gt;Node9</title>
<g id="a_edge8_Node000008_Node000009"><a xlink:title=" ">
<path fill="none" stroke="#63b8ff" d="M82.27,-29C73.93,-29 65.38,-29 57.65,-29"/>
<polygon fill="#63b8ff" stroke="#63b8ff" points="82,-32.5 92,-29 82,-25.5 82,-32.5"/>
</a>
</g>
</g>
<!-- Node10&#45;&gt;Node6 -->
<g id="edge10_Node000010_Node000006" class="edge">
<title>Node10&#45;&gt;Node6</title>
<g id="a_edge10_Node000010_Node000006"><a xlink:title=" ">
<path fill="none" stroke="#63b8ff" d="M193.01,-94.1C178.97,-96.39 164.25,-98.8 152.22,-100.76"/>
<polygon fill="#63b8ff" stroke="#63b8ff" points="193.24,-97.45 202.55,-92.38 192.12,-90.54 193.24,-97.45"/>
</a>
</g>
</g>
<!-- Node11&#45;&gt;Node8 -->
<g id="edge12_Node000011_Node000008" class="edge">
<title>Node11&#45;&gt;Node8</title>
<g id="a_edge12_Node000011_Node000008"><a xlink:title=" ">
<path fill="none" stroke="#63b8ff" d="M187.61,-18.98C177.25,-20.67 166.75,-22.39 157.44,-23.91"/>
<polygon fill="#63b8ff" stroke="#63b8ff" points="187.99,-22.3 197.3,-17.24 186.86,-15.39 187.99,-22.3"/>
</a>
</g>
</g>
</g>
</svg>
