<?xml version="1.0" encoding="UTF-8" standalone="no"?>
<!DOCTYPE svg PUBLIC "-//W3C//DTD SVG 1.1//EN"
 "http://www.w3.org/Graphics/SVG/1.1/DTD/svg11.dtd">
<!-- Generated by graphviz version 8.1.0 (20230707.0739)
 -->
<!-- Title: ft_putnbr_base Pages: 1 -->
<svg width="368pt" height="117pt"
 viewBox="0.00 0.00 368.25 117.30" xmlns="http://www.w3.org/2000/svg" xmlns:xlink="http://www.w3.org/1999/xlink">
<g id="graph0" class="graph" transform="scale(1 1) rotate(0) translate(4 113.3)">
<title>ft_putnbr_base</title>
<!-- Node1 -->
<g id="Node000001" class="node">
<title>Node1</title>
<g id="a_Node000001"><a xlink:title="Manage the sign before a number replacement.">
<polygon fill="#999999" stroke="#666666" points="79.75,-52.3 0,-52.3 0,-32.3 79.75,-32.3 79.75,-52.3"/>
<text text-anchor="middle" x="39.88" y="-38.8" font-family="Helvetica,sans-Serif" font-size="10.00">ft_putnbr_base</text>
</a>
</g>
</g>
<!-- Node2 -->
<g id="Node000002" class="node">
<title>Node2</title>
<g id="a_Node000002"><a xlink:href="ft__putnbr__base_8c.html#a817a9932ef93b9a42819eafa88b400e6" target="_top" xlink:title="Calculation of a number of characters needed for printing a given number.">
<polygon fill="white" stroke="#666666" points="168.12,-109.3 131.12,-109.3 131.12,-89.3 168.12,-89.3 168.12,-109.3"/>
<text text-anchor="middle" x="149.62" y="-95.8" font-family="Helvetica,sans-Serif" font-size="10.00">ft_cy</text>
</a>
</g>
</g>
<!-- Node1&#45;&gt;Node2 -->
<g id="edge1_Node000001_Node000002" class="edge">
<title>Node1&#45;&gt;Node2</title>
<g id="a_edge1_Node000001_Node000002"><a xlink:title=" ">
<path fill="none" stroke="#63b8ff" d="M60.64,-52.76C77.63,-61.75 102.32,-74.81 121.22,-84.81"/>
<polygon fill="#63b8ff" stroke="#63b8ff" points="119.3,-88.28 129.78,-89.86 122.57,-82.09 119.3,-88.28"/>
</a>
</g>
</g>
<!-- Node5 -->
<g id="Node000005" class="node">
<title>Node5</title>
<g id="a_Node000005"><a xlink:href="ft__fill__caract_8c.html#aab8e86cef846e237daf0239698e98ebd" target="_top" xlink:title="Affect repeated character to an allocated string.">
<polygon fill="white" stroke="#666666" points="183.5,-71.3 115.75,-71.3 115.75,-51.3 183.5,-51.3 183.5,-71.3"/>
<text text-anchor="middle" x="149.62" y="-57.8" font-family="Helvetica,sans-Serif" font-size="10.00">ft_fill_caract</text>
</a>
</g>
</g>
<!-- Node1&#45;&gt;Node5 -->
<g id="edge4_Node000001_Node000005" class="edge">
<title>Node1&#45;&gt;Node5</title>
<g id="a_edge4_Node000001_Node000005"><a xlink:title=" ">
<path fill="none" stroke="#63b8ff" d="M80.08,-49.21C88.02,-50.62 96.43,-52.1 104.52,-53.53"/>
<polygon fill="#63b8ff" stroke="#63b8ff" points="103.85,-57.14 114.31,-55.43 105.07,-50.24 103.85,-57.14"/>
</a>
</g>
</g>
<!-- Node6 -->
<g id="Node000006" class="node">
<title>Node6</title>
<g id="a_Node000006"><a xlink:href="ft__isdigit_8c.html#abc1bdaeaea0d28d9499f5f13194ca0ca" target="_top" xlink:title="Replication of the max function.">
<polygon fill="white" stroke="#666666" points="172.25,-33.3 127,-33.3 127,-13.3 172.25,-13.3 172.25,-33.3"/>
<text text-anchor="middle" x="149.62" y="-19.8" font-family="Helvetica,sans-Serif" font-size="10.00">ft_max</text>
</a>
</g>
</g>
<!-- Node1&#45;&gt;Node6 -->
<g id="edge5_Node000001_Node000006" class="edge">
<title>Node1&#45;&gt;Node6</title>
<g id="a_edge5_Node000001_Node000006"><a xlink:title=" ">
<path fill="none" stroke="#63b8ff" d="M80.08,-35.39C91.81,-33.32 104.55,-31.07 115.83,-29.08"/>
<polygon fill="#63b8ff" stroke="#63b8ff" points="116.29,-32.38 125.53,-27.2 115.07,-25.49 116.29,-32.38"/>
</a>
</g>
</g>
<!-- Node7 -->
<g id="Node000007" class="node">
<title>Node7</title>
<g id="a_Node000007"><a xlink:href="ft__putnbr__base_8c.html#ab03731fe550c176eb1d4f0a6f087cce6" target="_top" xlink:title="Affect a number to an allocated in a certain numbering.">
<polygon fill="white" stroke="#666666" points="273.75,-24.3 219.5,-24.3 219.5,-4.3 273.75,-4.3 273.75,-24.3"/>
<text text-anchor="middle" x="246.62" y="-10.8" font-family="Helvetica,sans-Serif" font-size="10.00">ft_wbase</text>
</a>
</g>
</g>
<!-- Node1&#45;&gt;Node7 -->
<g id="edge6_Node000001_Node000007" class="edge">
<title>Node1&#45;&gt;Node7</title>
<g id="a_edge6_Node000001_Node000007"><a xlink:title=" ">
<path fill="none" stroke="#63b8ff" d="M56.1,-31.86C70.67,-22.55 93.63,-9.59 115.75,-4.3 146.45,3.04 182.27,-0.59 208.51,-5.42"/>
<polygon fill="#63b8ff" stroke="#63b8ff" points="207.64,-9.01 218.13,-7.53 209,-2.15 207.64,-9.01"/>
</a>
</g>
</g>
<!-- Node3 -->
<g id="Node000003" class="node">
<title>Node3</title>
<g id="a_Node000003"><a xlink:href="ft__putnbr__base_8c.html#a522e39ec68ab1b0f1e65eae477f9167c" target="_top" xlink:title="Calculation of a number of digit.">
<polygon fill="white" stroke="#666666" points="265.12,-94.3 228.12,-94.3 228.12,-74.3 265.12,-74.3 265.12,-94.3"/>
<text text-anchor="middle" x="246.62" y="-80.8" font-family="Helvetica,sans-Serif" font-size="10.00">ft_ch</text>
</a>
</g>
</g>
<!-- Node2&#45;&gt;Node3 -->
<g id="edge2_Node000002_Node000003" class="edge">
<title>Node2&#45;&gt;Node3</title>
<g id="a_edge2_Node000002_Node000003"><a xlink:title=" ">
<path fill="none" stroke="#63b8ff" d="M168.49,-96.48C182.16,-94.32 201.28,-91.3 217.06,-88.81"/>
<polygon fill="#63b8ff" stroke="#63b8ff" points="217.5,-92.13 226.84,-87.11 216.41,-85.21 217.5,-92.13"/>
</a>
</g>
</g>
<!-- Node4 -->
<g id="Node000004" class="node">
<title>Node4</title>
<g id="a_Node000004"><a xlink:href="ft__strlen_8c.html#a828402378653640f545a4be2e00e92f9" target="_top" xlink:title="Replication of the strlen function.">
<polygon fill="white" stroke="#666666" points="360.25,-52.3 309.75,-52.3 309.75,-32.3 360.25,-32.3 360.25,-52.3"/>
<text text-anchor="middle" x="335" y="-38.8" font-family="Helvetica,sans-Serif" font-size="10.00">ft_strlen</text>
</a>
</g>
</g>
<!-- Node3&#45;&gt;Node4 -->
<g id="edge3_Node000003_Node000004" class="edge">
<title>Node3&#45;&gt;Node4</title>
<g id="a_edge3_Node000003_Node000004"><a xlink:title=" ">
<path fill="none" stroke="#63b8ff" d="M265.52,-75.6C276.28,-70.37 290.28,-63.56 302.81,-57.47"/>
<polygon fill="#63b8ff" stroke="#63b8ff" points="304,-60.3 311.46,-52.78 300.93,-54 304,-60.3"/>
</a>
</g>
</g>
<!-- Node7&#45;&gt;Node4 -->
<g id="edge7_Node000007_Node000004" class="edge">
<title>Node7&#45;&gt;Node4</title>
<g id="a_edge7_Node000007_Node000004"><a xlink:title=" ">
<path fill="none" stroke="#63b8ff" d="M274.01,-22.85C281.89,-25.41 290.66,-28.25 299.01,-30.96"/>
<polygon fill="#63b8ff" stroke="#63b8ff" points="297.66,-34.52 308.25,-34.28 299.82,-27.87 297.66,-34.52"/>
</a>
</g>
</g>
<!-- Node7&#45;&gt;Node7 -->
<g id="edge8_Node000007_Node000007" class="edge">
<title>Node7&#45;&gt;Node7</title>
<g id="a_edge8_Node000007_Node000007"><a xlink:title=" ">
<path fill="none" stroke="#63b8ff" d="M232.58,-24.64C226.58,-33.28 231.26,-42.3 246.62,-42.3 255.27,-42.3 260.53,-39.45 262.41,-35.41"/>
<polygon fill="#63b8ff" stroke="#63b8ff" points="265.72,-34.95 260.67,-25.64 258.81,-36.07 265.72,-34.95"/>
</a>
</g>
</g>
</g>
</svg>
