<?xml version="1.0" encoding="UTF-8" standalone="no"?>
<!DOCTYPE svg PUBLIC "-//W3C//DTD SVG 1.1//EN"
 "http://www.w3.org/Graphics/SVG/1.1/DTD/svg11.dtd">
<!-- Generated by graphviz version 8.1.0 (20230707.0739)
 -->
<!-- Title: ft_ch Pages: 1 -->
<svg width="448pt" height="276pt"
 viewBox="0.00 0.00 448.00 276.05" xmlns="http://www.w3.org/2000/svg" xmlns:xlink="http://www.w3.org/1999/xlink">
<g id="graph0" class="graph" transform="scale(1 1) rotate(0) translate(4 272.05)">
<title>ft_ch</title>
<!-- Node1 -->
<g id="Node000001" class="node">
<title>Node1</title>
<g id="a_Node000001"><a xlink:title="Calculation of a number of digit.">
<polygon fill="#999999" stroke="#666666" points="440,-173.05 403,-173.05 403,-153.05 440,-153.05 440,-173.05"/>
<text text-anchor="middle" x="421.5" y="-159.55" font-family="Helvetica,sans-Serif" font-size="10.00">ft_ch</text>
</a>
</g>
</g>
<!-- Node2 -->
<g id="Node000002" class="node">
<title>Node2</title>
<g id="a_Node000002"><a xlink:href="ft__countnbr_8c.html#a859bc0b734643880ab47679eba30601b" target="_top" xlink:title="Calculation of the length needed for a number replacement.">
<polygon fill="white" stroke="#666666" points="288.75,-268.05 198.5,-268.05 198.5,-248.05 288.75,-248.05 288.75,-268.05"/>
<text text-anchor="middle" x="243.62" y="-254.55" font-family="Helvetica,sans-Serif" font-size="10.00">ft_countnbr_base</text>
</a>
</g>
</g>
<!-- Node1&#45;&gt;Node2 -->
<g id="edge1_Node000001_Node000002" class="edge">
<title>Node1&#45;&gt;Node2</title>
<g id="a_edge1_Node000001_Node000002"><a xlink:title=" ">
<path fill="none" stroke="#63b8ff" d="M398.45,-179.75C388.97,-186.65 377.64,-194.54 367,-201.05 335.79,-220.13 327.34,-224.01 294,-239.05 287.39,-242.03 280.15,-244.98 273.31,-247.64"/>
<polygon fill="#63b8ff" stroke="#63b8ff" points="400.26,-182.02 406.22,-173.26 396.09,-176.39 400.26,-182.02"/>
</a>
</g>
</g>
<!-- Node4 -->
<g id="Node000004" class="node">
<title>Node4</title>
<g id="a_Node000004"><a xlink:href="ft__countnbr_8c.html#a9e1870678149058ea19908d375dd37c3" target="_top" xlink:title="Calculation of the length needed for a memory address replacement.">
<polygon fill="white" stroke="#666666" points="294,-230.05 193.25,-230.05 193.25,-210.05 294,-210.05 294,-230.05"/>
<text text-anchor="middle" x="243.62" y="-216.55" font-family="Helvetica,sans-Serif" font-size="10.00">ft_countnbr_base_p</text>
</a>
</g>
</g>
<!-- Node1&#45;&gt;Node4 -->
<g id="edge3_Node000001_Node000004" class="edge">
<title>Node1&#45;&gt;Node4</title>
<g id="a_edge3_Node000001_Node000004"><a xlink:title=" ">
<path fill="none" stroke="#63b8ff" d="M392.53,-173.22C384.33,-176.14 375.32,-179.28 367,-182.05 337.66,-191.81 304.1,-202.17 279.56,-209.61"/>
<polygon fill="#63b8ff" stroke="#63b8ff" points="393.5,-176.23 401.73,-169.56 391.13,-169.64 393.5,-176.23"/>
</a>
</g>
</g>
<!-- Node6 -->
<g id="Node000006" class="node">
<title>Node6</title>
<g id="a_Node000006"><a xlink:href="ft__putnbr__base_8c.html#a817a9932ef93b9a42819eafa88b400e6" target="_top" xlink:title="Calculation of a number of characters needed for printing a given number.">
<polygon fill="white" stroke="#666666" points="367,-173.05 330,-173.05 330,-153.05 367,-153.05 367,-173.05"/>
<text text-anchor="middle" x="348.5" y="-159.55" font-family="Helvetica,sans-Serif" font-size="10.00">ft_cy</text>
</a>
</g>
</g>
<!-- Node1&#45;&gt;Node6 -->
<g id="edge5_Node000001_Node000006" class="edge">
<title>Node1&#45;&gt;Node6</title>
<g id="a_edge5_Node000001_Node000006"><a xlink:title=" ">
<path fill="none" stroke="#63b8ff" d="M391.74,-163.05C383.42,-163.05 374.59,-163.05 367.16,-163.05"/>
<polygon fill="#63b8ff" stroke="#63b8ff" points="391.58,-166.55 401.58,-163.05 391.58,-159.55 391.58,-166.55"/>
</a>
</g>
</g>
<!-- Node7 -->
<g id="Node000007" class="node">
<title>Node7</title>
<g id="a_Node000007"><a xlink:href="ft__putnbr__base_8c.html#ab5d9d7094e8c0bdcd45b2ca213487b05" target="_top" xlink:title="Manage length and precision specifier before a number replacement.">
<polygon fill="white" stroke="#666666" points="152,-154.05 98.5,-154.05 98.5,-134.05 152,-134.05 152,-154.05"/>
<text text-anchor="middle" x="125.25" y="-140.55" font-family="Helvetica,sans-Serif" font-size="10.00">ft_fill_left</text>
</a>
</g>
</g>
<!-- Node1&#45;&gt;Node7 -->
<g id="edge16_Node000001_Node000007" class="edge">
<title>Node1&#45;&gt;Node7</title>
<g id="a_edge16_Node000001_Node000007"><a xlink:title=" ">
<path fill="none" stroke="#63b8ff" d="M392.55,-151.11C384.46,-148.2 375.51,-145.52 367,-144.05 289.77,-130.74 196.52,-136.93 152.15,-141.19"/>
<polygon fill="#63b8ff" stroke="#63b8ff" points="391,-154.64 401.59,-154.96 393.51,-148.11 391,-154.64"/>
</a>
</g>
</g>
<!-- Node9 -->
<g id="Node000009" class="node">
<title>Node9</title>
<g id="a_Node000009"><a xlink:href="ft__putnbr__base__p_8c.html#a18fa0ffb2b234b9ab48a8c660625d677" target="_top" xlink:title="Manage length and precision specifier before an memory address replacement.">
<polygon fill="white" stroke="#666666" points="157.25,-40.05 93.25,-40.05 93.25,-20.05 157.25,-20.05 157.25,-40.05"/>
<text text-anchor="middle" x="125.25" y="-26.55" font-family="Helvetica,sans-Serif" font-size="10.00">ft_fill_left_p</text>
</a>
</g>
</g>
<!-- Node1&#45;&gt;Node9 -->
<g id="edge17_Node000001_Node000009" class="edge">
<title>Node1&#45;&gt;Node9</title>
<g id="a_edge17_Node000001_Node000009"><a xlink:title=" ">
<path fill="none" stroke="#63b8ff" d="M411.23,-143.15C393.88,-108.61 352.88,-38.65 294,-11.05 246.89,11.03 184.47,-6.64 150.61,-19.56"/>
<polygon fill="#63b8ff" stroke="#63b8ff" points="408.32,-144.18 415.84,-151.64 414.62,-141.12 408.32,-144.18"/>
</a>
</g>
</g>
<!-- Node3 -->
<g id="Node000003" class="node">
<title>Node3</title>
<g id="a_Node000003"><a xlink:href="ft__count_8c.html#a0b2e19ddcceba19062728282b98505dc" target="_top" xlink:title="Calculation of the length of a diuxX replacement.">
<polygon fill="white" stroke="#666666" points="155.75,-268.05 94.75,-268.05 94.75,-248.05 155.75,-248.05 155.75,-268.05"/>
<text text-anchor="middle" x="125.25" y="-254.55" font-family="Helvetica,sans-Serif" font-size="10.00">ft_count_d</text>
</a>
</g>
</g>
<!-- Node2&#45;&gt;Node3 -->
<g id="edge2_Node000002_Node000003" class="edge">
<title>Node2&#45;&gt;Node3</title>
<g id="a_edge2_Node000002_Node000003"><a xlink:title=" ">
<path fill="none" stroke="#63b8ff" d="M187.54,-258.05C176.67,-258.05 165.67,-258.05 156.03,-258.05"/>
<polygon fill="#63b8ff" stroke="#63b8ff" points="187.3,-261.55 197.3,-258.05 187.3,-254.55 187.3,-261.55"/>
</a>
</g>
</g>
<!-- Node5 -->
<g id="Node000005" class="node">
<title>Node5</title>
<g id="a_Node000005"><a xlink:href="ft__count_8c.html#aa261b68672789bbad82f851784b29eb5" target="_top" xlink:title="Calculation of the length of a pointer replacement.">
<polygon fill="white" stroke="#666666" points="155.75,-230.05 94.75,-230.05 94.75,-210.05 155.75,-210.05 155.75,-230.05"/>
<text text-anchor="middle" x="125.25" y="-216.55" font-family="Helvetica,sans-Serif" font-size="10.00">ft_count_p</text>
</a>
</g>
</g>
<!-- Node4&#45;&gt;Node5 -->
<g id="edge4_Node000004_Node000005" class="edge">
<title>Node4&#45;&gt;Node5</title>
<g id="a_edge4_Node000004_Node000005"><a xlink:title=" ">
<path fill="none" stroke="#63b8ff" d="M182.23,-220.05C173.09,-220.05 164.02,-220.05 155.93,-220.05"/>
<polygon fill="#63b8ff" stroke="#63b8ff" points="181.93,-223.55 191.93,-220.05 181.93,-216.55 181.93,-223.55"/>
</a>
</g>
</g>
<!-- Node6&#45;&gt;Node2 -->
<g id="edge6_Node000006_Node000002" class="edge">
<title>Node6&#45;&gt;Node2</title>
<g id="a_edge6_Node000006_Node000002"><a xlink:title=" ">
<path fill="none" stroke="#63b8ff" d="M337.83,-182.89C328.65,-199.88 313.39,-223.93 294,-239.05 289.65,-242.44 284.63,-245.28 279.49,-247.65"/>
<polygon fill="#63b8ff" stroke="#63b8ff" points="341.27,-184.86 342.74,-174.37 335.05,-181.65 341.27,-184.86"/>
</a>
</g>
</g>
<!-- Node6&#45;&gt;Node4 -->
<g id="edge7_Node000006_Node000004" class="edge">
<title>Node6&#45;&gt;Node4</title>
<g id="a_edge7_Node000006_Node000004"><a xlink:title=" ">
<path fill="none" stroke="#63b8ff" d="M326.18,-180.06C316.68,-187.13 305.14,-195.07 294,-201.05 288.17,-204.18 281.72,-207.05 275.45,-209.56"/>
<polygon fill="#63b8ff" stroke="#63b8ff" points="328.09,-182.23 333.9,-173.38 323.83,-176.68 328.09,-182.23"/>
</a>
</g>
</g>
<!-- Node6&#45;&gt;Node7 -->
<g id="edge8_Node000006_Node000007" class="edge">
<title>Node6&#45;&gt;Node7</title>
<g id="a_edge8_Node000006_Node000007"><a xlink:title=" ">
<path fill="none" stroke="#63b8ff" d="M318.89,-160.59C275.64,-156.88 194.23,-149.89 152.45,-146.3"/>
<polygon fill="#63b8ff" stroke="#63b8ff" points="318.51,-164.16 328.77,-161.53 319.1,-157.18 318.51,-164.16"/>
</a>
</g>
</g>
<!-- Node6&#45;&gt;Node9 -->
<g id="edge10_Node000006_Node000009" class="edge">
<title>Node6&#45;&gt;Node9</title>
<g id="a_edge10_Node000006_Node000009"><a xlink:title=" ">
<path fill="none" stroke="#63b8ff" d="M320.82,-147.01C274.86,-119.38 181.99,-63.55 143.53,-40.44"/>
<polygon fill="#63b8ff" stroke="#63b8ff" points="318.76,-150.46 329.14,-152.61 322.37,-144.46 318.76,-150.46"/>
</a>
</g>
</g>
<!-- Node11 -->
<g id="Node000011" class="node">
<title>Node11</title>
<g id="a_Node000011"><a xlink:href="ft__putnbr__base_8c.html#a24815d094f34d9eb2a1288d10b8bd359" target="_top" xlink:title="Manage the sign before a number replacement.">
<polygon fill="white" stroke="#666666" points="283.5,-192.05 203.75,-192.05 203.75,-172.05 283.5,-172.05 283.5,-192.05"/>
<text text-anchor="middle" x="243.62" y="-178.55" font-family="Helvetica,sans-Serif" font-size="10.00">ft_putnbr_base</text>
</a>
</g>
</g>
<!-- Node6&#45;&gt;Node11 -->
<g id="edge12_Node000006_Node000011" class="edge">
<title>Node6&#45;&gt;Node11</title>
<g id="a_edge12_Node000006_Node000011"><a xlink:title=" ">
<path fill="none" stroke="#63b8ff" d="M318.94,-168.32C308.02,-170.34 295.38,-172.68 283.65,-174.84"/>
<polygon fill="#63b8ff" stroke="#63b8ff" points="319.38,-171.62 328.58,-166.36 318.11,-164.73 319.38,-171.62"/>
</a>
</g>
</g>
<!-- Node12 -->
<g id="Node000012" class="node">
<title>Node12</title>
<g id="a_Node000012"><a xlink:href="ft__putnbr__base__p_8c.html#a2f33d4ba2e17b7b581850c0bf068afdf" target="_top" xlink:title="Affect a memory address in an certain numbering.">
<polygon fill="white" stroke="#666666" points="288.75,-40.05 198.5,-40.05 198.5,-20.05 288.75,-20.05 288.75,-40.05"/>
<text text-anchor="middle" x="243.62" y="-26.55" font-family="Helvetica,sans-Serif" font-size="10.00">ft_putnbr_base_p</text>
</a>
</g>
</g>
<!-- Node6&#45;&gt;Node12 -->
<g id="edge14_Node000006_Node000012" class="edge">
<title>Node6&#45;&gt;Node12</title>
<g id="a_edge14_Node000006_Node000012"><a xlink:title=" ">
<path fill="none" stroke="#63b8ff" d="M333.64,-144.37C322.92,-129.99 307.65,-109.66 294,-92.05 279.84,-73.77 263,-52.78 253.1,-40.51"/>
<polygon fill="#63b8ff" stroke="#63b8ff" points="331.19,-145.94 339.97,-151.87 336.8,-141.76 331.19,-145.94"/>
</a>
</g>
</g>
<!-- Node8 -->
<g id="Node000008" class="node">
<title>Node8</title>
<g id="a_Node000008"><a xlink:href="ft__write_8c.html#acb5c93b91b86ca3ea395b496eef6850d" target="_top" xlink:title="affect the output of a number replacement">
<polygon fill="white" stroke="#666666" points="57.25,-154.05 0,-154.05 0,-134.05 57.25,-134.05 57.25,-154.05"/>
<text text-anchor="middle" x="28.62" y="-140.55" font-family="Helvetica,sans-Serif" font-size="10.00">ft_write_d</text>
</a>
</g>
</g>
<!-- Node7&#45;&gt;Node8 -->
<g id="edge9_Node000007_Node000008" class="edge">
<title>Node7&#45;&gt;Node8</title>
<g id="a_edge9_Node000007_Node000008"><a xlink:title=" ">
<path fill="none" stroke="#63b8ff" d="M87.35,-144.05C77.47,-144.05 66.95,-144.05 57.63,-144.05"/>
<polygon fill="#63b8ff" stroke="#63b8ff" points="87.14,-147.55 97.14,-144.05 87.14,-140.55 87.14,-147.55"/>
</a>
</g>
</g>
<!-- Node10 -->
<g id="Node000010" class="node">
<title>Node10</title>
<g id="a_Node000010"><a xlink:href="ft__write_8c.html#a905ddf384a970ba04f14b3201c110783" target="_top" xlink:title="affect the output of a pointer replacement">
<polygon fill="white" stroke="#666666" points="57.25,-40.05 0,-40.05 0,-20.05 57.25,-20.05 57.25,-40.05"/>
<text text-anchor="middle" x="28.62" y="-26.55" font-family="Helvetica,sans-Serif" font-size="10.00">ft_write_p</text>
</a>
</g>
</g>
<!-- Node9&#45;&gt;Node10 -->
<g id="edge11_Node000009_Node000010" class="edge">
<title>Node9&#45;&gt;Node10</title>
<g id="a_edge11_Node000009_Node000010"><a xlink:title=" ">
<path fill="none" stroke="#63b8ff" d="M82.27,-30.05C73.93,-30.05 65.38,-30.05 57.65,-30.05"/>
<polygon fill="#63b8ff" stroke="#63b8ff" points="82,-33.55 92,-30.05 82,-26.55 82,-33.55"/>
</a>
</g>
</g>
<!-- Node11&#45;&gt;Node7 -->
<g id="edge13_Node000011_Node000007" class="edge">
<title>Node11&#45;&gt;Node7</title>
<g id="a_edge13_Node000011_Node000007"><a xlink:title=" ">
<path fill="none" stroke="#63b8ff" d="M200.29,-168.23C184.26,-162.99 166.49,-157.19 152.38,-152.58"/>
<polygon fill="#63b8ff" stroke="#63b8ff" points="198.92,-171.79 209.52,-171.56 201.1,-165.13 198.92,-171.79"/>
</a>
</g>
</g>
<!-- Node12&#45;&gt;Node9 -->
<g id="edge15_Node000012_Node000009" class="edge">
<title>Node12&#45;&gt;Node9</title>
<g id="a_edge15_Node000012_Node000009"><a xlink:title=" ">
<path fill="none" stroke="#63b8ff" d="M187.61,-30.05C177.25,-30.05 166.75,-30.05 157.44,-30.05"/>
<polygon fill="#63b8ff" stroke="#63b8ff" points="187.3,-33.55 197.3,-30.05 187.3,-26.55 187.3,-33.55"/>
</a>
</g>
</g>
</g>
</svg>
