<?xml version="1.0" encoding="UTF-8" standalone="no"?>
<!DOCTYPE svg PUBLIC "-//W3C//DTD SVG 1.1//EN"
 "http://www.w3.org/Graphics/SVG/1.1/DTD/svg11.dtd">
<!-- Generated by graphviz version 8.1.0 (20230707.0739)
 -->
<!-- Title: main Pages: 1 -->
<svg width="313pt" height="66pt"
 viewBox="0.00 0.00 312.75 66.00" xmlns="http://www.w3.org/2000/svg" xmlns:xlink="http://www.w3.org/1999/xlink">

<svg id="main" version="1.1" xmlns="http://www.w3.org/2000/svg" xmlns:xlink="http://www.w3.org/1999/xlink" xml:space="preserve" onload="init(evt)">
<style type="text/css"><![CDATA[
.node, .edge {opacity: 0.7;}
.node.selected, .edge.selected {opacity: 1;}
.edge:hover path { stroke: red; }
.edge:hover polygon { stroke: red; fill: red; }
]]></style>
<script type="application/ecmascript" xlink:href="svg.min.js"/>
<svg id="graph" class="graph">
<g id="graph0" class="graph" transform="scale(1 1) rotate(0) translate(4 62)">
<title>main</title>
<!-- Node1 -->
<g id="Node000001" class="node">
<title>Node1</title>
<g id="a_Node000001"><a xlink:title=" ">
<polygon fill="#999999" stroke="#666666" points="37,-39 0,-39 0,-19 37,-19 37,-39"/>
<text text-anchor="middle" x="18.5" y="-25.5" font-family="Helvetica,sans-Serif" font-size="10.00">main</text>
</a>
</g>
</g>
<!-- Node2 -->
<g id="Node000002" class="node">
<title>Node2</title>
<g id="a_Node000002"><a xlink:href="ft__printf_8c.html#a1ee8ae8a80a7d9141ea5339af8565f2e" target="_top" xlink:title="Replication of the printf function.">
<polygon fill="white" stroke="#666666" points="120.5,-39 73,-39 73,-19 120.5,-19 120.5,-39"/>
<text text-anchor="middle" x="96.75" y="-25.5" font-family="Helvetica,sans-Serif" font-size="10.00">ft_printf</text>
</a>
</g>
</g>
<!-- Node1&#45;&gt;Node2 -->
<g id="edge1_Node000001_Node000002" class="edge">
<title>Node1&#45;&gt;Node2</title>
<g id="a_edge1_Node000001_Node000002"><a xlink:title=" ">
<path fill="none" stroke="#63b8ff" d="M37.18,-29C44.53,-29 53.3,-29 61.8,-29"/>
<polygon fill="#63b8ff" stroke="#63b8ff" points="61.67,-32.5 71.67,-29 61.67,-25.5 61.67,-32.5"/>
</a>
</g>
</g>
<!-- Node3 -->
<g id="Node000003" class="node">
<title>Node3</title>
<g id="a_Node000003"><a xlink:href="ft__putstr__n_8c.html#a0bdff2ee28cda979f00505568fc9d7e4" target="_top" xlink:title="Write a string with a NULL protection.">
<polygon fill="white" stroke="#666666" points="218.25,-58 156.5,-58 156.5,-38 218.25,-38 218.25,-58"/>
<text text-anchor="middle" x="187.38" y="-44.5" font-family="Helvetica,sans-Serif" font-size="10.00">ft_putstr_n</text>
</a>
</g>
</g>
<!-- Node2&#45;&gt;Node3 -->
<g id="edge2_Node000002_Node000003" class="edge">
<title>Node2&#45;&gt;Node3</title>
<g id="a_edge2_Node000002_Node000003"><a xlink:title=" ">
<path fill="none" stroke="#63b8ff" d="M120.57,-33.89C128.22,-35.53 136.99,-37.41 145.58,-39.25"/>
<polygon fill="#63b8ff" stroke="#63b8ff" points="144.76,-42.87 155.27,-41.55 146.23,-36.03 144.76,-42.87"/>
</a>
</g>
</g>
<!-- Node4 -->
<g id="Node000004" class="node">
<title>Node4</title>
<g id="a_Node000004"><a xlink:href="ft__size_8c.html#aa6b3eb9b95e19938231487a09fa57fbf" target="_top" xlink:title="Calculation of the length of the content to print.">
<polygon fill="white" stroke="#666666" points="209.62,-20 165.12,-20 165.12,0 209.62,0 209.62,-20"/>
<text text-anchor="middle" x="187.38" y="-6.5" font-family="Helvetica,sans-Serif" font-size="10.00">ft_size</text>
</a>
</g>
</g>
<!-- Node2&#45;&gt;Node4 -->
<g id="edge3_Node000002_Node000004" class="edge">
<title>Node2&#45;&gt;Node4</title>
<g id="a_edge3_Node000002_Node000004"><a xlink:title=" ">
<path fill="none" stroke="#63b8ff" d="M120.57,-24.11C130.8,-21.91 143.05,-19.29 154.19,-16.9"/>
<polygon fill="#63b8ff" stroke="#63b8ff" points="154.8,-20.13 163.85,-14.61 153.34,-13.29 154.8,-20.13"/>
</a>
</g>
</g>
<!-- Node5 -->
<g id="Node000005" class="node">
<title>Node5</title>
<g id="a_Node000005"><a xlink:href="ft__strlen_8c.html#a828402378653640f545a4be2e00e92f9" target="_top" xlink:title="Replication of the strlen function.">
<polygon fill="white" stroke="#666666" points="304.75,-20 254.25,-20 254.25,0 304.75,0 304.75,-20"/>
<text text-anchor="middle" x="279.5" y="-6.5" font-family="Helvetica,sans-Serif" font-size="10.00">ft_strlen</text>
</a>
</g>
</g>
<!-- Node4&#45;&gt;Node5 -->
<g id="edge4_Node000004_Node000005" class="edge">
<title>Node4&#45;&gt;Node5</title>
<g id="a_edge4_Node000004_Node000005"><a xlink:title=" ">
<path fill="none" stroke="#63b8ff" d="M209.73,-10C219.65,-10 231.71,-10 242.94,-10"/>
<polygon fill="#63b8ff" stroke="#63b8ff" points="242.79,-13.5 252.79,-10 242.79,-6.5 242.79,-13.5"/>
</a>
</g>
</g>
</g>
</svg>
</svg>

<style type='text/css'>
<![CDATA[
[data-mouse-over-selected='false'] { opacity: 0.7; }
[data-mouse-over-selected='true']  { opacity: 1.0; }
]]>
</style>
<script type="application/ecmascript"><![CDATA[
document.addEventListener('DOMContentLoaded', (event) => {
  highlightEdges();
  highlightAdjacentNodes();
});
]]></script>
</svg>
